{"glyphs":{"0":{"ha":806,"x_min":53,"x_max":782,"o":"m 363 -22 q 133 84 213 -22 q 53 393 53 190 q 85 623 53 518 q 176 805 118 728 q 313 924 235 882 q 483 967 392 967 q 711 861 640 967 q 782 553 782 756 q 751 322 782 426 q 663 140 719 217 q 531 20 607 63 q 363 -22 454 -22 m 456 856 q 364 819 404 856 q 295 720 324 783 q 252 576 267 657 q 238 406 238 496 q 270 173 238 257 q 385 89 303 89 q 492 144 444 89 q 569 298 540 200 q 599 525 599 396 q 566 769 599 683 q 456 856 533 856 z "},"1":{"ha":806,"x_min":19,"x_max":764,"o":"m 19 7 q 42 52 19 32 q 94 75 64 72 l 369 107 l 300 38 l 379 783 l 190 729 q 131 710 157 719 q 99 700 106 700 q 78 706 85 700 q 71 724 71 711 q 97 774 71 746 q 186 832 122 803 l 438 946 q 469 959 450 951 q 501 967 488 967 q 550 931 546 967 q 544 811 554 896 l 506 443 q 488 243 494 333 q 488 74 481 153 l 422 113 l 711 156 q 735 160 726 158 q 747 163 743 163 q 764 143 764 163 q 758 103 764 128 q 739 56 751 79 q 708 16 726 32 q 668 0 690 0 l 317 0 q 185 -4 244 0 q 89 -12 126 -8 q 42 -17 51 -17 q 19 7 19 -17 z "},"2":{"ha":806,"x_min":67,"x_max":765,"o":"m 144 185 l 314 354 q 446 489 393 433 q 526 594 499 544 q 553 704 553 644 q 512 820 553 785 q 408 856 471 856 q 307 835 350 856 q 232 796 264 815 q 185 769 204 779 q 151 760 167 760 q 132 771 140 760 q 120 800 124 782 q 117 839 117 818 q 151 901 117 872 q 252 949 186 931 q 413 967 318 967 q 583 941 511 967 q 696 863 656 915 q 736 731 736 811 q 709 595 736 656 q 639 483 682 535 q 544 388 596 432 q 443 300 493 343 l 186 78 l 192 94 l 667 161 q 714 168 693 165 q 749 171 735 171 q 765 151 765 171 q 759 110 765 135 q 740 60 753 85 q 710 17 728 35 q 671 0 693 0 l 508 0 q 432 -1 478 0 q 335 -5 386 -3 q 238 -9 285 -7 q 157 -12 190 -11 q 113 -14 124 -14 q 83 -3 93 -14 q 70 24 74 8 q 67 51 67 40 q 81 107 67 79 q 144 185 94 135 z "},"3":{"ha":806,"x_min":26,"x_max":739,"o":"m 518 510 l 533 553 q 638 510 592 542 q 712 428 685 478 q 739 311 739 378 q 683 136 739 211 q 535 19 628 61 q 328 -22 442 -22 q 150 0 217 -22 q 55 58 83 22 q 26 132 26 93 q 33 188 26 169 q 57 206 40 206 q 97 188 68 206 q 165 147 125 171 q 251 106 204 124 q 344 89 297 89 q 454 119 407 89 q 528 200 501 150 q 554 310 554 250 q 514 430 554 388 q 413 481 474 472 l 524 496 q 450 462 490 478 q 371 436 410 446 q 301 426 332 426 q 265 444 283 426 q 236 490 247 463 q 225 544 225 517 q 235 576 225 565 q 258 588 244 588 q 320 584 283 588 q 398 576 357 581 q 473 567 439 571 q 525 563 507 563 l 447 542 q 517 619 489 568 q 544 721 544 669 q 508 823 544 790 q 410 856 471 856 q 312 835 360 856 q 228 794 264 814 q 183 770 200 781 q 151 760 167 760 q 134 770 142 760 q 122 799 126 781 q 117 839 117 817 q 161 903 117 875 q 280 949 206 932 q 442 967 354 967 q 643 911 567 967 q 719 756 719 856 q 692 644 719 690 q 619 565 664 597 q 518 510 574 533 z "},"4":{"ha":806,"x_min":8,"x_max":806,"o":"m 8 269 q 16 319 8 297 q 51 376 24 340 q 133 476 78 411 l 472 872 q 527 931 506 911 q 569 958 549 951 q 619 965 590 965 l 668 965 q 703 952 693 965 q 714 901 714 939 q 711 835 714 868 q 703 757 708 801 q 692 647 699 713 l 622 -11 l 511 -11 q 490 -1 499 -11 q 478 28 482 8 q 474 74 474 47 q 476 157 474 111 q 483 247 479 203 q 490 325 488 292 l 550 889 l 590 849 l 115 279 l 74 335 l 536 335 q 649 339 596 335 q 738 347 701 343 q 783 351 774 351 q 800 345 794 351 q 806 328 806 339 q 778 284 806 307 q 709 246 750 261 q 629 231 668 231 l 47 228 q 17 237 26 228 q 8 269 8 246 z "},"5":{"ha":806,"x_min":33,"x_max":754,"o":"m 33 126 q 40 182 33 164 q 64 200 47 200 q 99 183 75 200 q 157 144 122 167 q 234 106 192 122 q 325 89 276 89 q 439 122 390 89 q 515 211 488 154 q 542 340 542 268 q 503 459 542 418 q 392 500 464 500 q 301 486 346 500 q 220 459 256 472 q 168 446 185 446 q 136 511 136 446 q 141 554 136 518 q 153 643 146 590 l 194 928 q 215 944 197 944 l 439 944 q 595 950 538 944 q 683 961 653 956 q 726 967 713 967 q 748 962 742 967 q 754 936 754 957 q 749 893 754 917 q 733 849 743 869 q 710 814 724 828 q 682 800 697 800 q 616 806 664 800 q 500 818 568 811 l 228 847 l 311 897 l 257 522 l 210 544 q 332 596 265 581 q 458 611 399 611 q 594 584 533 611 q 690 501 654 557 q 726 357 726 444 q 675 167 726 254 q 530 29 624 81 q 308 -22 436 -22 q 147 -1 207 -22 q 60 53 86 19 q 33 126 33 88 z "},"6":{"ha":806,"x_min":71,"x_max":767,"o":"m 400 -22 q 274 -3 333 -22 q 169 60 215 17 q 97 172 124 103 q 71 340 71 240 q 104 591 71 476 q 201 790 138 706 q 353 920 264 874 q 553 967 442 967 q 672 955 632 967 q 726 922 713 943 q 739 874 739 901 q 728 815 739 835 q 704 794 717 794 q 679 801 693 794 q 640 819 665 808 q 580 842 621 829 q 490 856 539 856 q 357 794 410 856 q 278 623 304 733 q 251 365 251 513 q 295 158 251 226 q 413 89 339 89 q 536 153 490 89 q 582 326 582 217 q 565 416 582 376 q 515 478 549 456 q 426 500 481 500 q 348 489 403 500 q 240 440 293 478 l 244 540 q 355 592 293 572 q 489 611 417 611 q 633 583 571 611 q 731 495 696 554 q 767 343 767 436 q 738 199 767 265 q 657 83 708 132 q 540 6 606 33 q 400 -22 474 -22 z "},"7":{"ha":806,"x_min":78,"x_max":842,"o":"m 79 814 q 90 878 81 849 q 113 926 99 907 q 143 944 126 944 l 819 944 q 835 938 829 944 q 840 921 842 931 q 826 859 838 883 q 795 815 814 835 q 750 769 776 796 q 569 552 635 654 q 478 358 504 450 q 451 179 451 267 q 464 103 451 136 q 476 51 476 69 q 454 20 476 33 q 401 -3 432 7 q 343 -17 371 -12 q 304 -22 315 -22 q 272 4 283 -22 q 261 113 261 31 q 293 310 261 210 q 384 509 325 411 q 525 697 443 607 q 707 863 607 786 l 774 836 l 211 789 q 151 783 169 786 q 107 781 133 781 q 85 790 92 781 q 79 814 78 800 z "},"8":{"ha":806,"x_min":51,"x_max":754,"o":"m 51 208 q 74 306 51 258 q 138 394 97 354 q 234 460 179 433 q 353 493 289 486 l 390 440 q 308 396 347 424 q 243 330 268 368 q 218 243 218 292 q 267 126 218 164 q 390 89 317 89 q 513 128 465 89 q 560 235 560 167 q 539 304 560 278 q 482 354 518 331 q 400 407 446 378 l 339 447 q 269 492 306 469 q 202 542 233 515 q 151 606 171 569 q 131 694 132 643 q 173 839 129 778 q 292 933 217 900 q 463 967 368 967 q 675 916 596 967 q 754 763 754 865 q 731 675 754 717 q 669 601 708 633 q 583 547 631 568 q 483 517 535 525 l 432 568 q 503 610 467 583 q 563 669 539 636 q 588 739 588 703 q 556 824 588 793 q 460 854 525 854 q 347 820 390 854 q 304 732 304 786 q 324 665 304 692 q 371 622 343 639 q 422 590 399 604 l 569 506 q 627 470 597 490 q 684 423 657 450 q 728 359 711 396 q 744 274 744 322 q 693 124 744 190 q 557 18 642 57 q 369 -21 472 -21 q 138 35 224 -21 q 51 208 51 90 z "},"9":{"ha":806,"x_min":69,"x_max":763,"o":"m 281 -22 q 159 -10 201 -22 q 100 22 117 1 q 83 71 83 43 q 94 131 83 111 q 118 150 106 150 q 143 143 129 150 q 182 125 157 136 q 242 102 201 115 q 332 89 283 89 q 476 150 419 89 q 558 322 532 211 q 585 579 585 432 q 541 787 585 718 q 424 856 497 856 q 303 792 353 856 q 254 618 254 728 q 292 494 254 543 q 410 444 329 444 q 488 456 433 444 q 596 504 543 467 l 592 404 q 485 353 544 374 q 364 333 425 333 q 214 362 281 333 q 108 449 147 390 q 69 601 69 508 q 99 746 69 679 q 179 862 128 813 q 297 939 231 911 q 436 967 363 967 q 572 944 511 967 q 675 874 632 921 q 740 753 718 826 q 763 576 763 679 q 731 342 763 451 q 638 151 700 233 q 487 24 576 69 q 281 -22 397 -22 z "},"A":{"ha":903,"x_min":-21,"x_max":875,"o":"m 17 -19 q -21 4 -21 -19 q -10 40 -21 15 l 403 872 q 443 914 413 893 q 517 949 474 935 q 606 964 560 964 q 627 957 617 964 q 642 924 638 950 q 699 603 665 764 q 775 288 732 442 q 808 182 794 222 q 836 121 822 142 q 863 87 851 100 q 875 61 875 74 q 859 33 875 47 q 819 8 843 19 q 771 -10 796 -3 q 728 -17 746 -17 q 665 38 697 -17 q 603 236 633 93 l 482 815 l 508 832 l 238 263 q 212 197 219 224 q 203 149 204 171 q 197 100 201 128 q 171 52 194 74 q 116 15 147 31 q 57 -10 85 -1 q 17 -19 29 -19 m 192 264 l 192 368 l 708 368 l 708 264 l 192 264 z "},"Á":{"ha":903,"x_min":-21,"x_max":875,"o":"m 17 -19 q -21 4 -21 -19 q -10 40 -21 15 l 403 872 q 443 914 413 893 q 517 949 474 935 q 606 964 560 964 q 627 957 617 964 q 642 924 638 950 q 699 603 665 764 q 775 288 732 442 q 808 182 794 222 q 836 121 822 142 q 863 87 851 100 q 875 61 875 74 q 859 33 875 47 q 819 8 843 19 q 771 -10 796 -3 q 728 -17 746 -17 q 665 38 697 -17 q 603 236 633 93 l 482 815 l 508 832 l 238 263 q 212 197 219 224 q 203 149 204 171 q 197 100 201 128 q 171 52 194 74 q 116 15 147 31 q 57 -10 85 -1 q 17 -19 29 -19 m 192 264 l 192 368 l 708 368 l 708 264 l 192 264 m 365 1050 q 354 1032 354 1042 q 366 1016 354 1022 q 390 1010 378 1010 q 405 1010 397 1010 q 421 1015 413 1011 l 675 1136 q 694 1149 689 1143 q 699 1167 699 1156 q 687 1209 699 1190 q 658 1240 675 1228 q 624 1251 642 1251 q 589 1239 604 1251 l 365 1050 z "},"Ă":{"ha":903,"x_min":-21,"x_max":875,"o":"m 17 -19 q -21 4 -21 -19 q -10 40 -21 15 l 403 872 q 443 914 413 893 q 517 949 474 935 q 606 964 560 964 q 627 957 617 964 q 642 924 638 950 q 699 603 665 764 q 775 288 732 442 q 808 182 794 222 q 836 121 822 142 q 863 87 851 100 q 875 61 875 74 q 859 33 875 47 q 819 8 843 19 q 771 -10 796 -3 q 728 -17 746 -17 q 665 38 697 -17 q 603 236 633 93 l 482 815 l 508 832 l 238 263 q 212 197 219 224 q 203 149 204 171 q 197 100 201 128 q 171 52 194 74 q 116 15 147 31 q 57 -10 85 -1 q 17 -19 29 -19 m 192 264 l 192 368 l 708 368 l 708 264 l 192 264 m 532 1025 q 386 1076 432 1025 q 340 1200 340 1128 q 350 1233 340 1222 q 375 1240 360 1243 l 438 1233 q 455 1226 450 1232 q 460 1210 460 1221 q 476 1124 460 1156 q 536 1093 493 1093 q 599 1123 579 1093 q 628 1200 618 1153 q 644 1234 635 1226 q 672 1239 653 1242 l 728 1233 q 744 1228 738 1232 q 751 1211 751 1224 q 728 1131 751 1175 q 656 1056 704 1088 q 532 1025 607 1025 z "},"Â":{"ha":903,"x_min":-21,"x_max":875,"o":"m 17 -19 q -21 4 -21 -19 q -10 40 -21 15 l 403 872 q 443 914 413 893 q 517 949 474 935 q 606 964 560 964 q 627 957 617 964 q 642 924 638 950 q 699 603 665 764 q 775 288 732 442 q 808 182 794 222 q 836 121 822 142 q 863 87 851 100 q 875 61 875 74 q 859 33 875 47 q 819 8 843 19 q 771 -10 796 -3 q 728 -17 746 -17 q 665 38 697 -17 q 603 236 633 93 l 482 815 l 508 832 l 238 263 q 212 197 219 224 q 203 149 204 171 q 197 100 201 128 q 171 52 194 74 q 116 15 147 31 q 57 -10 85 -1 q 17 -19 29 -19 m 192 264 l 192 368 l 708 368 l 708 264 l 192 264 m 324 1057 l 324 1057 q 317 1040 314 1047 q 333 1031 319 1032 l 385 1025 q 403 1026 396 1024 q 415 1035 410 1029 l 533 1156 l 631 1036 q 646 1023 638 1029 q 678 1018 654 1017 l 731 1021 q 747 1030 742 1022 q 744 1047 751 1038 l 640 1206 q 606 1242 622 1233 q 557 1250 589 1250 q 510 1242 526 1250 q 481 1221 493 1233 l 324 1057 z "},"Ȁ":{"ha":903,"x_min":-21,"x_max":875,"o":"m 17 -19 q -21 4 -21 -19 q -10 40 -21 15 l 403 872 q 443 914 413 893 q 517 949 474 935 q 606 964 560 964 q 627 957 617 964 q 642 924 638 950 q 699 603 665 764 q 775 288 732 442 q 808 182 794 222 q 836 121 822 142 q 863 87 851 100 q 875 61 875 74 q 859 33 875 47 q 819 8 843 19 q 771 -10 796 -3 q 728 -17 746 -17 q 665 38 697 -17 q 603 236 633 93 l 482 815 l 508 832 l 238 263 q 212 197 219 224 q 203 149 204 171 q 197 100 201 128 q 171 52 194 74 q 116 15 147 31 q 57 -10 85 -1 q 17 -19 29 -19 m 192 264 l 192 368 l 708 368 l 708 264 l 192 264 m 772 1054 l 647 1240 q 633 1250 642 1247 q 613 1253 624 1253 q 578 1241 596 1253 q 549 1210 561 1229 q 538 1168 538 1192 q 543 1152 538 1157 q 561 1138 549 1147 l 717 1017 q 733 1011 724 1011 q 747 1011 742 1011 q 772 1017 760 1011 q 783 1033 783 1024 q 780 1043 783 1038 q 772 1054 776 1049 m 588 1050 l 407 1239 q 372 1251 396 1251 q 338 1240 356 1251 q 309 1209 321 1228 q 297 1167 297 1190 q 302 1149 297 1156 q 321 1136 307 1143 l 532 1015 q 549 1010 540 1011 q 563 1010 557 1010 q 587 1016 575 1010 q 599 1032 599 1022 q 595 1040 599 1036 q 588 1050 592 1044 z "},"Ä":{"ha":903,"x_min":-21,"x_max":875,"o":"m 17 -19 q -21 4 -21 -19 q -10 40 -21 15 l 403 872 q 443 914 413 893 q 517 949 474 935 q 606 964 560 964 q 627 957 617 964 q 642 924 638 950 q 699 603 665 764 q 775 288 732 442 q 808 182 794 222 q 836 121 822 142 q 863 87 851 100 q 875 61 875 74 q 859 33 875 47 q 819 8 843 19 q 771 -10 796 -3 q 728 -17 746 -17 q 665 38 697 -17 q 603 236 633 93 l 482 815 l 508 832 l 238 263 q 212 197 219 224 q 203 149 204 171 q 197 100 201 128 q 171 52 194 74 q 116 15 147 31 q 57 -10 85 -1 q 17 -19 29 -19 m 192 264 l 192 368 l 708 368 l 708 264 l 192 264 m 647 1061 q 592 1083 615 1061 q 568 1140 568 1104 q 596 1206 568 1182 q 660 1231 624 1231 q 715 1210 692 1231 q 738 1151 738 1190 q 711 1087 738 1113 q 647 1061 685 1061 m 424 1061 q 368 1083 392 1061 q 344 1140 344 1104 q 372 1206 344 1182 q 436 1231 400 1231 q 491 1210 468 1231 q 514 1151 514 1190 q 488 1087 514 1113 q 424 1061 461 1061 z "},"À":{"ha":903,"x_min":-21,"x_max":875,"o":"m 17 -19 q -21 4 -21 -19 q -10 40 -21 15 l 403 872 q 443 914 413 893 q 517 949 474 935 q 606 964 560 964 q 627 957 617 964 q 642 924 638 950 q 699 603 665 764 q 775 288 732 442 q 808 182 794 222 q 836 121 822 142 q 863 87 851 100 q 875 61 875 74 q 859 33 875 47 q 819 8 843 19 q 771 -10 796 -3 q 728 -17 746 -17 q 665 38 697 -17 q 603 236 633 93 l 482 815 l 508 832 l 238 263 q 212 197 219 224 q 203 149 204 171 q 197 100 201 128 q 171 52 194 74 q 116 15 147 31 q 57 -10 85 -1 q 17 -19 29 -19 m 192 264 l 192 368 l 708 368 l 708 264 l 192 264 m 686 1050 l 506 1239 q 490 1249 500 1246 q 469 1251 481 1251 q 435 1240 453 1251 q 406 1209 418 1228 q 394 1167 394 1190 q 399 1149 394 1156 q 418 1136 404 1143 l 631 1015 q 647 1010 639 1011 q 661 1010 656 1010 q 685 1016 674 1010 q 697 1032 697 1022 q 694 1040 697 1036 q 686 1050 690 1044 z "},"Ȃ":{"ha":903,"x_min":-21,"x_max":875,"o":"m 17 -19 q -21 4 -21 -19 q -10 40 -21 15 l 403 872 q 443 914 413 893 q 517 949 474 935 q 606 964 560 964 q 627 957 617 964 q 642 924 638 950 q 699 603 665 764 q 775 288 732 442 q 808 182 794 222 q 836 121 822 142 q 863 87 851 100 q 875 61 875 74 q 859 33 875 47 q 819 8 843 19 q 771 -10 796 -3 q 728 -17 746 -17 q 665 38 697 -17 q 603 236 633 93 l 482 815 l 508 832 l 238 263 q 212 197 219 224 q 203 149 204 171 q 197 100 201 128 q 171 52 194 74 q 116 15 147 31 q 57 -10 85 -1 q 17 -19 29 -19 m 192 264 l 192 368 l 708 368 l 708 264 l 192 264 m 568 1240 q 714 1190 668 1240 q 760 1065 760 1139 q 750 1033 760 1043 q 725 1025 740 1024 l 663 1032 q 645 1040 650 1033 q 640 1056 640 1046 q 624 1141 640 1110 q 564 1172 608 1172 q 502 1142 521 1172 q 472 1065 483 1113 q 457 1032 467 1039 q 428 1026 447 1025 l 372 1032 q 356 1038 363 1033 q 349 1054 349 1042 q 372 1135 349 1092 q 445 1209 396 1178 q 568 1240 494 1240 z "},"Ā":{"ha":903,"x_min":-21,"x_max":875,"o":"m 17 -19 q -21 4 -21 -19 q -10 40 -21 15 l 403 872 q 443 914 413 893 q 517 949 474 935 q 606 964 560 964 q 627 957 617 964 q 642 924 638 950 q 699 603 665 764 q 775 288 732 442 q 808 182 794 222 q 836 121 822 142 q 863 87 851 100 q 875 61 875 74 q 859 33 875 47 q 819 8 843 19 q 771 -10 796 -3 q 728 -17 746 -17 q 665 38 697 -17 q 603 236 633 93 l 482 815 l 508 832 l 238 263 q 212 197 219 224 q 203 149 204 171 q 197 100 201 128 q 171 52 194 74 q 116 15 147 31 q 57 -10 85 -1 q 17 -19 29 -19 m 192 264 l 192 368 l 708 368 l 708 264 l 192 264 m 353 1147 q 374 1168 356 1168 l 717 1168 q 738 1147 740 1168 l 732 1106 q 711 1085 729 1085 l 368 1085 q 347 1106 344 1085 l 353 1147 z "},"Ą":{"ha":903,"x_min":-21,"x_max":875,"o":"m 17 -19 q -21 4 -21 -19 q -10 40 -21 15 l 403 872 q 443 914 413 893 q 517 949 474 935 q 606 964 560 964 q 627 957 617 964 q 642 924 638 950 q 699 603 665 764 q 775 288 732 442 q 808 182 794 222 q 836 121 822 142 q 863 87 851 100 q 875 61 875 74 q 859 33 875 47 q 819 8 843 19 q 771 -10 796 -3 q 728 -17 746 -17 q 665 38 697 -17 q 603 236 633 93 l 482 815 l 508 832 l 238 263 q 212 197 219 224 q 203 149 204 171 q 197 100 201 128 q 171 52 194 74 q 116 15 147 31 q 57 -10 85 -1 q 17 -19 29 -19 m 192 264 l 192 368 l 708 368 l 708 264 l 192 264 m 528 -149 q 567 -57 528 -97 q 665 7 606 -17 q 785 31 725 31 q 806 27 797 31 q 814 18 814 24 q 810 11 814 15 q 790 1 806 7 q 708 -51 735 -17 q 682 -112 682 -85 q 700 -158 682 -143 q 745 -176 718 -172 q 803 -181 772 -181 q 818 -184 811 -181 q 825 -194 825 -187 q 808 -233 825 -208 q 760 -278 792 -260 q 692 -296 728 -296 q 613 -280 651 -296 q 551 -231 575 -264 q 528 -149 528 -199 z "},"Å":{"ha":903,"x_min":-21,"x_max":875,"o":"m 17 -19 q -21 4 -21 -19 q -10 40 -21 15 l 403 872 q 443 914 413 893 q 517 949 474 935 q 606 964 560 964 q 627 957 617 964 q 642 924 638 950 q 699 603 665 764 q 775 288 732 442 q 808 182 794 222 q 836 121 822 142 q 863 87 851 100 q 875 61 875 74 q 859 33 875 47 q 819 8 843 19 q 771 -10 796 -3 q 728 -17 746 -17 q 665 38 697 -17 q 603 236 633 93 l 482 815 l 508 832 l 238 263 q 212 197 219 224 q 203 149 204 171 q 197 100 201 128 q 171 52 194 74 q 116 15 147 31 q 57 -10 85 -1 q 17 -19 29 -19 m 192 264 l 192 368 l 708 368 l 708 264 l 192 264 m 539 1015 q 442 1051 478 1015 q 406 1136 406 1086 q 444 1228 406 1189 q 547 1267 483 1267 q 642 1231 607 1267 q 678 1147 678 1196 q 639 1054 678 1093 q 539 1015 600 1015 m 540 1079 q 583 1097 565 1079 q 600 1144 600 1115 q 585 1188 600 1174 q 546 1203 569 1203 q 501 1187 519 1203 q 483 1139 483 1171 q 500 1096 483 1113 q 540 1079 517 1079 z "},"Ǻ":{"ha":903,"x_min":-21,"x_max":875,"o":"m 17 -19 q -21 4 -21 -19 q -10 40 -21 15 l 403 872 q 443 914 413 893 q 517 949 474 935 q 606 964 560 964 q 627 957 617 964 q 642 924 638 950 q 699 603 665 764 q 775 288 732 442 q 808 182 794 222 q 836 121 822 142 q 863 87 851 100 q 875 61 875 74 q 859 33 875 47 q 819 8 843 19 q 771 -10 796 -3 q 728 -17 746 -17 q 665 38 697 -17 q 603 236 633 93 l 482 815 l 508 832 l 238 263 q 212 197 219 224 q 203 149 204 171 q 197 100 201 128 q 171 52 194 74 q 116 15 147 31 q 57 -10 85 -1 q 17 -19 29 -19 m 192 264 l 192 368 l 708 368 l 708 264 l 192 264 m 539 1015 q 442 1051 478 1015 q 406 1136 406 1086 q 444 1228 406 1189 q 547 1267 483 1267 q 642 1231 607 1267 q 678 1147 678 1196 q 639 1054 678 1093 q 539 1015 600 1015 m 540 1079 q 583 1097 565 1079 q 600 1144 600 1115 q 585 1188 600 1174 q 546 1203 569 1203 q 501 1187 519 1203 q 483 1139 483 1171 q 500 1096 483 1113 q 540 1079 517 1079 m 397 1356 q 386 1338 386 1347 q 398 1322 386 1328 q 422 1315 410 1315 q 437 1316 429 1315 q 453 1321 444 1317 l 707 1442 q 726 1455 721 1449 q 731 1472 731 1461 q 719 1515 731 1496 q 690 1545 707 1533 q 656 1557 674 1557 q 621 1544 636 1557 l 397 1356 z "},"Ã":{"ha":903,"x_min":-21,"x_max":875,"o":"m 17 -19 q -21 4 -21 -19 q -10 40 -21 15 l 403 872 q 443 914 413 893 q 517 949 474 935 q 606 964 560 964 q 627 957 617 964 q 642 924 638 950 q 699 603 665 764 q 775 288 732 442 q 808 182 794 222 q 836 121 822 142 q 863 87 851 100 q 875 61 875 74 q 859 33 875 47 q 819 8 843 19 q 771 -10 796 -3 q 728 -17 746 -17 q 665 38 697 -17 q 603 236 633 93 l 482 815 l 508 832 l 238 263 q 212 197 219 224 q 203 149 204 171 q 197 100 201 128 q 171 52 194 74 q 116 15 147 31 q 57 -10 85 -1 q 17 -19 29 -19 m 192 264 l 192 368 l 708 368 l 708 264 l 192 264 m 344 1092 q 357 1156 344 1125 q 392 1206 369 1186 q 447 1225 415 1225 q 497 1213 468 1225 q 556 1185 526 1201 q 610 1158 586 1169 q 644 1146 633 1146 q 665 1160 658 1146 q 676 1194 671 1174 q 686 1215 681 1210 q 703 1221 692 1221 q 739 1213 726 1221 q 751 1182 751 1206 q 738 1108 751 1142 q 701 1056 725 1075 q 649 1036 678 1036 q 574 1056 610 1036 q 508 1095 539 1075 q 450 1115 476 1115 q 433 1105 440 1115 q 418 1071 425 1094 q 408 1050 414 1056 q 389 1044 401 1044 q 359 1053 374 1044 q 344 1092 344 1063 z "},"Æ":{"ha":1218,"x_min":-42,"x_max":1224,"o":"m -4 -19 q -33 4 -42 -19 q -11 40 -29 18 l 610 856 q 690 925 649 906 q 806 944 731 944 l 717 813 l 304 263 q 242 154 263 207 q 203 60 222 101 q 163 18 192 33 q 101 -6 135 3 q 38 -17 67 -14 q -4 -19 8 -19 m 292 264 l 292 368 l 781 368 l 781 264 l 292 264 m 664 -17 q 626 14 639 -17 q 613 82 613 44 q 625 258 613 136 l 694 944 l 908 944 q 1065 948 1007 944 q 1152 955 1122 951 q 1196 958 1182 958 q 1217 953 1211 958 q 1224 928 1224 949 q 1214 874 1224 903 q 1188 824 1204 844 q 1151 803 1172 803 q 1106 807 1138 803 q 1033 817 1074 811 l 853 840 l 790 221 q 788 163 788 192 q 792 104 788 133 l 1089 163 q 1131 172 1114 168 q 1154 175 1149 175 q 1171 156 1171 175 q 1159 85 1171 121 q 1126 24 1147 49 q 1075 0 1106 0 l 1033 0 q 789 -8 878 0 q 664 -17 700 -17 m 735 438 l 753 544 l 819 544 q 932 549 879 544 q 1021 557 985 553 q 1067 561 1057 561 q 1083 555 1078 561 q 1089 538 1089 549 q 1061 494 1089 517 q 992 457 1033 472 q 913 440 951 442 l 735 438 z "},"Ǽ":{"ha":1218,"x_min":-42,"x_max":1224,"o":"m -4 -19 q -33 4 -42 -19 q -11 40 -29 18 l 610 856 q 690 925 649 906 q 806 944 731 944 l 717 813 l 304 263 q 242 154 263 207 q 203 60 222 101 q 163 18 192 33 q 101 -6 135 3 q 38 -17 67 -14 q -4 -19 8 -19 m 292 264 l 292 368 l 781 368 l 781 264 l 292 264 m 664 -17 q 626 14 639 -17 q 613 82 613 44 q 625 258 613 136 l 694 944 l 908 944 q 1065 948 1007 944 q 1152 955 1122 951 q 1196 958 1182 958 q 1217 953 1211 958 q 1224 928 1224 949 q 1214 874 1224 903 q 1188 824 1204 844 q 1151 803 1172 803 q 1106 807 1138 803 q 1033 817 1074 811 l 853 840 l 790 221 q 788 163 788 192 q 792 104 788 133 l 1089 163 q 1131 172 1114 168 q 1154 175 1149 175 q 1171 156 1171 175 q 1159 85 1171 121 q 1126 24 1147 49 q 1075 0 1106 0 l 1033 0 q 789 -8 878 0 q 664 -17 700 -17 m 735 438 l 753 544 l 819 544 q 932 549 879 544 q 1021 557 985 553 q 1067 561 1057 561 q 1083 555 1078 561 q 1089 538 1089 549 q 1061 494 1089 517 q 992 457 1033 472 q 913 440 951 442 l 735 438 m 622 1050 q 611 1032 611 1042 q 623 1016 611 1022 q 647 1010 635 1010 q 662 1010 654 1010 q 678 1015 669 1011 l 932 1136 q 951 1149 946 1143 q 956 1167 956 1156 q 944 1209 956 1190 q 915 1240 932 1228 q 881 1251 899 1251 q 846 1239 861 1251 l 622 1050 z "},"B":{"ha":801,"x_min":67,"x_max":769,"o":"m 111 -11 q 76 11 86 -11 q 67 71 67 33 q 71 133 67 99 l 160 944 q 272 954 213 950 q 399 958 331 958 q 601 935 525 958 q 713 865 678 913 q 747 747 747 818 q 699 606 747 665 q 574 507 651 546 l 528 483 q 461 453 490 465 q 407 442 432 442 q 353 459 381 442 q 325 492 325 476 q 331 509 325 504 q 349 517 338 514 q 451 555 399 529 q 538 622 503 581 q 574 726 574 664 q 513 825 574 796 q 314 854 451 854 l 249 221 q 247 194 247 207 q 246 167 246 181 q 247 135 246 151 q 250 104 249 119 q 500 155 415 104 q 585 308 585 206 q 551 419 585 372 q 460 485 517 467 l 556 535 q 672 484 624 518 q 744 404 719 450 q 769 301 769 358 q 726 146 769 214 q 594 39 682 78 q 378 0 507 0 q 310 -1 350 0 q 228 -6 269 -3 q 155 -10 188 -8 q 111 -11 122 -11 z "},"C":{"ha":829,"x_min":60,"x_max":833,"o":"m 447 -22 q 244 24 331 -22 q 108 164 157 71 q 60 393 60 257 q 99 623 60 518 q 211 805 139 728 q 383 924 283 882 q 606 967 483 967 q 776 942 719 967 q 833 856 833 918 q 822 799 833 822 q 796 775 810 775 q 767 783 783 775 q 732 801 751 792 q 659 837 699 818 q 554 856 619 856 q 399 800 469 856 q 287 647 329 744 q 244 418 244 549 q 277 235 244 308 q 364 125 310 161 q 482 89 418 89 q 576 109 535 89 q 649 156 618 129 q 706 202 681 182 q 750 222 731 222 q 776 215 765 222 q 786 186 786 208 q 740 85 786 132 q 618 8 694 38 q 447 -22 542 -22 z "},"Ć":{"ha":829,"x_min":60,"x_max":833,"o":"m 447 -22 q 244 24 331 -22 q 108 164 157 71 q 60 393 60 257 q 99 623 60 518 q 211 805 139 728 q 383 924 283 882 q 606 967 483 967 q 776 942 719 967 q 833 856 833 918 q 822 799 833 822 q 796 775 810 775 q 767 783 783 775 q 732 801 751 792 q 659 837 699 818 q 554 856 619 856 q 399 800 469 856 q 287 647 329 744 q 244 418 244 549 q 277 235 244 308 q 364 125 310 161 q 482 89 418 89 q 576 109 535 89 q 649 156 618 129 q 706 202 681 182 q 750 222 731 222 q 776 215 765 222 q 786 186 786 208 q 740 85 786 132 q 618 8 694 38 q 447 -22 542 -22 m 325 1050 q 314 1032 314 1042 q 326 1016 314 1022 q 350 1010 338 1010 q 365 1010 357 1010 q 381 1015 372 1011 l 635 1136 q 653 1149 649 1143 q 658 1167 658 1156 q 647 1209 658 1190 q 618 1240 635 1228 q 583 1251 601 1251 q 549 1239 564 1251 l 325 1050 z "},"Č":{"ha":829,"x_min":60,"x_max":833,"o":"m 447 -22 q 244 24 331 -22 q 108 164 157 71 q 60 393 60 257 q 99 623 60 518 q 211 805 139 728 q 383 924 283 882 q 606 967 483 967 q 776 942 719 967 q 833 856 833 918 q 822 799 833 822 q 796 775 810 775 q 767 783 783 775 q 732 801 751 792 q 659 837 699 818 q 554 856 619 856 q 399 800 469 856 q 287 647 329 744 q 244 418 244 549 q 277 235 244 308 q 364 125 310 161 q 482 89 418 89 q 576 109 535 89 q 649 156 618 129 q 706 202 681 182 q 750 222 731 222 q 776 215 765 222 q 786 186 786 208 q 740 85 786 132 q 618 8 694 38 q 447 -22 542 -22 m 717 1211 l 717 1211 q 724 1229 726 1222 q 707 1238 721 1236 l 656 1243 q 638 1242 644 1244 q 625 1233 632 1240 l 507 1113 l 410 1232 q 395 1245 404 1239 q 363 1250 386 1251 l 310 1247 q 294 1239 299 1246 q 296 1221 290 1232 l 400 1063 q 435 1027 418 1036 q 483 1018 451 1018 q 531 1026 515 1018 q 560 1047 547 1035 l 717 1211 z "},"Ç":{"ha":829,"x_min":60,"x_max":833,"o":"m 447 -22 q 244 24 331 -22 q 108 164 157 71 q 60 393 60 257 q 99 623 60 518 q 211 805 139 728 q 383 924 283 882 q 606 967 483 967 q 776 942 719 967 q 833 856 833 918 q 822 799 833 822 q 796 775 810 775 q 767 783 783 775 q 732 801 751 792 q 659 837 699 818 q 554 856 619 856 q 399 800 469 856 q 287 647 329 744 q 244 418 244 549 q 277 235 244 308 q 364 125 310 161 q 482 89 418 89 q 576 109 535 89 q 649 156 618 129 q 706 202 681 182 q 750 222 731 222 q 776 215 765 222 q 786 186 786 208 q 740 85 786 132 q 618 8 694 38 q 447 -22 542 -22 m 351 28 q 359 42 354 36 q 372 49 364 47 l 399 54 q 415 51 410 57 q 418 33 421 46 l 381 -115 l 365 -61 q 485 -86 435 -61 q 535 -165 535 -111 q 513 -231 535 -204 q 456 -274 492 -258 q 376 -297 419 -290 q 292 -306 333 -304 q 267 -300 274 -306 q 260 -285 260 -294 q 269 -253 260 -265 q 297 -239 279 -240 q 378 -220 342 -233 q 414 -174 414 -207 q 403 -151 414 -157 q 354 -140 392 -146 q 331 -129 342 -137 q 319 -100 319 -121 q 321 -87 319 -94 q 324 -74 322 -81 l 351 28 z "},"Ĉ":{"ha":829,"x_min":60,"x_max":833,"o":"m 447 -22 q 244 24 331 -22 q 108 164 157 71 q 60 393 60 257 q 99 623 60 518 q 211 805 139 728 q 383 924 283 882 q 606 967 483 967 q 776 942 719 967 q 833 856 833 918 q 822 799 833 822 q 796 775 810 775 q 767 783 783 775 q 732 801 751 792 q 659 837 699 818 q 554 856 619 856 q 399 800 469 856 q 287 647 329 744 q 244 418 244 549 q 277 235 244 308 q 364 125 310 161 q 482 89 418 89 q 576 109 535 89 q 649 156 618 129 q 706 202 681 182 q 750 222 731 222 q 776 215 765 222 q 786 186 786 208 q 740 85 786 132 q 618 8 694 38 q 447 -22 542 -22 m 283 1057 l 283 1057 q 276 1040 274 1047 q 293 1031 279 1032 l 344 1025 q 363 1026 356 1024 q 375 1035 369 1029 l 493 1156 l 590 1036 q 606 1023 597 1029 q 638 1018 614 1017 l 690 1021 q 706 1030 701 1022 q 704 1047 711 1038 l 600 1206 q 565 1242 582 1233 q 517 1250 549 1250 q 469 1242 486 1250 q 440 1221 453 1233 l 283 1057 z "},"Ċ":{"ha":829,"x_min":60,"x_max":833,"o":"m 447 -22 q 244 24 331 -22 q 108 164 157 71 q 60 393 60 257 q 99 623 60 518 q 211 805 139 728 q 383 924 283 882 q 606 967 483 967 q 776 942 719 967 q 833 856 833 918 q 822 799 833 822 q 796 775 810 775 q 767 783 783 775 q 732 801 751 792 q 659 837 699 818 q 554 856 619 856 q 399 800 469 856 q 287 647 329 744 q 244 418 244 549 q 277 235 244 308 q 364 125 310 161 q 482 89 418 89 q 576 109 535 89 q 649 156 618 129 q 706 202 681 182 q 750 222 731 222 q 776 215 765 222 q 786 186 786 208 q 740 85 786 132 q 618 8 694 38 q 447 -22 542 -22 m 504 1046 q 437 1072 465 1046 q 408 1142 408 1099 q 442 1222 408 1193 q 518 1250 475 1250 q 585 1226 558 1250 q 613 1156 613 1203 q 581 1077 613 1108 q 504 1046 549 1046 z "},"D":{"ha":932,"x_min":78,"x_max":903,"o":"m 129 -11 q 91 17 104 -11 q 78 82 78 44 q 90 258 78 136 l 160 944 q 309 955 235 951 q 447 958 383 958 q 784 852 665 958 q 903 556 903 746 q 835 269 903 394 q 638 72 767 143 q 325 0 510 0 q 222 -6 269 0 q 129 -11 174 -11 m 254 104 q 508 159 404 104 q 665 312 611 214 q 718 539 718 410 q 633 773 718 692 q 353 854 547 854 l 318 854 l 256 221 q 253 167 254 197 q 254 104 253 136 z "},"Ǆ":{"ha":1658,"x_min":78,"x_max":1660,"o":"m 129 -11 q 91 17 104 -11 q 78 82 78 44 q 90 258 78 136 l 160 944 q 309 955 235 951 q 447 958 383 958 q 784 852 665 958 q 903 556 903 746 q 835 269 903 394 q 638 72 767 143 q 325 0 510 0 q 222 -6 269 0 q 129 -11 174 -11 m 254 104 q 508 159 404 104 q 665 312 611 214 q 718 539 718 410 q 633 773 718 692 q 353 854 547 854 l 318 854 l 256 221 q 253 167 254 197 q 254 104 253 136 m 985 -8 q 953 23 965 -8 q 943 81 942 54 q 951 115 944 104 q 972 147 957 125 q 1182 439 1083 311 q 1365 676 1281 567 q 1514 893 1449 786 l 1521 844 l 1139 794 q 1083 788 1106 790 q 1053 786 1060 786 q 1028 795 1035 786 q 1021 829 1021 804 q 1028 877 1021 846 q 1051 934 1036 908 q 1088 960 1067 960 q 1189 952 1118 960 q 1379 944 1260 944 l 1626 944 q 1656 917 1651 944 q 1651 855 1660 889 q 1629 799 1643 821 q 1461 551 1551 675 q 1281 303 1371 426 q 1113 56 1190 179 l 1035 88 l 1525 175 q 1583 185 1565 182 q 1607 189 1600 189 q 1624 169 1624 189 q 1617 114 1624 143 q 1599 59 1611 85 q 1568 17 1586 33 q 1528 0 1550 0 l 1407 0 q 1213 -2 1289 0 q 1083 -6 1136 -4 q 985 -8 1031 -8 m 1571 1211 l 1571 1211 q 1578 1229 1581 1222 q 1561 1238 1575 1236 l 1510 1243 q 1492 1242 1499 1244 q 1479 1233 1486 1240 l 1361 1113 l 1264 1232 q 1249 1245 1258 1239 q 1217 1250 1240 1251 l 1164 1247 q 1149 1239 1153 1246 q 1150 1221 1144 1232 l 1254 1063 q 1289 1027 1272 1036 q 1338 1018 1306 1018 q 1385 1026 1369 1018 q 1414 1047 1401 1035 l 1571 1211 z "},"Ð":{"ha":946,"x_min":21,"x_max":917,"o":"m 46 446 q 26 451 32 446 q 21 465 21 456 q 45 523 21 494 q 100 551 69 551 l 522 550 q 543 547 539 550 q 547 532 547 543 q 539 505 547 526 q 516 465 531 483 q 482 446 501 446 l 46 446 m 143 -11 q 105 17 118 -11 q 92 82 92 44 q 104 258 92 136 l 174 944 q 323 955 249 951 q 461 958 397 958 q 798 852 679 958 q 917 556 917 746 q 849 269 917 394 q 652 72 781 143 q 339 0 524 0 q 235 -6 283 0 q 143 -11 188 -11 m 268 104 q 522 159 418 104 q 678 312 625 214 q 732 539 732 410 q 647 773 732 692 q 367 854 561 854 l 332 854 l 269 221 q 267 167 268 197 q 268 104 267 136 z "},"Ď":{"ha":932,"x_min":78,"x_max":903,"o":"m 129 -11 q 91 17 104 -11 q 78 82 78 44 q 90 258 78 136 l 160 944 q 309 955 235 951 q 447 958 383 958 q 784 852 665 958 q 903 556 903 746 q 835 269 903 394 q 638 72 767 143 q 325 0 510 0 q 222 -6 269 0 q 129 -11 174 -11 m 254 104 q 508 159 404 104 q 665 312 611 214 q 718 539 718 410 q 633 773 718 692 q 353 854 547 854 l 318 854 l 256 221 q 253 167 254 197 q 254 104 253 136 m 761 1211 l 761 1211 q 768 1229 771 1222 q 751 1238 765 1236 l 700 1243 q 683 1242 689 1244 q 669 1233 676 1240 l 551 1113 l 454 1232 q 440 1245 449 1239 q 407 1250 431 1251 l 354 1247 q 339 1239 343 1246 q 340 1221 335 1232 l 444 1063 q 479 1027 463 1036 q 528 1018 496 1018 q 576 1026 560 1018 q 604 1047 592 1035 l 761 1211 z "},"Đ":{"ha":946,"x_min":21,"x_max":917,"o":"m 46 446 q 26 451 32 446 q 21 465 21 456 q 45 523 21 494 q 100 551 69 551 l 522 550 q 543 547 539 550 q 547 532 547 543 q 539 505 547 526 q 516 465 531 483 q 482 446 501 446 l 46 446 m 143 -11 q 105 17 118 -11 q 92 82 92 44 q 104 258 92 136 l 174 944 q 323 955 249 951 q 461 958 397 958 q 798 852 679 958 q 917 556 917 746 q 849 269 917 394 q 652 72 781 143 q 339 0 524 0 q 235 -6 283 0 q 143 -11 188 -11 m 268 104 q 522 159 418 104 q 678 312 625 214 q 732 539 732 410 q 647 773 732 692 q 367 854 561 854 l 332 854 l 269 221 q 267 167 268 197 q 268 104 267 136 z "},"ǅ":{"ha":1538,"x_min":78,"x_max":1528,"o":"m 129 -11 q 91 17 104 -11 q 78 82 78 44 q 90 258 78 136 l 160 944 q 309 955 235 951 q 447 958 383 958 q 784 852 665 958 q 903 556 903 746 q 835 269 903 394 q 638 72 767 143 q 325 0 510 0 q 222 -6 269 0 q 129 -11 174 -11 m 254 104 q 508 159 404 104 q 665 312 611 214 q 718 539 718 410 q 633 773 718 692 q 353 854 547 854 l 318 854 l 256 221 q 253 167 254 197 q 254 104 253 136 m 968 0 q 953 10 960 0 q 947 42 947 19 q 952 90 947 69 q 963 121 957 111 q 1061 256 1007 190 q 1164 376 1115 321 q 1263 489 1215 436 q 1342 593 1311 542 l 1389 579 l 1088 539 q 1041 536 1063 536 q 1013 536 1019 536 q 998 544 1003 536 q 993 563 993 553 q 1001 610 993 582 q 1025 660 1010 639 q 1061 682 1040 682 q 1111 676 1069 682 q 1213 665 1153 671 q 1333 660 1272 660 l 1500 660 q 1519 653 1511 660 q 1528 638 1528 647 q 1524 599 1528 619 q 1500 547 1519 579 q 1422 438 1467 492 q 1324 326 1376 385 q 1214 203 1271 267 q 1113 71 1157 140 l 1071 88 l 1404 146 q 1449 153 1432 151 q 1472 156 1467 156 q 1488 144 1485 156 q 1485 103 1492 133 q 1460 19 1475 38 q 1428 0 1444 0 l 968 0 m 1511 926 l 1511 926 q 1518 944 1521 938 q 1501 953 1515 951 l 1450 958 q 1433 958 1439 960 q 1419 949 1426 956 l 1301 828 l 1204 947 q 1190 960 1199 954 q 1157 965 1181 967 l 1104 963 q 1089 954 1093 961 q 1090 936 1085 947 l 1194 778 q 1229 742 1213 751 q 1278 733 1246 733 q 1326 742 1310 733 q 1354 763 1342 750 l 1511 926 z "},"E":{"ha":683,"x_min":78,"x_max":689,"o":"m 129 -17 q 91 14 104 -17 q 78 82 78 44 q 90 258 78 136 l 160 944 l 374 944 q 530 948 472 944 q 617 955 588 951 q 661 958 647 958 q 683 953 676 958 q 689 928 689 949 q 679 874 689 903 q 653 824 669 844 q 617 803 638 803 q 571 807 603 803 q 499 817 539 811 l 318 840 l 256 221 q 253 163 253 192 q 257 104 253 133 l 554 163 q 597 172 579 168 q 619 175 614 175 q 636 156 636 175 q 624 85 636 121 q 592 24 613 49 q 540 0 571 0 l 499 0 q 254 -8 343 0 q 129 -17 165 -17 m 200 438 l 218 544 l 285 544 q 397 549 344 544 q 486 557 450 553 q 532 561 522 561 q 549 555 543 561 q 554 538 554 549 q 526 494 554 517 q 458 457 499 472 q 378 440 417 442 l 200 438 z "},"É":{"ha":683,"x_min":78,"x_max":689,"o":"m 129 -17 q 91 14 104 -17 q 78 82 78 44 q 90 258 78 136 l 160 944 l 374 944 q 530 948 472 944 q 617 955 588 951 q 661 958 647 958 q 683 953 676 958 q 689 928 689 949 q 679 874 689 903 q 653 824 669 844 q 617 803 638 803 q 571 807 603 803 q 499 817 539 811 l 318 840 l 256 221 q 253 163 253 192 q 257 104 253 133 l 554 163 q 597 172 579 168 q 619 175 614 175 q 636 156 636 175 q 624 85 636 121 q 592 24 613 49 q 540 0 571 0 l 499 0 q 254 -8 343 0 q 129 -17 165 -17 m 200 438 l 218 544 l 285 544 q 397 549 344 544 q 486 557 450 553 q 532 561 522 561 q 549 555 543 561 q 554 538 554 549 q 526 494 554 517 q 458 457 499 472 q 378 440 417 442 l 200 438 m 249 1050 q 238 1032 238 1042 q 249 1016 238 1022 q 274 1010 261 1010 q 288 1010 281 1010 q 304 1015 296 1011 l 558 1136 q 577 1149 572 1143 q 582 1167 582 1156 q 570 1209 582 1190 q 542 1240 558 1228 q 507 1251 525 1251 q 472 1239 488 1251 l 249 1050 z "},"Ĕ":{"ha":683,"x_min":78,"x_max":689,"o":"m 129 -17 q 91 14 104 -17 q 78 82 78 44 q 90 258 78 136 l 160 944 l 374 944 q 530 948 472 944 q 617 955 588 951 q 661 958 647 958 q 683 953 676 958 q 689 928 689 949 q 679 874 689 903 q 653 824 669 844 q 617 803 638 803 q 571 807 603 803 q 499 817 539 811 l 318 840 l 256 221 q 253 163 253 192 q 257 104 253 133 l 554 163 q 597 172 579 168 q 619 175 614 175 q 636 156 636 175 q 624 85 636 121 q 592 24 613 49 q 540 0 571 0 l 499 0 q 254 -8 343 0 q 129 -17 165 -17 m 200 438 l 218 544 l 285 544 q 397 549 344 544 q 486 557 450 553 q 532 561 522 561 q 549 555 543 561 q 554 538 554 549 q 526 494 554 517 q 458 457 499 472 q 378 440 417 442 l 200 438 m 415 1025 q 269 1076 315 1025 q 224 1200 224 1128 q 233 1233 224 1222 q 258 1240 243 1243 l 321 1233 q 338 1226 333 1232 q 343 1210 343 1221 q 360 1124 343 1156 q 419 1093 376 1093 q 482 1123 463 1093 q 511 1200 501 1153 q 527 1234 518 1226 q 556 1239 536 1242 l 611 1233 q 628 1228 621 1232 q 635 1211 635 1224 q 611 1131 635 1175 q 539 1056 588 1088 q 415 1025 490 1025 z "},"Ě":{"ha":683,"x_min":78,"x_max":689,"o":"m 129 -17 q 91 14 104 -17 q 78 82 78 44 q 90 258 78 136 l 160 944 l 374 944 q 530 948 472 944 q 617 955 588 951 q 661 958 647 958 q 683 953 676 958 q 689 928 689 949 q 679 874 689 903 q 653 824 669 844 q 617 803 638 803 q 571 807 603 803 q 499 817 539 811 l 318 840 l 256 221 q 253 163 253 192 q 257 104 253 133 l 554 163 q 597 172 579 168 q 619 175 614 175 q 636 156 636 175 q 624 85 636 121 q 592 24 613 49 q 540 0 571 0 l 499 0 q 254 -8 343 0 q 129 -17 165 -17 m 200 438 l 218 544 l 285 544 q 397 549 344 544 q 486 557 450 553 q 532 561 522 561 q 549 555 543 561 q 554 538 554 549 q 526 494 554 517 q 458 457 499 472 q 378 440 417 442 l 200 438 m 640 1211 l 640 1211 q 647 1229 650 1222 q 631 1238 644 1236 l 579 1243 q 562 1242 568 1244 q 549 1233 556 1240 l 431 1113 l 333 1232 q 319 1245 328 1239 q 286 1250 310 1251 l 233 1247 q 218 1239 222 1246 q 219 1221 214 1232 l 324 1063 q 358 1027 342 1036 q 407 1018 375 1018 q 455 1026 439 1018 q 483 1047 471 1035 l 640 1211 z "},"Ê":{"ha":683,"x_min":78,"x_max":689,"o":"m 129 -17 q 91 14 104 -17 q 78 82 78 44 q 90 258 78 136 l 160 944 l 374 944 q 530 948 472 944 q 617 955 588 951 q 661 958 647 958 q 683 953 676 958 q 689 928 689 949 q 679 874 689 903 q 653 824 669 844 q 617 803 638 803 q 571 807 603 803 q 499 817 539 811 l 318 840 l 256 221 q 253 163 253 192 q 257 104 253 133 l 554 163 q 597 172 579 168 q 619 175 614 175 q 636 156 636 175 q 624 85 636 121 q 592 24 613 49 q 540 0 571 0 l 499 0 q 254 -8 343 0 q 129 -17 165 -17 m 200 438 l 218 544 l 285 544 q 397 549 344 544 q 486 557 450 553 q 532 561 522 561 q 549 555 543 561 q 554 538 554 549 q 526 494 554 517 q 458 457 499 472 q 378 440 417 442 l 200 438 m 207 1057 l 207 1057 q 200 1040 197 1047 q 217 1031 203 1032 l 268 1025 q 286 1026 279 1024 q 299 1035 293 1029 l 417 1156 l 514 1036 q 529 1023 521 1029 q 561 1018 538 1017 l 614 1021 q 630 1030 625 1022 q 628 1047 635 1038 l 524 1206 q 489 1242 506 1233 q 440 1250 472 1250 q 393 1242 410 1250 q 364 1221 376 1233 l 207 1057 z "},"Ȅ":{"ha":683,"x_min":78,"x_max":689,"o":"m 129 -17 q 91 14 104 -17 q 78 82 78 44 q 90 258 78 136 l 160 944 l 374 944 q 530 948 472 944 q 617 955 588 951 q 661 958 647 958 q 683 953 676 958 q 689 928 689 949 q 679 874 689 903 q 653 824 669 844 q 617 803 638 803 q 571 807 603 803 q 499 817 539 811 l 318 840 l 256 221 q 253 163 253 192 q 257 104 253 133 l 554 163 q 597 172 579 168 q 619 175 614 175 q 636 156 636 175 q 624 85 636 121 q 592 24 613 49 q 540 0 571 0 l 499 0 q 254 -8 343 0 q 129 -17 165 -17 m 200 438 l 218 544 l 285 544 q 397 549 344 544 q 486 557 450 553 q 532 561 522 561 q 549 555 543 561 q 554 538 554 549 q 526 494 554 517 q 458 457 499 472 q 378 440 417 442 l 200 438 m 656 1054 l 531 1240 q 516 1250 525 1247 q 496 1253 507 1253 q 462 1241 479 1253 q 433 1210 444 1229 q 421 1168 421 1192 q 426 1152 421 1157 q 444 1138 432 1147 l 600 1017 q 616 1011 607 1011 q 631 1011 625 1011 q 655 1017 643 1011 q 667 1033 667 1024 q 663 1043 667 1038 q 656 1054 660 1049 m 471 1050 l 290 1239 q 256 1251 279 1251 q 222 1240 239 1251 q 192 1209 204 1228 q 181 1167 181 1190 q 185 1149 181 1156 q 204 1136 190 1143 l 415 1015 q 432 1010 424 1011 q 446 1010 440 1010 q 470 1016 458 1010 q 482 1032 482 1022 q 478 1040 482 1036 q 471 1050 475 1044 z "},"Ë":{"ha":683,"x_min":78,"x_max":689,"o":"m 129 -17 q 91 14 104 -17 q 78 82 78 44 q 90 258 78 136 l 160 944 l 374 944 q 530 948 472 944 q 617 955 588 951 q 661 958 647 958 q 683 953 676 958 q 689 928 689 949 q 679 874 689 903 q 653 824 669 844 q 617 803 638 803 q 571 807 603 803 q 499 817 539 811 l 318 840 l 256 221 q 253 163 253 192 q 257 104 253 133 l 554 163 q 597 172 579 168 q 619 175 614 175 q 636 156 636 175 q 624 85 636 121 q 592 24 613 49 q 540 0 571 0 l 499 0 q 254 -8 343 0 q 129 -17 165 -17 m 200 438 l 218 544 l 285 544 q 397 549 344 544 q 486 557 450 553 q 532 561 522 561 q 549 555 543 561 q 554 538 554 549 q 526 494 554 517 q 458 457 499 472 q 378 440 417 442 l 200 438 m 531 1061 q 475 1083 499 1061 q 451 1140 451 1104 q 479 1206 451 1182 q 543 1231 507 1231 q 598 1210 575 1231 q 621 1151 621 1190 q 594 1087 621 1113 q 531 1061 568 1061 m 307 1061 q 251 1083 275 1061 q 228 1140 228 1104 q 256 1206 228 1182 q 319 1231 283 1231 q 374 1210 351 1231 q 397 1151 397 1190 q 371 1087 397 1113 q 307 1061 344 1061 z "},"Ė":{"ha":683,"x_min":78,"x_max":689,"o":"m 129 -17 q 91 14 104 -17 q 78 82 78 44 q 90 258 78 136 l 160 944 l 374 944 q 530 948 472 944 q 617 955 588 951 q 661 958 647 958 q 683 953 676 958 q 689 928 689 949 q 679 874 689 903 q 653 824 669 844 q 617 803 638 803 q 571 807 603 803 q 499 817 539 811 l 318 840 l 256 221 q 253 163 253 192 q 257 104 253 133 l 554 163 q 597 172 579 168 q 619 175 614 175 q 636 156 636 175 q 624 85 636 121 q 592 24 613 49 q 540 0 571 0 l 499 0 q 254 -8 343 0 q 129 -17 165 -17 m 200 438 l 218 544 l 285 544 q 397 549 344 544 q 486 557 450 553 q 532 561 522 561 q 549 555 543 561 q 554 538 554 549 q 526 494 554 517 q 458 457 499 472 q 378 440 417 442 l 200 438 m 428 1046 q 360 1072 389 1046 q 332 1142 332 1099 q 365 1222 332 1193 q 442 1250 399 1250 q 509 1226 482 1250 q 536 1156 536 1203 q 504 1077 536 1108 q 428 1046 472 1046 z "},"È":{"ha":683,"x_min":78,"x_max":689,"o":"m 129 -17 q 91 14 104 -17 q 78 82 78 44 q 90 258 78 136 l 160 944 l 374 944 q 530 948 472 944 q 617 955 588 951 q 661 958 647 958 q 683 953 676 958 q 689 928 689 949 q 679 874 689 903 q 653 824 669 844 q 617 803 638 803 q 571 807 603 803 q 499 817 539 811 l 318 840 l 256 221 q 253 163 253 192 q 257 104 253 133 l 554 163 q 597 172 579 168 q 619 175 614 175 q 636 156 636 175 q 624 85 636 121 q 592 24 613 49 q 540 0 571 0 l 499 0 q 254 -8 343 0 q 129 -17 165 -17 m 200 438 l 218 544 l 285 544 q 397 549 344 544 q 486 557 450 553 q 532 561 522 561 q 549 555 543 561 q 554 538 554 549 q 526 494 554 517 q 458 457 499 472 q 378 440 417 442 l 200 438 m 569 1050 l 389 1239 q 374 1249 383 1246 q 353 1251 364 1251 q 319 1240 336 1251 q 290 1209 301 1228 q 278 1167 278 1190 q 283 1149 278 1156 q 301 1136 288 1143 l 514 1015 q 531 1010 522 1011 q 544 1010 539 1010 q 569 1016 557 1010 q 581 1032 581 1022 q 577 1040 581 1036 q 569 1050 574 1044 z "},"Ȇ":{"ha":683,"x_min":78,"x_max":689,"o":"m 129 -17 q 91 14 104 -17 q 78 82 78 44 q 90 258 78 136 l 160 944 l 374 944 q 530 948 472 944 q 617 955 588 951 q 661 958 647 958 q 683 953 676 958 q 689 928 689 949 q 679 874 689 903 q 653 824 669 844 q 617 803 638 803 q 571 807 603 803 q 499 817 539 811 l 318 840 l 256 221 q 253 163 253 192 q 257 104 253 133 l 554 163 q 597 172 579 168 q 619 175 614 175 q 636 156 636 175 q 624 85 636 121 q 592 24 613 49 q 540 0 571 0 l 499 0 q 254 -8 343 0 q 129 -17 165 -17 m 200 438 l 218 544 l 285 544 q 397 549 344 544 q 486 557 450 553 q 532 561 522 561 q 549 555 543 561 q 554 538 554 549 q 526 494 554 517 q 458 457 499 472 q 378 440 417 442 l 200 438 m 451 1240 q 597 1190 551 1240 q 643 1065 643 1139 q 633 1033 643 1043 q 608 1025 624 1024 l 546 1032 q 528 1040 533 1033 q 524 1056 524 1046 q 508 1141 524 1110 q 447 1172 492 1172 q 385 1142 404 1172 q 356 1065 367 1113 q 340 1032 350 1039 q 311 1026 331 1025 l 256 1032 q 239 1038 246 1033 q 232 1054 232 1042 q 256 1135 232 1092 q 328 1209 279 1178 q 451 1240 378 1240 z "},"Ē":{"ha":683,"x_min":78,"x_max":689,"o":"m 129 -17 q 91 14 104 -17 q 78 82 78 44 q 90 258 78 136 l 160 944 l 374 944 q 530 948 472 944 q 617 955 588 951 q 661 958 647 958 q 683 953 676 958 q 689 928 689 949 q 679 874 689 903 q 653 824 669 844 q 617 803 638 803 q 571 807 603 803 q 499 817 539 811 l 318 840 l 256 221 q 253 163 253 192 q 257 104 253 133 l 554 163 q 597 172 579 168 q 619 175 614 175 q 636 156 636 175 q 624 85 636 121 q 592 24 613 49 q 540 0 571 0 l 499 0 q 254 -8 343 0 q 129 -17 165 -17 m 200 438 l 218 544 l 285 544 q 397 549 344 544 q 486 557 450 553 q 532 561 522 561 q 549 555 543 561 q 554 538 554 549 q 526 494 554 517 q 458 457 499 472 q 378 440 417 442 l 200 438 m 236 1147 q 257 1168 239 1168 l 600 1168 q 621 1147 624 1168 l 615 1106 q 594 1085 613 1085 l 251 1085 q 231 1106 228 1085 l 236 1147 z "},"Ę":{"ha":683,"x_min":78,"x_max":689,"o":"m 129 -17 q 91 14 104 -17 q 78 82 78 44 q 90 258 78 136 l 160 944 l 374 944 q 530 948 472 944 q 617 955 588 951 q 661 958 647 958 q 683 953 676 958 q 689 928 689 949 q 679 874 689 903 q 653 824 669 844 q 617 803 638 803 q 571 807 603 803 q 499 817 539 811 l 318 840 l 256 221 q 253 163 253 192 q 257 104 253 133 l 554 163 q 597 172 579 168 q 619 175 614 175 q 636 156 636 175 q 624 85 636 121 q 592 24 613 49 q 540 0 571 0 l 499 0 q 254 -8 343 0 q 129 -17 165 -17 m 200 438 l 218 544 l 285 544 q 397 549 344 544 q 486 557 450 553 q 532 561 522 561 q 549 555 543 561 q 554 538 554 549 q 526 494 554 517 q 458 457 499 472 q 378 440 417 442 l 200 438 m 276 -156 q 315 -64 276 -104 q 414 0 354 -24 q 533 24 474 24 q 554 20 546 24 q 563 11 563 17 q 558 4 563 8 q 539 -6 554 0 q 457 -58 483 -24 q 431 -119 431 -92 q 449 -165 431 -150 q 494 -183 467 -179 q 551 -187 521 -187 q 567 -191 560 -187 q 574 -201 574 -194 q 557 -240 574 -215 q 508 -285 540 -267 q 440 -303 476 -303 q 362 -287 400 -303 q 300 -238 324 -271 q 276 -156 276 -206 z "},"Ə":{"ha":910,"x_min":38,"x_max":881,"o":"m 335 -22 q 113 41 188 -22 q 38 217 38 104 q 92 378 38 304 q 256 496 147 451 q 522 540 364 540 l 715 540 l 715 443 l 546 440 q 351 413 422 439 q 251 344 281 388 q 222 246 222 301 q 272 130 222 171 q 400 89 322 89 q 548 143 481 89 q 656 296 615 197 q 696 526 696 394 q 664 710 696 638 q 578 819 632 783 q 458 856 524 856 q 364 835 406 856 q 291 789 322 815 q 235 742 260 763 q 190 722 210 722 q 165 729 176 722 q 154 758 154 736 q 201 860 156 813 q 323 938 246 908 q 493 967 400 967 q 698 920 611 967 q 833 781 785 874 q 881 551 881 689 q 842 322 881 426 q 732 140 804 217 q 559 20 660 63 q 335 -22 458 -22 z "},"F":{"ha":633,"x_min":72,"x_max":668,"o":"m 118 -17 q 90 -2 100 -17 q 76 35 81 13 q 72 82 72 57 q 76 153 72 110 q 86 258 81 197 l 160 944 l 367 944 q 519 948 465 944 q 600 955 574 951 q 640 958 626 958 q 662 953 656 958 q 668 928 668 949 q 658 874 668 903 q 633 824 649 844 q 596 803 617 803 q 574 803 588 803 q 544 806 561 804 q 507 811 526 808 l 311 840 l 229 -17 l 118 -17 m 193 410 l 211 517 l 278 517 q 394 521 338 517 q 490 529 450 525 q 539 533 529 533 q 556 527 550 533 q 561 510 561 521 q 533 467 561 489 q 460 429 504 444 q 371 413 417 414 l 193 410 z "},"G":{"ha":924,"x_min":60,"x_max":876,"o":"m 503 -22 q 265 24 364 -22 q 113 164 165 71 q 60 393 60 257 q 99 623 60 518 q 210 805 138 728 q 384 924 282 882 q 613 967 486 967 q 769 942 714 967 q 824 856 824 918 q 815 799 824 822 q 786 775 806 775 q 757 783 772 775 q 722 801 742 792 q 650 837 689 818 q 554 856 611 856 q 395 801 465 856 q 285 649 325 747 q 244 418 244 551 q 291 224 244 294 q 432 124 338 153 q 668 94 526 94 l 719 561 l 831 561 q 867 548 858 561 q 876 497 876 535 q 876 481 876 489 q 875 464 876 472 l 832 106 q 816 35 826 65 q 778 0 806 4 q 634 -17 703 -11 q 503 -22 565 -22 z "},"Ğ":{"ha":924,"x_min":60,"x_max":876,"o":"m 503 -22 q 265 24 364 -22 q 113 164 165 71 q 60 393 60 257 q 99 623 60 518 q 210 805 138 728 q 384 924 282 882 q 613 967 486 967 q 769 942 714 967 q 824 856 824 918 q 815 799 824 822 q 786 775 806 775 q 757 783 772 775 q 722 801 742 792 q 650 837 689 818 q 554 856 611 856 q 395 801 465 856 q 285 649 325 747 q 244 418 244 551 q 291 224 244 294 q 432 124 338 153 q 668 94 526 94 l 719 561 l 831 561 q 867 548 858 561 q 876 497 876 535 q 876 481 876 489 q 875 464 876 472 l 832 106 q 816 35 826 65 q 778 0 806 4 q 634 -17 703 -11 q 503 -22 565 -22 m 539 1025 q 393 1076 439 1025 q 347 1200 347 1128 q 357 1233 347 1222 q 382 1240 367 1243 l 444 1233 q 462 1226 457 1232 q 467 1210 467 1221 q 483 1124 467 1156 q 543 1093 500 1093 q 606 1123 586 1093 q 635 1200 625 1153 q 651 1234 642 1226 q 679 1239 660 1242 l 735 1233 q 751 1228 744 1232 q 758 1211 758 1224 q 735 1131 758 1175 q 663 1056 711 1088 q 539 1025 614 1025 z "},"Ǧ":{"ha":924,"x_min":60,"x_max":876,"o":"m 503 -22 q 265 24 364 -22 q 113 164 165 71 q 60 393 60 257 q 99 623 60 518 q 210 805 138 728 q 384 924 282 882 q 613 967 486 967 q 769 942 714 967 q 824 856 824 918 q 815 799 824 822 q 786 775 806 775 q 757 783 772 775 q 722 801 742 792 q 650 837 689 818 q 554 856 611 856 q 395 801 465 856 q 285 649 325 747 q 244 418 244 551 q 291 224 244 294 q 432 124 338 153 q 668 94 526 94 l 719 561 l 831 561 q 867 548 858 561 q 876 497 876 535 q 876 481 876 489 q 875 464 876 472 l 832 106 q 816 35 826 65 q 778 0 806 4 q 634 -17 703 -11 q 503 -22 565 -22 m 764 1211 l 764 1211 q 771 1229 774 1222 q 754 1238 768 1236 l 703 1243 q 685 1242 692 1244 q 672 1233 679 1240 l 554 1113 l 457 1232 q 442 1245 451 1239 q 410 1250 433 1251 l 357 1247 q 342 1239 346 1246 q 343 1221 338 1232 l 447 1063 q 482 1027 465 1036 q 531 1018 499 1018 q 578 1026 563 1018 q 607 1047 594 1035 l 764 1211 z "},"Ĝ":{"ha":924,"x_min":60,"x_max":876,"o":"m 503 -22 q 265 24 364 -22 q 113 164 165 71 q 60 393 60 257 q 99 623 60 518 q 210 805 138 728 q 384 924 282 882 q 613 967 486 967 q 769 942 714 967 q 824 856 824 918 q 815 799 824 822 q 786 775 806 775 q 757 783 772 775 q 722 801 742 792 q 650 837 689 818 q 554 856 611 856 q 395 801 465 856 q 285 649 325 747 q 244 418 244 551 q 291 224 244 294 q 432 124 338 153 q 668 94 526 94 l 719 561 l 831 561 q 867 548 858 561 q 876 497 876 535 q 876 481 876 489 q 875 464 876 472 l 832 106 q 816 35 826 65 q 778 0 806 4 q 634 -17 703 -11 q 503 -22 565 -22 m 331 1057 l 331 1057 q 324 1040 321 1047 q 340 1031 326 1032 l 392 1025 q 410 1026 403 1024 q 422 1035 417 1029 l 540 1156 l 638 1036 q 653 1023 644 1029 q 685 1018 661 1017 l 738 1021 q 753 1030 749 1022 q 751 1047 758 1038 l 647 1206 q 613 1242 629 1233 q 564 1250 596 1250 q 517 1242 533 1250 q 488 1221 500 1233 l 331 1057 z "},"Ģ":{"ha":924,"x_min":60,"x_max":876,"o":"m 503 -22 q 265 24 364 -22 q 113 164 165 71 q 60 393 60 257 q 99 623 60 518 q 210 805 138 728 q 384 924 282 882 q 613 967 486 967 q 769 942 714 967 q 824 856 824 918 q 815 799 824 822 q 786 775 806 775 q 757 783 772 775 q 722 801 742 792 q 650 837 689 818 q 554 856 611 856 q 395 801 465 856 q 285 649 325 747 q 244 418 244 551 q 291 224 244 294 q 432 124 338 153 q 668 94 526 94 l 719 561 l 831 561 q 867 548 858 561 q 876 497 876 535 q 876 481 876 489 q 875 464 876 472 l 832 106 q 816 35 826 65 q 778 0 806 4 q 634 -17 703 -11 q 503 -22 565 -22 m 278 -272 q 286 -260 278 -262 q 313 -254 294 -257 q 384 -231 357 -247 q 417 -167 411 -214 l 421 -201 q 358 -179 382 -201 q 333 -125 333 -157 q 355 -63 333 -83 q 413 -43 376 -43 q 478 -72 454 -43 q 503 -150 503 -101 q 477 -240 503 -204 q 415 -292 451 -275 q 343 -310 378 -310 q 293 -298 308 -310 q 278 -272 278 -286 z "},"Ġ":{"ha":924,"x_min":60,"x_max":876,"o":"m 503 -22 q 265 24 364 -22 q 113 164 165 71 q 60 393 60 257 q 99 623 60 518 q 210 805 138 728 q 384 924 282 882 q 613 967 486 967 q 769 942 714 967 q 824 856 824 918 q 815 799 824 822 q 786 775 806 775 q 757 783 772 775 q 722 801 742 792 q 650 837 689 818 q 554 856 611 856 q 395 801 465 856 q 285 649 325 747 q 244 418 244 551 q 291 224 244 294 q 432 124 338 153 q 668 94 526 94 l 719 561 l 831 561 q 867 548 858 561 q 876 497 876 535 q 876 481 876 489 q 875 464 876 472 l 832 106 q 816 35 826 65 q 778 0 806 4 q 634 -17 703 -11 q 503 -22 565 -22 m 551 1046 q 484 1072 513 1046 q 456 1142 456 1099 q 489 1222 456 1193 q 565 1250 522 1250 q 633 1226 606 1250 q 660 1156 660 1203 q 628 1077 660 1108 q 551 1046 596 1046 z "},"H":{"ha":917,"x_min":76,"x_max":878,"o":"m 213 438 l 213 542 l 728 542 l 728 438 l 213 438 m 131 -11 q 99 6 111 -11 q 82 49 88 22 q 76 101 76 75 q 83 211 76 158 q 96 325 90 264 l 163 965 l 260 965 q 308 938 296 965 q 319 874 319 911 q 317 814 319 840 q 309 750 314 788 q 297 647 304 713 l 228 -11 l 131 -11 m 689 -11 q 658 6 669 -11 q 640 49 646 22 q 635 101 635 75 q 642 211 635 158 q 654 325 649 264 l 721 965 l 818 965 q 866 938 854 965 q 878 874 878 911 q 875 814 878 840 q 867 750 872 788 q 856 647 863 713 l 786 -11 l 689 -11 z "},"Ħ":{"ha":917,"x_min":63,"x_max":947,"o":"m 88 626 q 63 646 63 626 q 74 685 63 665 q 103 719 85 706 q 142 732 121 732 l 922 731 q 943 727 939 731 q 947 713 947 724 q 939 685 947 707 q 916 645 931 664 q 882 626 901 626 l 88 626 m 131 -11 q 99 6 111 -11 q 82 49 88 22 q 76 101 76 75 q 83 211 76 158 q 96 325 90 264 l 163 965 l 260 965 q 308 938 296 965 q 319 874 319 911 q 317 814 319 840 q 309 750 314 788 q 297 647 304 713 l 228 -11 l 131 -11 m 689 -11 q 658 6 669 -11 q 640 49 646 22 q 635 101 635 75 q 642 211 635 158 q 654 325 649 264 l 721 965 l 818 965 q 866 938 854 965 q 878 874 878 911 q 875 814 878 840 q 867 750 872 788 q 856 647 863 713 l 786 -11 l 689 -11 m 213 438 l 213 542 l 728 542 l 728 438 l 213 438 z "},"Ĥ":{"ha":917,"x_min":76,"x_max":878,"o":"m 213 438 l 213 542 l 728 542 l 728 438 l 213 438 m 131 -11 q 99 6 111 -11 q 82 49 88 22 q 76 101 76 75 q 83 211 76 158 q 96 325 90 264 l 163 965 l 260 965 q 308 938 296 965 q 319 874 319 911 q 317 814 319 840 q 309 750 314 788 q 297 647 304 713 l 228 -11 l 131 -11 m 689 -11 q 658 6 669 -11 q 640 49 646 22 q 635 101 635 75 q 642 211 635 158 q 654 325 649 264 l 721 965 l 818 965 q 866 938 854 965 q 878 874 878 911 q 875 814 878 840 q 867 750 872 788 q 856 647 863 713 l 786 -11 l 689 -11 m 296 1057 l 296 1057 q 289 1040 286 1047 q 306 1031 292 1032 l 357 1025 q 375 1026 368 1024 q 388 1035 382 1029 l 506 1156 l 603 1036 q 618 1023 610 1029 q 650 1018 626 1017 l 703 1021 q 719 1030 714 1022 q 717 1047 724 1038 l 613 1206 q 578 1242 594 1233 q 529 1250 561 1250 q 482 1242 499 1250 q 453 1221 465 1233 l 296 1057 z "},"I":{"ha":358,"x_min":76,"x_max":319,"o":"m 131 -11 q 99 6 111 -11 q 82 49 88 22 q 76 101 76 75 q 83 211 76 158 q 96 325 90 264 l 163 965 l 260 965 q 308 938 296 965 q 319 874 319 911 q 317 814 319 840 q 309 750 314 788 q 297 647 304 713 l 228 -11 l 131 -11 z "},"Ĳ":{"ha":725,"x_min":76,"x_max":686,"o":"m 131 -11 q 99 6 111 -11 q 82 49 88 22 q 76 101 76 75 q 83 211 76 158 q 96 325 90 264 l 163 965 l 260 965 q 308 938 296 965 q 319 874 319 911 q 317 814 319 840 q 309 750 314 788 q 297 647 304 713 l 228 -11 l 131 -11 m 318 -236 q 210 -201 246 -236 q 175 -100 175 -167 q 181 -80 175 -86 q 193 -74 188 -74 q 208 -77 200 -74 q 233 -87 215 -81 q 298 -112 267 -101 q 353 -122 329 -122 q 388 -101 374 -122 q 413 -30 403 -81 q 433 108 424 21 l 528 965 l 625 965 q 675 938 664 965 q 686 874 686 911 q 679 797 686 849 q 661 647 672 746 l 611 186 q 570 -13 599 68 q 503 -144 542 -94 q 417 -215 464 -193 q 318 -236 369 -236 z "},"Í":{"ha":358,"x_min":75,"x_max":419,"o":"m 131 -11 q 99 6 111 -11 q 82 49 88 22 q 76 101 76 75 q 83 211 76 158 q 96 325 90 264 l 163 965 l 260 965 q 308 938 296 965 q 319 874 319 911 q 317 814 319 840 q 309 750 314 788 q 297 647 304 713 l 228 -11 l 131 -11 m 86 1050 q 75 1032 75 1042 q 87 1016 75 1022 q 111 1010 99 1010 q 126 1010 118 1010 q 142 1015 133 1011 l 396 1136 q 415 1149 410 1143 q 419 1167 419 1156 q 408 1209 419 1190 q 379 1240 396 1228 q 344 1251 363 1251 q 310 1239 325 1251 l 86 1050 z "},"Ĭ":{"ha":358,"x_min":61,"x_max":472,"o":"m 131 -11 q 99 6 111 -11 q 82 49 88 22 q 76 101 76 75 q 83 211 76 158 q 96 325 90 264 l 163 965 l 260 965 q 308 938 296 965 q 319 874 319 911 q 317 814 319 840 q 309 750 314 788 q 297 647 304 713 l 228 -11 l 131 -11 m 253 1025 q 107 1076 153 1025 q 61 1200 61 1128 q 71 1233 61 1222 q 96 1240 81 1243 l 158 1233 q 176 1226 171 1232 q 181 1210 181 1221 q 197 1124 181 1156 q 257 1093 214 1093 q 319 1123 300 1093 q 349 1200 339 1153 q 365 1234 356 1226 q 393 1239 374 1242 l 449 1233 q 465 1228 458 1232 q 472 1211 472 1224 q 449 1131 472 1175 q 376 1056 425 1088 q 253 1025 328 1025 z "},"Î":{"ha":358,"x_min":35,"x_max":472,"o":"m 131 -11 q 99 6 111 -11 q 82 49 88 22 q 76 101 76 75 q 83 211 76 158 q 96 325 90 264 l 163 965 l 260 965 q 308 938 296 965 q 319 874 319 911 q 317 814 319 840 q 309 750 314 788 q 297 647 304 713 l 228 -11 l 131 -11 m 44 1057 l 44 1057 q 38 1040 35 1047 q 54 1031 40 1032 l 106 1025 q 124 1026 117 1024 q 136 1035 131 1029 l 254 1156 l 351 1036 q 367 1023 358 1029 q 399 1018 375 1017 l 451 1021 q 467 1030 463 1022 q 465 1047 472 1038 l 361 1206 q 326 1242 343 1233 q 278 1250 310 1250 q 231 1242 247 1250 q 201 1221 214 1233 l 44 1057 z "},"Ȉ":{"ha":358,"x_min":18,"x_max":504,"o":"m 131 -11 q 99 6 111 -11 q 82 49 88 22 q 76 101 76 75 q 83 211 76 158 q 96 325 90 264 l 163 965 l 260 965 q 308 938 296 965 q 319 874 319 911 q 317 814 319 840 q 309 750 314 788 q 297 647 304 713 l 228 -11 l 131 -11 m 493 1054 l 368 1240 q 353 1250 363 1247 q 333 1253 344 1253 q 299 1241 317 1253 q 270 1210 282 1229 q 258 1168 258 1192 q 264 1152 258 1157 q 282 1138 269 1147 l 438 1017 q 453 1011 444 1011 q 468 1011 463 1011 q 492 1017 481 1011 q 504 1033 504 1024 q 501 1043 504 1038 q 493 1054 497 1049 m 308 1050 l 128 1239 q 93 1251 117 1251 q 59 1240 76 1251 q 30 1209 42 1228 q 18 1167 18 1190 q 23 1149 18 1156 q 42 1136 28 1143 l 253 1015 q 269 1010 261 1011 q 283 1010 278 1010 q 308 1016 296 1010 q 319 1032 319 1022 q 316 1040 319 1036 q 308 1050 313 1044 z "},"Ï":{"ha":358,"x_min":65,"x_max":458,"o":"m 131 -11 q 99 6 111 -11 q 82 49 88 22 q 76 101 76 75 q 83 211 76 158 q 96 325 90 264 l 163 965 l 260 965 q 308 938 296 965 q 319 874 319 911 q 317 814 319 840 q 309 750 314 788 q 297 647 304 713 l 228 -11 l 131 -11 m 368 1061 q 313 1083 336 1061 q 289 1140 289 1104 q 317 1206 289 1182 q 381 1231 344 1231 q 435 1210 413 1231 q 458 1151 458 1190 q 432 1087 458 1113 q 368 1061 406 1061 m 144 1061 q 89 1083 113 1061 q 65 1140 65 1104 q 93 1206 65 1182 q 157 1231 121 1231 q 212 1210 189 1231 q 235 1151 235 1190 q 208 1087 235 1113 q 144 1061 182 1061 z "},"İ":{"ha":358,"x_min":76,"x_max":374,"o":"m 131 -11 q 99 6 111 -11 q 82 49 88 22 q 76 101 76 75 q 83 211 76 158 q 96 325 90 264 l 163 965 l 260 965 q 308 938 296 965 q 319 874 319 911 q 317 814 319 840 q 309 750 314 788 q 297 647 304 713 l 228 -11 l 131 -11 m 265 1046 q 198 1072 226 1046 q 169 1142 169 1099 q 203 1222 169 1193 q 279 1250 236 1250 q 347 1226 319 1250 q 374 1156 374 1203 q 342 1077 374 1108 q 265 1046 310 1046 z "},"Ì":{"ha":358,"x_min":76,"x_max":418,"o":"m 131 -11 q 99 6 111 -11 q 82 49 88 22 q 76 101 76 75 q 83 211 76 158 q 96 325 90 264 l 163 965 l 260 965 q 308 938 296 965 q 319 874 319 911 q 317 814 319 840 q 309 750 314 788 q 297 647 304 713 l 228 -11 l 131 -11 m 407 1050 l 226 1239 q 211 1249 221 1246 q 190 1251 201 1251 q 156 1240 174 1251 q 127 1209 139 1228 q 115 1167 115 1190 q 120 1149 115 1156 q 139 1136 125 1143 l 351 1015 q 368 1010 360 1011 q 382 1010 376 1010 q 406 1016 394 1010 q 418 1032 418 1022 q 415 1040 418 1036 q 407 1050 411 1044 z "},"Ȋ":{"ha":358,"x_min":69,"x_max":481,"o":"m 131 -11 q 99 6 111 -11 q 82 49 88 22 q 76 101 76 75 q 83 211 76 158 q 96 325 90 264 l 163 965 l 260 965 q 308 938 296 965 q 319 874 319 911 q 317 814 319 840 q 309 750 314 788 q 297 647 304 713 l 228 -11 l 131 -11 m 289 1240 q 435 1190 389 1240 q 481 1065 481 1139 q 471 1033 481 1043 q 446 1025 461 1024 l 383 1032 q 366 1040 371 1033 q 361 1056 361 1046 q 345 1141 361 1110 q 285 1172 329 1172 q 223 1142 242 1172 q 193 1065 204 1113 q 178 1032 188 1039 q 149 1026 168 1025 l 93 1032 q 76 1038 83 1033 q 69 1054 69 1042 q 93 1135 69 1092 q 166 1209 117 1178 q 289 1240 215 1240 z "},"Ī":{"ha":358,"x_min":65,"x_max":461,"o":"m 131 -11 q 99 6 111 -11 q 82 49 88 22 q 76 101 76 75 q 83 211 76 158 q 96 325 90 264 l 163 965 l 260 965 q 308 938 296 965 q 319 874 319 911 q 317 814 319 840 q 309 750 314 788 q 297 647 304 713 l 228 -11 l 131 -11 m 74 1147 q 94 1168 76 1168 l 438 1168 q 458 1147 461 1168 l 453 1106 q 432 1085 450 1085 l 89 1085 q 68 1106 65 1085 l 74 1147 z "},"Į":{"ha":358,"x_min":-33,"x_max":319,"o":"m -33 -142 q 6 -50 -33 -90 q 104 14 44 -10 q 224 38 164 38 q 244 34 236 38 q 253 25 253 31 q 249 18 253 22 q 229 8 244 14 q 147 -44 174 -10 q 121 -106 121 -78 q 139 -151 121 -136 q 185 -169 157 -165 q 242 -174 213 -174 q 257 -177 250 -174 q 264 -187 264 -181 q 247 -226 264 -201 q 199 -271 231 -253 q 131 -289 167 -289 q 52 -273 90 -289 q -10 -224 14 -257 q -33 -142 -33 -192 m 131 -11 q 99 6 111 -11 q 82 49 88 22 q 76 101 76 75 q 83 211 76 158 q 96 325 90 264 l 163 965 l 260 965 q 308 938 296 965 q 319 874 319 911 q 317 814 319 840 q 309 750 314 788 q 297 647 304 713 l 228 -11 l 131 -11 z "},"J":{"ha":367,"x_min":-183,"x_max":328,"o":"m -40 -236 q -148 -201 -112 -236 q -183 -100 -183 -167 q -177 -80 -183 -86 q -165 -74 -171 -74 q -151 -77 -158 -74 q -125 -87 -143 -81 q -60 -112 -92 -101 q -6 -122 -29 -122 q 30 -101 15 -122 q 55 -30 44 -81 q 75 108 65 21 l 169 965 l 267 965 q 317 938 306 965 q 328 874 328 911 q 321 797 328 849 q 303 647 314 746 l 253 186 q 212 -13 240 68 q 144 -144 183 -94 q 58 -215 106 -193 q -40 -236 11 -236 z "},"Ĵ":{"ha":367,"x_min":-183,"x_max":476,"o":"m -40 -236 q -148 -201 -112 -236 q -183 -100 -183 -167 q -177 -80 -183 -86 q -165 -74 -171 -74 q -151 -77 -158 -74 q -125 -87 -143 -81 q -60 -112 -92 -101 q -6 -122 -29 -122 q 30 -101 15 -122 q 55 -30 44 -81 q 75 108 65 21 l 169 965 l 267 965 q 317 938 306 965 q 328 874 328 911 q 321 797 328 849 q 303 647 314 746 l 253 186 q 212 -13 240 68 q 144 -144 183 -94 q 58 -215 106 -193 q -40 -236 11 -236 m 49 1057 l 49 1057 q 42 1040 39 1047 q 58 1031 44 1032 l 110 1025 q 128 1026 121 1024 q 140 1035 135 1029 l 258 1156 l 356 1036 q 371 1023 363 1029 q 403 1018 379 1017 l 456 1021 q 472 1030 467 1022 q 469 1047 476 1038 l 365 1206 q 331 1242 347 1233 q 282 1250 314 1250 q 235 1242 251 1250 q 206 1221 218 1233 l 49 1057 z "},"K":{"ha":857,"x_min":76,"x_max":869,"o":"m 656 -10 q 591 26 628 -10 q 513 121 554 61 q 430 254 472 181 q 347 404 388 328 q 333 436 340 419 q 325 472 325 453 q 337 529 325 496 q 385 614 349 563 q 496 743 421 665 l 589 839 q 697 932 647 900 q 794 964 746 964 q 853 944 838 964 q 869 889 869 925 q 861 828 869 856 q 840 786 853 801 q 814 771 828 771 q 782 776 800 771 q 739 781 764 781 q 701 772 722 781 q 651 738 681 763 q 578 661 622 713 l 426 488 l 451 581 q 552 371 494 464 q 661 217 610 278 q 736 135 713 156 q 787 98 768 108 q 814 83 806 88 q 822 68 822 79 q 805 42 822 56 q 761 16 788 28 q 706 -3 735 4 q 656 -10 678 -10 m 131 -11 q 99 6 111 -11 q 82 49 88 22 q 76 101 76 75 q 83 211 76 158 q 96 325 90 264 l 163 965 l 260 965 q 308 938 296 965 q 319 874 319 911 q 317 814 319 840 q 309 750 314 788 q 297 647 304 713 l 228 -11 l 131 -11 z "},"Ķ":{"ha":857,"x_min":76,"x_max":869,"o":"m 656 -10 q 591 26 628 -10 q 513 121 554 61 q 430 254 472 181 q 347 404 388 328 q 333 436 340 419 q 325 472 325 453 q 337 529 325 496 q 385 614 349 563 q 496 743 421 665 l 589 839 q 697 932 647 900 q 794 964 746 964 q 853 944 838 964 q 869 889 869 925 q 861 828 869 856 q 840 786 853 801 q 814 771 828 771 q 782 776 800 771 q 739 781 764 781 q 701 772 722 781 q 651 738 681 763 q 578 661 622 713 l 426 488 l 451 581 q 552 371 494 464 q 661 217 610 278 q 736 135 713 156 q 787 98 768 108 q 814 83 806 88 q 822 68 822 79 q 805 42 822 56 q 761 16 788 28 q 706 -3 735 4 q 656 -10 678 -10 m 131 -11 q 99 6 111 -11 q 82 49 88 22 q 76 101 76 75 q 83 211 76 158 q 96 325 90 264 l 163 965 l 260 965 q 308 938 296 965 q 319 874 319 911 q 317 814 319 840 q 309 750 314 788 q 297 647 304 713 l 228 -11 l 131 -11 m 242 -272 q 250 -260 242 -262 q 276 -254 258 -257 q 348 -231 321 -247 q 381 -167 375 -214 l 385 -201 q 322 -179 346 -201 q 297 -125 297 -157 q 319 -63 297 -83 q 376 -43 340 -43 q 442 -72 418 -43 q 467 -150 467 -101 q 441 -240 467 -204 q 378 -292 415 -275 q 307 -310 342 -310 q 257 -298 272 -310 q 242 -272 242 -286 z "},"L":{"ha":625,"x_min":78,"x_max":606,"o":"m 129 -17 q 91 14 104 -17 q 78 82 78 44 q 90 258 78 136 l 163 965 l 274 965 q 322 930 318 965 q 317 810 326 894 l 253 221 q 250 163 250 192 q 254 104 250 133 l 553 174 q 576 178 568 176 q 589 181 585 181 q 606 161 606 181 q 594 89 606 126 q 561 26 582 51 q 510 0 540 0 l 468 0 q 298 -4 364 0 q 193 -12 232 -8 q 129 -17 154 -17 z "},"Ǉ":{"ha":992,"x_min":78,"x_max":953,"o":"m 129 -17 q 91 14 104 -17 q 78 82 78 44 q 90 258 78 136 l 163 965 l 274 965 q 322 930 318 965 q 317 810 326 894 l 253 221 q 250 163 250 192 q 254 104 250 133 l 553 174 q 576 178 568 176 q 589 181 585 181 q 606 161 606 181 q 594 89 606 126 q 561 26 582 51 q 510 0 540 0 l 468 0 q 298 -4 364 0 q 193 -12 232 -8 q 129 -17 154 -17 m 585 -236 q 477 -201 513 -236 q 442 -100 442 -167 q 448 -80 442 -86 q 460 -74 454 -74 q 474 -77 467 -74 q 500 -87 482 -81 q 565 -112 533 -101 q 619 -122 596 -122 q 655 -101 640 -122 q 680 -30 669 -81 q 700 108 690 21 l 794 965 l 892 965 q 942 938 931 965 q 953 874 953 911 q 946 797 953 849 q 928 647 939 746 l 878 186 q 837 -13 865 68 q 769 -144 808 -94 q 683 -215 731 -193 q 585 -236 636 -236 z "},"Ĺ":{"ha":625,"x_min":78,"x_max":606,"o":"m 129 -17 q 91 14 104 -17 q 78 82 78 44 q 90 258 78 136 l 163 965 l 274 965 q 322 930 318 965 q 317 810 326 894 l 253 221 q 250 163 250 192 q 254 104 250 133 l 553 174 q 576 178 568 176 q 589 181 585 181 q 606 161 606 181 q 594 89 606 126 q 561 26 582 51 q 510 0 540 0 l 468 0 q 298 -4 364 0 q 193 -12 232 -8 q 129 -17 154 -17 m 218 1050 q 207 1032 207 1042 q 219 1016 207 1022 q 243 1010 231 1010 q 258 1010 250 1010 q 274 1015 265 1011 l 528 1136 q 547 1149 542 1143 q 551 1167 551 1156 q 540 1209 551 1190 q 511 1240 528 1228 q 476 1251 494 1251 q 442 1239 457 1251 l 218 1050 z "},"Ľ":{"ha":625,"x_min":78,"x_max":613,"o":"m 129 -17 q 91 14 104 -17 q 78 82 78 44 q 90 258 78 136 l 163 965 l 274 965 q 322 930 318 965 q 317 810 326 894 l 253 221 q 250 163 250 192 q 254 104 250 133 l 553 174 q 576 178 568 176 q 589 181 585 181 q 606 161 606 181 q 594 89 606 126 q 561 26 582 51 q 510 0 540 0 l 468 0 q 298 -4 364 0 q 193 -12 232 -8 q 129 -17 154 -17 m 454 938 q 462 953 456 949 q 478 957 468 957 l 536 957 q 581 951 561 957 q 606 926 600 944 q 594 874 613 908 l 485 654 q 469 628 476 636 q 449 619 463 619 q 431 630 439 619 q 424 650 422 640 l 454 938 z "},"Ļ":{"ha":625,"x_min":78,"x_max":606,"o":"m 129 -17 q 91 14 104 -17 q 78 82 78 44 q 90 258 78 136 l 163 965 l 274 965 q 322 930 318 965 q 317 810 326 894 l 253 221 q 250 163 250 192 q 254 104 250 133 l 553 174 q 576 178 568 176 q 589 181 585 181 q 606 161 606 181 q 594 89 606 126 q 561 26 582 51 q 510 0 540 0 l 468 0 q 298 -4 364 0 q 193 -12 232 -8 q 129 -17 154 -17 m 124 -272 q 132 -260 124 -262 q 158 -254 140 -257 q 230 -231 203 -247 q 263 -167 257 -214 l 267 -201 q 203 -179 228 -201 q 179 -125 179 -157 q 201 -63 179 -83 q 258 -43 222 -43 q 324 -72 300 -43 q 349 -150 349 -101 q 323 -240 349 -204 q 260 -292 297 -275 q 189 -310 224 -310 q 139 -298 154 -310 q 124 -272 124 -286 z "},"Ŀ":{"ha":625,"x_min":78,"x_max":631,"o":"m 129 -17 q 91 14 104 -17 q 78 82 78 44 q 90 258 78 136 l 163 965 l 274 965 q 322 930 318 965 q 317 810 326 894 l 253 221 q 250 163 250 192 q 254 104 250 133 l 553 174 q 576 178 568 176 q 589 181 585 181 q 606 161 606 181 q 594 89 606 126 q 561 26 582 51 q 510 0 540 0 l 468 0 q 298 -4 364 0 q 193 -12 232 -8 q 129 -17 154 -17 m 522 438 q 455 464 483 438 q 426 533 426 490 q 460 613 426 585 q 536 642 493 642 q 603 618 576 642 q 631 547 631 594 q 599 469 631 500 q 522 438 567 438 z "},"ǈ":{"ha":950,"x_min":78,"x_max":965,"o":"m 129 -17 q 91 14 104 -17 q 78 82 78 44 q 90 258 78 136 l 163 965 l 274 965 q 322 930 318 965 q 317 810 326 894 l 253 221 q 250 163 250 192 q 254 104 250 133 l 553 174 q 576 178 568 176 q 589 181 585 181 q 606 161 606 181 q 594 89 606 126 q 561 26 582 51 q 510 0 540 0 l 468 0 q 298 -4 364 0 q 193 -12 232 -8 q 129 -17 154 -17 m 561 -307 q 499 -289 526 -307 q 457 -237 472 -271 q 442 -160 442 -204 q 448 -140 442 -146 q 460 -133 454 -133 q 475 -140 467 -133 q 501 -157 483 -146 q 563 -188 529 -174 q 621 -203 597 -203 q 649 -188 636 -203 q 672 -137 661 -174 q 692 -37 682 -101 q 711 128 701 28 l 765 682 l 865 682 q 894 664 882 682 q 913 623 907 646 q 919 582 919 600 q 910 492 919 550 q 888 354 900 435 q 865 169 875 274 l 850 -1 q 800 -176 840 -108 q 698 -276 760 -244 q 561 -307 636 -307 m 857 761 q 790 788 818 761 q 761 857 761 814 q 794 937 761 908 q 871 965 828 965 q 938 942 911 965 q 965 871 965 918 q 933 792 965 824 q 857 761 901 761 z "},"Ł":{"ha":625,"x_min":-17,"x_max":606,"o":"m 24 222 q 7 231 17 222 q -10 253 -3 240 q -17 275 -17 265 q -6 313 -17 292 q 28 354 4 335 l 496 733 q 514 742 507 742 q 530 732 521 742 q 546 709 539 722 q 553 685 553 696 q 544 647 553 668 q 507 604 535 626 l 44 232 q 24 222 32 222 m 129 -17 q 91 14 104 -17 q 78 82 78 44 q 90 258 78 136 l 163 965 l 274 965 q 322 930 318 965 q 317 810 326 894 l 253 221 q 250 163 250 192 q 254 104 250 133 l 553 174 q 576 178 568 176 q 589 181 585 181 q 606 161 606 181 q 594 89 606 126 q 561 26 582 51 q 510 0 540 0 l 468 0 q 298 -4 364 0 q 193 -12 232 -8 q 129 -17 154 -17 z "},"M":{"ha":1113,"x_min":69,"x_max":1081,"o":"m 106 -17 q 76 4 83 -17 q 69 54 69 25 q 75 158 69 103 q 86 265 81 213 l 163 965 l 278 967 q 356 959 335 968 q 385 922 378 950 l 590 171 l 518 174 l 839 872 q 906 938 857 911 q 1024 965 954 965 q 1066 952 1051 965 q 1076 901 1081 939 l 982 -11 l 871 -11 q 843 11 853 -11 q 833 74 833 33 q 837 197 833 131 q 847 325 840 264 l 899 764 l 907 758 l 725 367 q 635 177 669 247 q 578 72 600 107 q 542 27 557 38 q 510 17 526 17 q 480 24 492 17 q 461 57 468 32 l 254 765 l 267 767 l 228 407 q 217 232 215 297 q 226 131 218 167 q 240 76 233 96 q 247 40 247 57 q 231 15 247 25 q 189 -3 214 4 q 141 -13 164 -10 q 106 -17 118 -17 z "},"N":{"ha":917,"x_min":69,"x_max":903,"o":"m 106 -17 q 76 4 83 -17 q 69 54 69 25 q 75 158 69 103 q 86 265 81 213 l 163 965 l 264 967 q 303 960 289 967 q 336 922 318 954 q 481 691 403 806 q 629 472 558 576 q 746 282 700 368 l 710 239 l 740 538 q 751 710 751 644 q 744 812 750 775 q 731 869 738 849 q 725 908 725 890 q 739 933 725 922 q 774 950 753 943 q 815 960 794 957 q 849 964 835 964 q 889 936 875 964 q 903 881 903 908 q 898 826 903 857 q 886 728 893 796 l 867 544 q 848 331 853 414 q 843 200 843 249 q 845 121 843 151 q 847 64 847 90 q 832 34 847 49 q 793 8 817 19 q 747 -9 769 -3 q 710 -15 725 -15 q 688 -3 697 -15 q 679 32 678 10 q 669 78 681 50 q 642 138 657 107 q 613 190 626 168 q 502 364 568 271 q 367 558 436 457 q 242 764 297 660 l 261 767 l 224 407 q 213 249 214 311 q 215 151 211 188 q 225 96 219 115 q 235 65 231 76 q 240 39 240 53 q 224 13 240 24 q 185 -4 208 3 q 140 -14 163 -11 q 106 -17 118 -17 z "},"Ǌ":{"ha":1283,"x_min":69,"x_max":1244,"o":"m 106 -17 q 76 4 83 -17 q 69 54 69 25 q 75 158 69 103 q 86 265 81 213 l 163 965 l 264 967 q 303 960 289 967 q 336 922 318 954 q 481 691 403 806 q 629 472 558 576 q 746 282 700 368 l 710 239 l 740 538 q 751 710 751 644 q 744 812 750 775 q 731 869 738 849 q 725 908 725 890 q 739 933 725 922 q 774 950 753 943 q 815 960 794 957 q 849 964 835 964 q 889 936 875 964 q 903 881 903 908 q 898 826 903 857 q 886 728 893 796 l 867 544 q 848 331 853 414 q 843 200 843 249 q 845 121 843 151 q 847 64 847 90 q 832 34 847 49 q 793 8 817 19 q 747 -9 769 -3 q 710 -15 725 -15 q 688 -3 697 -15 q 679 32 678 10 q 669 78 681 50 q 642 138 657 107 q 613 190 626 168 q 502 364 568 271 q 367 558 436 457 q 242 764 297 660 l 261 767 l 224 407 q 213 249 214 311 q 215 151 211 188 q 225 96 219 115 q 235 65 231 76 q 240 39 240 53 q 224 13 240 24 q 185 -4 208 3 q 140 -14 163 -11 q 106 -17 118 -17 m 876 -236 q 769 -201 804 -236 q 733 -100 733 -167 q 740 -80 733 -86 q 751 -74 746 -74 q 766 -77 758 -74 q 792 -87 774 -81 q 856 -112 825 -101 q 911 -122 888 -122 q 947 -101 932 -122 q 972 -30 961 -81 q 992 108 982 21 l 1086 965 l 1183 965 q 1233 938 1222 965 q 1244 874 1244 911 q 1238 797 1244 849 q 1219 647 1231 746 l 1169 186 q 1128 -13 1157 68 q 1061 -144 1100 -94 q 975 -215 1022 -193 q 876 -236 928 -236 z "},"Ń":{"ha":917,"x_min":69,"x_max":903,"o":"m 106 -17 q 76 4 83 -17 q 69 54 69 25 q 75 158 69 103 q 86 265 81 213 l 163 965 l 264 967 q 303 960 289 967 q 336 922 318 954 q 481 691 403 806 q 629 472 558 576 q 746 282 700 368 l 710 239 l 740 538 q 751 710 751 644 q 744 812 750 775 q 731 869 738 849 q 725 908 725 890 q 739 933 725 922 q 774 950 753 943 q 815 960 794 957 q 849 964 835 964 q 889 936 875 964 q 903 881 903 908 q 898 826 903 857 q 886 728 893 796 l 867 544 q 848 331 853 414 q 843 200 843 249 q 845 121 843 151 q 847 64 847 90 q 832 34 847 49 q 793 8 817 19 q 747 -9 769 -3 q 710 -15 725 -15 q 688 -3 697 -15 q 679 32 678 10 q 669 78 681 50 q 642 138 657 107 q 613 190 626 168 q 502 364 568 271 q 367 558 436 457 q 242 764 297 660 l 261 767 l 224 407 q 213 249 214 311 q 215 151 211 188 q 225 96 219 115 q 235 65 231 76 q 240 39 240 53 q 224 13 240 24 q 185 -4 208 3 q 140 -14 163 -11 q 106 -17 118 -17 m 364 1050 q 353 1032 353 1042 q 365 1016 353 1022 q 389 1010 376 1010 q 403 1010 396 1010 q 419 1015 411 1011 l 674 1136 q 692 1149 688 1143 q 697 1167 697 1156 q 685 1209 697 1190 q 657 1240 674 1228 q 622 1251 640 1251 q 588 1239 603 1251 l 364 1050 z "},"Ň":{"ha":917,"x_min":69,"x_max":903,"o":"m 106 -17 q 76 4 83 -17 q 69 54 69 25 q 75 158 69 103 q 86 265 81 213 l 163 965 l 264 967 q 303 960 289 967 q 336 922 318 954 q 481 691 403 806 q 629 472 558 576 q 746 282 700 368 l 710 239 l 740 538 q 751 710 751 644 q 744 812 750 775 q 731 869 738 849 q 725 908 725 890 q 739 933 725 922 q 774 950 753 943 q 815 960 794 957 q 849 964 835 964 q 889 936 875 964 q 903 881 903 908 q 898 826 903 857 q 886 728 893 796 l 867 544 q 848 331 853 414 q 843 200 843 249 q 845 121 843 151 q 847 64 847 90 q 832 34 847 49 q 793 8 817 19 q 747 -9 769 -3 q 710 -15 725 -15 q 688 -3 697 -15 q 679 32 678 10 q 669 78 681 50 q 642 138 657 107 q 613 190 626 168 q 502 364 568 271 q 367 558 436 457 q 242 764 297 660 l 261 767 l 224 407 q 213 249 214 311 q 215 151 211 188 q 225 96 219 115 q 235 65 231 76 q 240 39 240 53 q 224 13 240 24 q 185 -4 208 3 q 140 -14 163 -11 q 106 -17 118 -17 m 756 1211 l 756 1211 q 763 1229 765 1222 q 746 1238 760 1236 l 694 1243 q 677 1242 683 1244 q 664 1233 671 1240 l 546 1113 l 449 1232 q 434 1245 443 1239 q 401 1250 425 1251 l 349 1247 q 333 1239 338 1246 q 335 1221 329 1232 l 439 1063 q 474 1027 457 1036 q 522 1018 490 1018 q 570 1026 554 1018 q 599 1047 586 1035 l 756 1211 z "},"Ņ":{"ha":917,"x_min":69,"x_max":903,"o":"m 106 -17 q 76 4 83 -17 q 69 54 69 25 q 75 158 69 103 q 86 265 81 213 l 163 965 l 264 967 q 303 960 289 967 q 336 922 318 954 q 481 691 403 806 q 629 472 558 576 q 746 282 700 368 l 710 239 l 740 538 q 751 710 751 644 q 744 812 750 775 q 731 869 738 849 q 725 908 725 890 q 739 933 725 922 q 774 950 753 943 q 815 960 794 957 q 849 964 835 964 q 889 936 875 964 q 903 881 903 908 q 898 826 903 857 q 886 728 893 796 l 867 544 q 848 331 853 414 q 843 200 843 249 q 845 121 843 151 q 847 64 847 90 q 832 34 847 49 q 793 8 817 19 q 747 -9 769 -3 q 710 -15 725 -15 q 688 -3 697 -15 q 679 32 678 10 q 669 78 681 50 q 642 138 657 107 q 613 190 626 168 q 502 364 568 271 q 367 558 436 457 q 242 764 297 660 l 261 767 l 224 407 q 213 249 214 311 q 215 151 211 188 q 225 96 219 115 q 235 65 231 76 q 240 39 240 53 q 224 13 240 24 q 185 -4 208 3 q 140 -14 163 -11 q 106 -17 118 -17 m 269 -272 q 278 -260 269 -262 q 304 -254 286 -257 q 376 -231 349 -247 q 408 -167 403 -214 l 413 -201 q 349 -179 374 -201 q 325 -125 325 -157 q 347 -63 325 -83 q 404 -43 368 -43 q 470 -72 446 -43 q 494 -150 494 -101 q 469 -240 494 -204 q 406 -292 443 -275 q 335 -310 369 -310 q 285 -298 300 -310 q 269 -272 269 -286 z "},"Ɲ":{"ha":911,"x_min":-183,"x_max":896,"o":"m -40 -236 q -148 -201 -112 -236 q -183 -100 -183 -167 q -177 -80 -183 -86 q -165 -74 -171 -74 q -151 -77 -158 -74 q -125 -87 -143 -81 q -60 -112 -92 -101 q -6 -122 -29 -122 q 26 -104 14 -122 q 47 -52 39 -86 q 62 30 56 -18 q 74 138 68 78 q 86 265 79 197 l 160 965 l 261 967 q 301 960 286 967 q 333 922 315 954 q 465 712 394 817 q 601 510 535 607 q 717 329 668 413 l 738 538 q 747 694 747 635 q 740 789 746 754 q 728 844 733 824 q 722 882 722 864 q 737 910 722 896 q 773 937 751 925 q 816 956 794 949 q 851 964 838 964 q 887 944 878 964 q 896 897 896 925 q 892 835 896 874 q 881 728 888 796 l 861 544 q 842 331 847 414 q 838 200 838 249 q 840 121 838 151 q 842 64 842 90 q 826 34 842 49 q 789 8 811 19 q 744 -9 767 -3 q 707 -15 722 -15 q 685 -3 694 -15 q 676 32 675 10 q 666 78 678 50 q 639 138 654 107 q 610 190 624 168 q 506 355 568 267 q 377 539 443 443 q 256 735 311 635 l 221 407 q 210 262 214 335 q 206 133 207 189 q 206 54 206 78 q 181 -71 206 -17 q 119 -162 157 -125 q 38 -217 81 -199 q -40 -236 -4 -236 z "},"ǋ":{"ha":1242,"x_min":69,"x_max":1257,"o":"m 106 -17 q 76 4 83 -17 q 69 54 69 25 q 75 158 69 103 q 86 265 81 213 l 163 965 l 264 967 q 303 960 289 967 q 336 922 318 954 q 481 691 403 806 q 629 472 558 576 q 746 282 700 368 l 710 239 l 740 538 q 751 710 751 644 q 744 812 750 775 q 731 869 738 849 q 725 908 725 890 q 739 933 725 922 q 774 950 753 943 q 815 960 794 957 q 849 964 835 964 q 889 936 875 964 q 903 881 903 908 q 898 826 903 857 q 886 728 893 796 l 867 544 q 848 331 853 414 q 843 200 843 249 q 845 121 843 151 q 847 64 847 90 q 832 34 847 49 q 793 8 817 19 q 747 -9 769 -3 q 710 -15 725 -15 q 688 -3 697 -15 q 679 32 678 10 q 669 78 681 50 q 642 138 657 107 q 613 190 626 168 q 502 364 568 271 q 367 558 436 457 q 242 764 297 660 l 261 767 l 224 407 q 213 249 214 311 q 215 151 211 188 q 225 96 219 115 q 235 65 231 76 q 240 39 240 53 q 224 13 240 24 q 185 -4 208 3 q 140 -14 163 -11 q 106 -17 118 -17 m 853 -307 q 791 -289 818 -307 q 749 -237 764 -271 q 733 -160 733 -204 q 740 -140 733 -146 q 751 -133 746 -133 q 767 -140 758 -133 q 793 -157 775 -146 q 855 -188 821 -174 q 913 -203 889 -203 q 940 -188 928 -203 q 963 -137 953 -174 q 983 -37 974 -101 q 1003 128 993 28 l 1057 682 l 1157 682 q 1186 664 1174 682 q 1205 623 1199 646 q 1211 582 1211 600 q 1201 492 1211 550 q 1179 354 1192 435 q 1157 169 1167 274 l 1142 -1 q 1092 -176 1132 -108 q 990 -276 1051 -244 q 853 -307 928 -307 m 1149 761 q 1081 788 1110 761 q 1053 857 1053 814 q 1086 937 1053 908 q 1163 965 1119 965 q 1230 942 1203 965 q 1257 871 1257 918 q 1225 792 1257 824 q 1149 761 1193 761 z "},"Ñ":{"ha":917,"x_min":69,"x_max":903,"o":"m 106 -17 q 76 4 83 -17 q 69 54 69 25 q 75 158 69 103 q 86 265 81 213 l 163 965 l 264 967 q 303 960 289 967 q 336 922 318 954 q 481 691 403 806 q 629 472 558 576 q 746 282 700 368 l 710 239 l 740 538 q 751 710 751 644 q 744 812 750 775 q 731 869 738 849 q 725 908 725 890 q 739 933 725 922 q 774 950 753 943 q 815 960 794 957 q 849 964 835 964 q 889 936 875 964 q 903 881 903 908 q 898 826 903 857 q 886 728 893 796 l 867 544 q 848 331 853 414 q 843 200 843 249 q 845 121 843 151 q 847 64 847 90 q 832 34 847 49 q 793 8 817 19 q 747 -9 769 -3 q 710 -15 725 -15 q 688 -3 697 -15 q 679 32 678 10 q 669 78 681 50 q 642 138 657 107 q 613 190 626 168 q 502 364 568 271 q 367 558 436 457 q 242 764 297 660 l 261 767 l 224 407 q 213 249 214 311 q 215 151 211 188 q 225 96 219 115 q 235 65 231 76 q 240 39 240 53 q 224 13 240 24 q 185 -4 208 3 q 140 -14 163 -11 q 106 -17 118 -17 m 343 1092 q 356 1156 343 1125 q 391 1206 368 1186 q 446 1225 414 1225 q 496 1213 467 1225 q 555 1185 525 1201 q 608 1158 585 1169 q 643 1146 632 1146 q 663 1160 657 1146 q 675 1194 669 1174 q 685 1215 679 1210 q 701 1221 690 1221 q 738 1213 725 1221 q 750 1182 750 1206 q 737 1108 750 1142 q 700 1056 724 1075 q 647 1036 676 1036 q 573 1056 608 1036 q 506 1095 538 1075 q 449 1115 475 1115 q 431 1105 439 1115 q 417 1071 424 1094 q 406 1050 413 1056 q 388 1044 400 1044 q 358 1053 372 1044 q 343 1092 343 1063 z "},"Ŋ":{"ha":915,"x_min":69,"x_max":899,"o":"m 564 -236 q 456 -201 492 -236 q 421 -100 421 -167 q 427 -80 421 -86 q 439 -74 433 -74 q 453 -77 446 -74 q 479 -87 461 -81 q 544 -112 513 -101 q 599 -122 575 -122 q 656 -95 631 -122 q 682 4 682 -68 q 670 76 682 43 q 642 139 658 110 q 613 190 626 168 q 508 355 571 267 q 380 539 446 443 q 258 735 314 635 l 224 407 q 213 263 214 319 q 217 174 213 207 q 227 122 221 140 q 238 92 233 104 q 243 67 243 81 q 226 37 243 51 q 187 10 210 22 q 141 -10 164 -3 q 106 -17 118 -17 q 76 4 83 -17 q 69 54 69 25 q 75 158 69 103 q 86 265 81 213 l 163 965 l 264 967 q 303 960 289 967 q 336 922 318 954 q 467 712 397 817 q 604 510 538 607 q 719 329 671 413 l 740 538 q 749 694 750 635 q 742 789 749 754 q 731 844 736 824 q 725 882 725 864 q 740 910 725 896 q 776 937 754 925 q 819 956 797 949 q 854 964 840 964 q 890 944 881 964 q 899 897 899 925 q 894 835 899 874 q 883 728 890 796 l 864 544 q 845 331 850 414 q 840 200 840 249 q 842 121 840 151 q 844 64 844 90 q 815 -62 844 -7 q 740 -157 785 -118 q 647 -216 694 -196 q 564 -236 600 -236 z "},"O":{"ha":1000,"x_min":60,"x_max":971,"o":"m 457 -22 q 248 24 338 -22 q 109 164 158 71 q 60 393 60 257 q 99 623 60 518 q 208 805 138 728 q 371 924 278 882 q 574 967 464 967 q 866 862 761 967 q 971 553 971 757 q 932 323 971 428 q 823 140 893 218 q 660 20 753 63 q 457 -22 567 -22 m 475 89 q 589 120 533 89 q 689 210 644 151 q 760 348 733 268 q 786 525 786 428 q 755 712 786 639 q 672 820 724 785 q 556 856 619 856 q 400 801 471 856 q 287 647 329 746 q 244 419 244 549 q 276 233 244 307 q 360 124 307 160 q 475 89 413 89 z "},"Ó":{"ha":1000,"x_min":60,"x_max":971,"o":"m 457 -22 q 248 24 338 -22 q 109 164 158 71 q 60 393 60 257 q 99 623 60 518 q 208 805 138 728 q 371 924 278 882 q 574 967 464 967 q 866 862 761 967 q 971 553 971 757 q 932 323 971 428 q 823 140 893 218 q 660 20 753 63 q 457 -22 567 -22 m 475 89 q 589 120 533 89 q 689 210 644 151 q 760 348 733 268 q 786 525 786 428 q 755 712 786 639 q 672 820 724 785 q 556 856 619 856 q 400 801 471 856 q 287 647 329 746 q 244 419 244 549 q 276 233 244 307 q 360 124 307 160 q 475 89 413 89 m 407 1050 q 396 1032 396 1042 q 408 1016 396 1022 q 432 1010 419 1010 q 447 1010 439 1010 q 463 1015 454 1011 l 717 1136 q 735 1149 731 1143 q 740 1167 740 1156 q 728 1209 740 1190 q 700 1240 717 1228 q 665 1251 683 1251 q 631 1239 646 1251 l 407 1050 z "},"Ŏ":{"ha":1000,"x_min":60,"x_max":971,"o":"m 457 -22 q 248 24 338 -22 q 109 164 158 71 q 60 393 60 257 q 99 623 60 518 q 208 805 138 728 q 371 924 278 882 q 574 967 464 967 q 866 862 761 967 q 971 553 971 757 q 932 323 971 428 q 823 140 893 218 q 660 20 753 63 q 457 -22 567 -22 m 475 89 q 589 120 533 89 q 689 210 644 151 q 760 348 733 268 q 786 525 786 428 q 755 712 786 639 q 672 820 724 785 q 556 856 619 856 q 400 801 471 856 q 287 647 329 746 q 244 419 244 549 q 276 233 244 307 q 360 124 307 160 q 475 89 413 89 m 574 1025 q 428 1076 474 1025 q 382 1200 382 1128 q 392 1233 382 1222 q 417 1240 401 1243 l 479 1233 q 497 1226 492 1232 q 501 1210 501 1221 q 518 1124 501 1156 q 578 1093 535 1093 q 640 1123 621 1093 q 669 1200 660 1153 q 685 1234 676 1226 q 714 1239 694 1242 l 769 1233 q 786 1228 779 1232 q 793 1211 793 1224 q 769 1131 793 1175 q 697 1056 746 1088 q 574 1025 649 1025 z "},"Ô":{"ha":1000,"x_min":60,"x_max":971,"o":"m 457 -22 q 248 24 338 -22 q 109 164 158 71 q 60 393 60 257 q 99 623 60 518 q 208 805 138 728 q 371 924 278 882 q 574 967 464 967 q 866 862 761 967 q 971 553 971 757 q 932 323 971 428 q 823 140 893 218 q 660 20 753 63 q 457 -22 567 -22 m 475 89 q 589 120 533 89 q 689 210 644 151 q 760 348 733 268 q 786 525 786 428 q 755 712 786 639 q 672 820 724 785 q 556 856 619 856 q 400 801 471 856 q 287 647 329 746 q 244 419 244 549 q 276 233 244 307 q 360 124 307 160 q 475 89 413 89 m 365 1057 l 365 1057 q 358 1040 356 1047 q 375 1031 361 1032 l 426 1025 q 444 1026 438 1024 q 457 1035 451 1029 l 575 1156 l 672 1036 q 688 1023 679 1029 q 719 1018 696 1017 l 772 1021 q 788 1030 783 1022 q 786 1047 793 1038 l 682 1206 q 647 1242 664 1233 q 599 1250 631 1250 q 551 1242 568 1250 q 522 1221 535 1233 l 365 1057 z "},"Ȍ":{"ha":1000,"x_min":60,"x_max":971,"o":"m 457 -22 q 248 24 338 -22 q 109 164 158 71 q 60 393 60 257 q 99 623 60 518 q 208 805 138 728 q 371 924 278 882 q 574 967 464 967 q 866 862 761 967 q 971 553 971 757 q 932 323 971 428 q 823 140 893 218 q 660 20 753 63 q 457 -22 567 -22 m 475 89 q 589 120 533 89 q 689 210 644 151 q 760 348 733 268 q 786 525 786 428 q 755 712 786 639 q 672 820 724 785 q 556 856 619 856 q 400 801 471 856 q 287 647 329 746 q 244 419 244 549 q 276 233 244 307 q 360 124 307 160 q 475 89 413 89 m 814 1054 l 689 1240 q 674 1250 683 1247 q 654 1253 665 1253 q 620 1241 638 1253 q 591 1210 603 1229 q 579 1168 579 1192 q 585 1152 579 1157 q 603 1138 590 1147 l 758 1017 q 774 1011 765 1011 q 789 1011 783 1011 q 813 1017 801 1011 q 825 1033 825 1024 q 822 1043 825 1038 q 814 1054 818 1049 m 629 1050 l 449 1239 q 414 1251 438 1251 q 380 1240 397 1251 q 351 1209 363 1228 q 339 1167 339 1190 q 344 1149 339 1156 q 363 1136 349 1143 l 574 1015 q 590 1010 582 1011 q 604 1010 599 1010 q 628 1016 617 1010 q 640 1032 640 1022 q 637 1040 640 1036 q 629 1050 633 1044 z "},"Ö":{"ha":1000,"x_min":60,"x_max":971,"o":"m 457 -22 q 248 24 338 -22 q 109 164 158 71 q 60 393 60 257 q 99 623 60 518 q 208 805 138 728 q 371 924 278 882 q 574 967 464 967 q 866 862 761 967 q 971 553 971 757 q 932 323 971 428 q 823 140 893 218 q 660 20 753 63 q 457 -22 567 -22 m 475 89 q 589 120 533 89 q 689 210 644 151 q 760 348 733 268 q 786 525 786 428 q 755 712 786 639 q 672 820 724 785 q 556 856 619 856 q 400 801 471 856 q 287 647 329 746 q 244 419 244 549 q 276 233 244 307 q 360 124 307 160 q 475 89 413 89 m 689 1061 q 633 1083 657 1061 q 610 1140 610 1104 q 638 1206 610 1182 q 701 1231 665 1231 q 756 1210 733 1231 q 779 1151 779 1190 q 753 1087 779 1113 q 689 1061 726 1061 m 465 1061 q 410 1083 433 1061 q 386 1140 386 1104 q 414 1206 386 1182 q 478 1231 442 1231 q 533 1210 510 1231 q 556 1151 556 1190 q 529 1087 556 1113 q 465 1061 503 1061 z "},"Ȫ":{"ha":1000,"x_min":60,"x_max":971,"o":"m 457 -22 q 248 24 338 -22 q 109 164 158 71 q 60 393 60 257 q 99 623 60 518 q 208 805 138 728 q 371 924 278 882 q 574 967 464 967 q 866 862 761 967 q 971 553 971 757 q 932 323 971 428 q 823 140 893 218 q 660 20 753 63 q 457 -22 567 -22 m 475 89 q 589 120 533 89 q 689 210 644 151 q 760 348 733 268 q 786 525 786 428 q 755 712 786 639 q 672 820 724 785 q 556 856 619 856 q 400 801 471 856 q 287 647 329 746 q 244 419 244 549 q 276 233 244 307 q 360 124 307 160 q 475 89 413 89 m 689 1061 q 633 1083 657 1061 q 610 1140 610 1104 q 638 1206 610 1182 q 701 1231 665 1231 q 756 1210 733 1231 q 779 1151 779 1190 q 753 1087 779 1113 q 689 1061 726 1061 m 465 1061 q 410 1083 433 1061 q 386 1140 386 1104 q 414 1206 386 1182 q 478 1231 442 1231 q 533 1210 510 1231 q 556 1151 556 1190 q 529 1087 556 1113 q 465 1061 503 1061 m 424 1432 q 444 1453 426 1453 l 788 1453 q 808 1432 811 1453 l 803 1390 q 782 1369 800 1369 l 439 1369 q 418 1390 415 1369 l 424 1432 z "},"Ȱ":{"ha":1000,"x_min":60,"x_max":971,"o":"m 457 -22 q 248 24 338 -22 q 109 164 158 71 q 60 393 60 257 q 99 623 60 518 q 208 805 138 728 q 371 924 278 882 q 574 967 464 967 q 866 862 761 967 q 971 553 971 757 q 932 323 971 428 q 823 140 893 218 q 660 20 753 63 q 457 -22 567 -22 m 475 89 q 589 120 533 89 q 689 210 644 151 q 760 348 733 268 q 786 525 786 428 q 755 712 786 639 q 672 820 724 785 q 556 856 619 856 q 400 801 471 856 q 287 647 329 746 q 244 419 244 549 q 276 233 244 307 q 360 124 307 160 q 475 89 413 89 m 586 1046 q 519 1072 547 1046 q 490 1142 490 1099 q 524 1222 490 1193 q 600 1250 557 1250 q 667 1226 640 1250 q 694 1156 694 1203 q 663 1077 694 1108 q 586 1046 631 1046 m 429 1432 q 450 1453 432 1453 l 793 1453 q 814 1432 817 1453 l 808 1390 q 788 1369 806 1369 l 444 1369 q 424 1390 421 1369 l 429 1432 z "},"Ò":{"ha":1000,"x_min":60,"x_max":971,"o":"m 457 -22 q 248 24 338 -22 q 109 164 158 71 q 60 393 60 257 q 99 623 60 518 q 208 805 138 728 q 371 924 278 882 q 574 967 464 967 q 866 862 761 967 q 971 553 971 757 q 932 323 971 428 q 823 140 893 218 q 660 20 753 63 q 457 -22 567 -22 m 475 89 q 589 120 533 89 q 689 210 644 151 q 760 348 733 268 q 786 525 786 428 q 755 712 786 639 q 672 820 724 785 q 556 856 619 856 q 400 801 471 856 q 287 647 329 746 q 244 419 244 549 q 276 233 244 307 q 360 124 307 160 q 475 89 413 89 m 728 1050 l 547 1239 q 532 1249 542 1246 q 511 1251 522 1251 q 477 1240 494 1251 q 448 1209 460 1228 q 436 1167 436 1190 q 441 1149 436 1156 q 460 1136 446 1143 l 672 1015 q 689 1010 681 1011 q 703 1010 697 1010 q 727 1016 715 1010 q 739 1032 739 1022 q 735 1040 739 1036 q 728 1050 732 1044 z "},"Ő":{"ha":1000,"x_min":60,"x_max":971,"o":"m 457 -22 q 248 24 338 -22 q 109 164 158 71 q 60 393 60 257 q 99 623 60 518 q 208 805 138 728 q 371 924 278 882 q 574 967 464 967 q 866 862 761 967 q 971 553 971 757 q 932 323 971 428 q 823 140 893 218 q 660 20 753 63 q 457 -22 567 -22 m 475 89 q 589 120 533 89 q 689 210 644 151 q 760 348 733 268 q 786 525 786 428 q 755 712 786 639 q 672 820 724 785 q 556 856 619 856 q 400 801 471 856 q 287 647 329 746 q 244 419 244 549 q 276 233 244 307 q 360 124 307 160 q 475 89 413 89 m 378 1050 q 370 1040 374 1044 q 367 1032 367 1036 q 378 1016 367 1022 q 403 1010 390 1010 q 423 1014 410 1010 q 479 1046 436 1018 l 607 1129 q 631 1147 621 1138 q 642 1167 642 1156 q 630 1209 642 1190 q 601 1240 618 1228 q 565 1251 583 1251 q 531 1239 542 1251 l 378 1050 m 615 1050 q 608 1040 611 1044 q 604 1032 604 1036 q 616 1016 604 1022 q 640 1010 628 1010 q 653 1013 644 1010 q 685 1029 661 1015 q 760 1075 710 1043 l 843 1129 q 867 1147 857 1138 q 878 1167 878 1156 q 866 1209 878 1190 q 838 1240 854 1228 q 803 1251 821 1251 q 768 1239 779 1251 l 615 1050 z "},"Ȏ":{"ha":1000,"x_min":60,"x_max":971,"o":"m 457 -22 q 248 24 338 -22 q 109 164 158 71 q 60 393 60 257 q 99 623 60 518 q 208 805 138 728 q 371 924 278 882 q 574 967 464 967 q 866 862 761 967 q 971 553 971 757 q 932 323 971 428 q 823 140 893 218 q 660 20 753 63 q 457 -22 567 -22 m 475 89 q 589 120 533 89 q 689 210 644 151 q 760 348 733 268 q 786 525 786 428 q 755 712 786 639 q 672 820 724 785 q 556 856 619 856 q 400 801 471 856 q 287 647 329 746 q 244 419 244 549 q 276 233 244 307 q 360 124 307 160 q 475 89 413 89 m 610 1240 q 756 1190 710 1240 q 801 1065 801 1139 q 792 1033 801 1043 q 767 1025 782 1024 l 704 1032 q 687 1040 692 1033 q 682 1056 682 1046 q 666 1141 682 1110 q 606 1172 650 1172 q 544 1142 563 1172 q 514 1065 525 1113 q 499 1032 508 1039 q 469 1026 489 1025 l 414 1032 q 397 1038 404 1033 q 390 1054 390 1042 q 414 1135 390 1092 q 487 1209 438 1178 q 610 1240 536 1240 z "},"Ō":{"ha":1000,"x_min":60,"x_max":971,"o":"m 457 -22 q 248 24 338 -22 q 109 164 158 71 q 60 393 60 257 q 99 623 60 518 q 208 805 138 728 q 371 924 278 882 q 574 967 464 967 q 866 862 761 967 q 971 553 971 757 q 932 323 971 428 q 823 140 893 218 q 660 20 753 63 q 457 -22 567 -22 m 475 89 q 589 120 533 89 q 689 210 644 151 q 760 348 733 268 q 786 525 786 428 q 755 712 786 639 q 672 820 724 785 q 556 856 619 856 q 400 801 471 856 q 287 647 329 746 q 244 419 244 549 q 276 233 244 307 q 360 124 307 160 q 475 89 413 89 m 394 1147 q 415 1168 397 1168 l 758 1168 q 779 1147 782 1168 l 774 1106 q 753 1085 771 1085 l 410 1085 q 389 1106 386 1085 l 394 1147 z "},"Ǫ":{"ha":1000,"x_min":60,"x_max":971,"o":"m 457 -22 q 248 24 338 -22 q 109 164 158 71 q 60 393 60 257 q 99 623 60 518 q 208 805 138 728 q 371 924 278 882 q 574 967 464 967 q 866 862 761 967 q 971 553 971 757 q 932 323 971 428 q 823 140 893 218 q 660 20 753 63 q 457 -22 567 -22 m 475 89 q 589 120 533 89 q 689 210 644 151 q 760 348 733 268 q 786 525 786 428 q 755 712 786 639 q 672 820 724 785 q 556 856 619 856 q 400 801 471 856 q 287 647 329 746 q 244 419 244 549 q 276 233 244 307 q 360 124 307 160 q 475 89 413 89 m 331 -149 q 369 -57 331 -97 q 468 7 408 -17 q 588 31 528 31 q 608 27 600 31 q 617 18 617 24 q 613 11 617 15 q 593 1 608 7 q 511 -51 538 -17 q 485 -112 485 -85 q 503 -158 485 -143 q 548 -176 521 -172 q 606 -181 575 -181 q 621 -184 614 -181 q 628 -194 628 -187 q 611 -233 628 -208 q 563 -278 594 -260 q 494 -296 531 -296 q 416 -280 454 -296 q 354 -231 378 -264 q 331 -149 331 -199 z "},"Ø":{"ha":986,"x_min":60,"x_max":971,"o":"m 290 -96 q 262 -89 281 -100 q 238 -64 243 -78 q 253 25 228 -33 l 703 1060 q 709 1069 706 1067 q 717 1074 713 1072 q 744 1065 725 1076 q 769 1038 764 1053 q 770 1000 775 1022 q 751 947 765 978 l 304 -79 q 299 -89 303 -85 q 290 -96 294 -93 m 457 -22 q 248 24 338 -22 q 109 164 158 71 q 60 393 60 257 q 99 623 60 518 q 208 805 138 728 q 371 924 278 882 q 574 967 464 967 q 866 862 761 967 q 971 553 971 757 q 932 323 971 428 q 823 140 893 218 q 660 20 753 63 q 457 -22 567 -22 m 475 89 q 589 120 533 89 q 689 210 644 151 q 760 348 733 268 q 786 525 786 428 q 755 712 786 639 q 672 820 724 785 q 556 856 619 856 q 400 801 471 856 q 287 647 329 746 q 244 419 244 549 q 276 233 244 307 q 360 124 307 160 q 475 89 413 89 z "},"Ǿ":{"ha":986,"x_min":60,"x_max":971,"o":"m 290 -96 q 262 -89 281 -100 q 238 -64 243 -78 q 253 25 228 -33 l 703 1060 q 709 1069 706 1067 q 717 1074 713 1072 q 744 1065 725 1076 q 769 1038 764 1053 q 770 1000 775 1022 q 751 947 765 978 l 304 -79 q 299 -89 303 -85 q 290 -96 294 -93 m 457 -22 q 248 24 338 -22 q 109 164 158 71 q 60 393 60 257 q 99 623 60 518 q 208 805 138 728 q 371 924 278 882 q 574 967 464 967 q 866 862 761 967 q 971 553 971 757 q 932 323 971 428 q 823 140 893 218 q 660 20 753 63 q 457 -22 567 -22 m 475 89 q 589 120 533 89 q 689 210 644 151 q 760 348 733 268 q 786 525 786 428 q 755 712 786 639 q 672 820 724 785 q 556 856 619 856 q 400 801 471 856 q 287 647 329 746 q 244 419 244 549 q 276 233 244 307 q 360 124 307 160 q 475 89 413 89 m 419 1106 q 408 1088 408 1097 q 420 1072 408 1078 q 444 1065 432 1065 q 459 1066 451 1065 q 475 1071 467 1067 l 729 1192 q 748 1205 743 1199 q 753 1222 753 1211 q 741 1265 753 1246 q 713 1295 729 1283 q 678 1307 696 1307 q 643 1294 658 1307 l 419 1106 z "},"Õ":{"ha":1000,"x_min":60,"x_max":971,"o":"m 457 -22 q 248 24 338 -22 q 109 164 158 71 q 60 393 60 257 q 99 623 60 518 q 208 805 138 728 q 371 924 278 882 q 574 967 464 967 q 866 862 761 967 q 971 553 971 757 q 932 323 971 428 q 823 140 893 218 q 660 20 753 63 q 457 -22 567 -22 m 475 89 q 589 120 533 89 q 689 210 644 151 q 760 348 733 268 q 786 525 786 428 q 755 712 786 639 q 672 820 724 785 q 556 856 619 856 q 400 801 471 856 q 287 647 329 746 q 244 419 244 549 q 276 233 244 307 q 360 124 307 160 q 475 89 413 89 m 386 1092 q 399 1156 386 1125 q 434 1206 411 1186 q 489 1225 457 1225 q 539 1213 510 1225 q 598 1185 568 1201 q 651 1158 628 1169 q 686 1146 675 1146 q 706 1160 700 1146 q 718 1194 713 1174 q 728 1215 722 1210 q 744 1221 733 1221 q 781 1213 768 1221 q 793 1182 793 1206 q 780 1108 793 1142 q 743 1056 767 1075 q 690 1036 719 1036 q 616 1056 651 1036 q 549 1095 581 1075 q 492 1115 518 1115 q 474 1105 482 1115 q 460 1071 467 1094 q 449 1050 456 1056 q 431 1044 443 1044 q 401 1053 415 1044 q 386 1092 386 1063 z "},"Ȭ":{"ha":1000,"x_min":60,"x_max":971,"o":"m 457 -22 q 248 24 338 -22 q 109 164 158 71 q 60 393 60 257 q 99 623 60 518 q 208 805 138 728 q 371 924 278 882 q 574 967 464 967 q 866 862 761 967 q 971 553 971 757 q 932 323 971 428 q 823 140 893 218 q 660 20 753 63 q 457 -22 567 -22 m 475 89 q 589 120 533 89 q 689 210 644 151 q 760 348 733 268 q 786 525 786 428 q 755 712 786 639 q 672 820 724 785 q 556 856 619 856 q 400 801 471 856 q 287 647 329 746 q 244 419 244 549 q 276 233 244 307 q 360 124 307 160 q 475 89 413 89 m 386 1092 q 399 1156 386 1125 q 434 1206 411 1186 q 489 1225 457 1225 q 539 1213 510 1225 q 598 1185 568 1201 q 651 1158 628 1169 q 686 1146 675 1146 q 706 1160 700 1146 q 718 1194 713 1174 q 728 1215 722 1210 q 744 1221 733 1221 q 781 1213 768 1221 q 793 1182 793 1206 q 780 1108 793 1142 q 743 1056 767 1075 q 690 1036 719 1036 q 616 1056 651 1036 q 549 1095 581 1075 q 492 1115 518 1115 q 474 1105 482 1115 q 460 1071 467 1094 q 449 1050 456 1056 q 431 1044 443 1044 q 401 1053 415 1044 q 386 1092 386 1063 m 421 1399 q 442 1419 424 1419 l 785 1419 q 806 1399 808 1419 l 800 1357 q 779 1336 797 1336 l 436 1336 q 415 1357 413 1336 l 421 1399 z "},"Œ":{"ha":1378,"x_min":60,"x_max":1383,"o":"m 469 -22 l 767 97 l 1249 169 q 1291 178 1274 174 q 1314 182 1308 182 q 1331 163 1331 182 q 1324 108 1331 136 q 1306 55 1318 79 q 1275 15 1293 31 q 1235 0 1257 0 l 1072 0 q 931 -3 996 0 q 799 -11 865 -7 q 654 -19 733 -15 q 469 -22 575 -22 m 839 438 l 857 544 l 979 544 q 1092 549 1039 544 q 1181 557 1144 553 q 1226 561 1217 561 q 1243 555 1238 561 q 1249 538 1249 549 q 1221 494 1249 517 q 1152 457 1193 472 q 1072 440 1111 442 l 839 438 m 1311 803 q 1265 808 1297 803 q 1193 817 1233 814 l 839 840 l 701 944 l 1068 944 q 1224 948 1167 944 q 1312 955 1282 951 q 1356 958 1342 958 q 1377 953 1371 958 q 1383 928 1383 949 q 1374 874 1383 903 q 1348 824 1364 844 q 1311 803 1332 803 m 457 -22 q 248 24 338 -22 q 109 164 158 71 q 60 393 60 257 q 99 623 60 518 q 208 805 138 728 q 371 924 278 882 q 574 967 464 967 q 866 862 761 967 q 971 553 971 757 q 932 323 971 428 q 823 140 893 218 q 660 20 753 63 q 457 -22 567 -22 m 475 89 q 589 120 533 89 q 689 210 644 151 q 760 348 733 268 q 786 525 786 428 q 755 712 786 639 q 672 820 724 785 q 556 856 619 856 q 400 801 471 856 q 287 647 329 746 q 244 419 244 549 q 276 233 244 307 q 360 124 307 160 q 475 89 413 89 z "},"P":{"ha":769,"x_min":68,"x_max":758,"o":"m 111 -11 q 78 11 88 -11 q 68 71 68 33 q 72 133 68 99 l 160 944 l 418 944 q 674 888 589 944 q 758 699 758 831 q 722 551 758 618 q 627 436 685 485 q 504 361 569 388 q 382 335 439 335 q 348 344 367 335 q 316 369 329 354 q 303 400 303 385 q 313 422 303 415 q 333 429 322 428 q 451 473 396 442 q 540 556 506 504 q 574 681 574 608 q 544 778 574 743 q 457 826 514 813 q 315 840 400 840 l 224 -11 l 111 -11 z "},"Þ":{"ha":772,"x_min":76,"x_max":744,"o":"m 368 183 q 334 193 353 183 q 302 218 315 203 q 289 249 289 233 q 299 270 289 264 q 319 278 308 276 q 437 322 382 290 q 526 405 492 353 q 560 529 560 457 q 498 648 560 613 q 300 689 436 683 l 290 794 l 363 794 q 655 737 565 794 q 744 547 744 679 q 708 400 744 467 q 613 285 671 333 q 490 210 556 236 q 368 183 425 183 m 131 -11 q 99 6 111 -11 q 82 49 88 22 q 76 101 76 75 q 83 211 76 158 q 96 325 90 264 l 163 965 l 260 965 q 308 938 296 965 q 319 874 319 911 q 317 814 319 840 q 309 750 314 788 q 297 647 304 713 l 228 -11 l 131 -11 z "},"Q":{"ha":986,"x_min":60,"x_max":1014,"o":"m 835 -236 q 734 -209 788 -236 q 628 -132 681 -182 q 526 -12 575 -82 l 650 43 q 723 -19 690 7 q 791 -60 756 -44 q 874 -82 826 -75 q 993 -89 922 -89 q 1009 -94 1004 -89 q 1014 -111 1014 -100 q 997 -149 1014 -128 q 951 -191 979 -171 q 893 -224 924 -211 q 835 -236 863 -236 m 457 -22 q 248 24 338 -22 q 109 164 158 71 q 60 393 60 257 q 99 623 60 518 q 208 805 138 728 q 371 924 278 882 q 574 967 464 967 q 866 862 761 967 q 971 553 971 757 q 932 323 971 428 q 823 140 893 218 q 660 20 753 63 q 457 -22 567 -22 m 475 89 q 589 120 533 89 q 689 210 644 151 q 760 348 733 268 q 786 525 786 428 q 755 712 786 639 q 672 820 724 785 q 556 856 619 856 q 400 801 471 856 q 287 647 329 746 q 244 419 244 549 q 276 233 244 307 q 360 124 307 160 q 475 89 413 89 z "},"R":{"ha":788,"x_min":67,"x_max":760,"o":"m 600 -12 q 517 42 564 -12 q 424 185 471 97 q 333 375 376 274 q 322 401 328 388 q 315 428 315 414 q 325 449 315 443 q 346 457 335 456 q 503 532 440 475 q 567 678 567 589 q 545 767 567 728 q 469 831 524 807 q 319 854 415 854 l 314 854 l 222 -11 l 110 -11 q 76 11 86 -11 q 67 71 67 33 q 71 133 67 99 l 160 944 q 281 955 221 951 q 401 958 342 958 q 582 931 503 958 q 706 844 661 903 q 751 693 751 786 q 726 576 751 628 q 656 488 700 525 q 560 428 613 451 q 453 393 507 404 l 464 463 q 556 294 511 364 q 638 184 601 225 q 693 126 674 143 q 744 90 728 100 q 760 67 760 79 q 742 41 760 54 q 699 15 725 28 q 645 -5 672 3 q 600 -12 618 -12 z "},"Ŕ":{"ha":788,"x_min":67,"x_max":760,"o":"m 600 -12 q 517 42 564 -12 q 424 185 471 97 q 333 375 376 274 q 322 401 328 388 q 315 428 315 414 q 325 449 315 443 q 346 457 335 456 q 503 532 440 475 q 567 678 567 589 q 545 767 567 728 q 469 831 524 807 q 319 854 415 854 l 314 854 l 222 -11 l 110 -11 q 76 11 86 -11 q 67 71 67 33 q 71 133 67 99 l 160 944 q 281 955 221 951 q 401 958 342 958 q 582 931 503 958 q 706 844 661 903 q 751 693 751 786 q 726 576 751 628 q 656 488 700 525 q 560 428 613 451 q 453 393 507 404 l 464 463 q 556 294 511 364 q 638 184 601 225 q 693 126 674 143 q 744 90 728 100 q 760 67 760 79 q 742 41 760 54 q 699 15 725 28 q 645 -5 672 3 q 600 -12 618 -12 m 296 1050 q 285 1032 285 1042 q 297 1016 285 1022 q 321 1010 308 1010 q 335 1010 328 1010 q 351 1015 343 1011 l 606 1136 q 624 1149 619 1143 q 629 1167 629 1156 q 617 1209 629 1190 q 589 1240 606 1228 q 554 1251 572 1251 q 519 1239 535 1251 l 296 1050 z "},"Ř":{"ha":788,"x_min":67,"x_max":760,"o":"m 600 -12 q 517 42 564 -12 q 424 185 471 97 q 333 375 376 274 q 322 401 328 388 q 315 428 315 414 q 325 449 315 443 q 346 457 335 456 q 503 532 440 475 q 567 678 567 589 q 545 767 567 728 q 469 831 524 807 q 319 854 415 854 l 314 854 l 222 -11 l 110 -11 q 76 11 86 -11 q 67 71 67 33 q 71 133 67 99 l 160 944 q 281 955 221 951 q 401 958 342 958 q 582 931 503 958 q 706 844 661 903 q 751 693 751 786 q 726 576 751 628 q 656 488 700 525 q 560 428 613 451 q 453 393 507 404 l 464 463 q 556 294 511 364 q 638 184 601 225 q 693 126 674 143 q 744 90 728 100 q 760 67 760 79 q 742 41 760 54 q 699 15 725 28 q 645 -5 672 3 q 600 -12 618 -12 m 688 1211 l 688 1211 q 694 1229 697 1222 q 678 1238 692 1236 l 626 1243 q 609 1242 615 1244 q 596 1233 603 1240 l 478 1113 l 381 1232 q 366 1245 375 1239 q 333 1250 357 1251 l 281 1247 q 265 1239 269 1246 q 267 1221 261 1232 l 371 1063 q 406 1027 389 1036 q 454 1018 422 1018 q 502 1026 486 1018 q 531 1047 518 1035 l 688 1211 z "},"Ŗ":{"ha":788,"x_min":67,"x_max":760,"o":"m 600 -12 q 517 42 564 -12 q 424 185 471 97 q 333 375 376 274 q 322 401 328 388 q 315 428 315 414 q 325 449 315 443 q 346 457 335 456 q 503 532 440 475 q 567 678 567 589 q 545 767 567 728 q 469 831 524 807 q 319 854 415 854 l 314 854 l 222 -11 l 110 -11 q 76 11 86 -11 q 67 71 67 33 q 71 133 67 99 l 160 944 q 281 955 221 951 q 401 958 342 958 q 582 931 503 958 q 706 844 661 903 q 751 693 751 786 q 726 576 751 628 q 656 488 700 525 q 560 428 613 451 q 453 393 507 404 l 464 463 q 556 294 511 364 q 638 184 601 225 q 693 126 674 143 q 744 90 728 100 q 760 67 760 79 q 742 41 760 54 q 699 15 725 28 q 645 -5 672 3 q 600 -12 618 -12 m 201 -272 q 210 -260 201 -262 q 236 -254 218 -257 q 308 -231 281 -247 q 340 -167 335 -214 l 344 -201 q 281 -179 306 -201 q 257 -125 257 -157 q 278 -63 257 -83 q 336 -43 300 -43 q 402 -72 378 -43 q 426 -150 426 -101 q 401 -240 426 -204 q 338 -292 375 -275 q 267 -310 301 -310 q 217 -298 232 -310 q 201 -272 201 -286 z "},"Ȑ":{"ha":788,"x_min":67,"x_max":760,"o":"m 600 -12 q 517 42 564 -12 q 424 185 471 97 q 333 375 376 274 q 322 401 328 388 q 315 428 315 414 q 325 449 315 443 q 346 457 335 456 q 503 532 440 475 q 567 678 567 589 q 545 767 567 728 q 469 831 524 807 q 319 854 415 854 l 314 854 l 222 -11 l 110 -11 q 76 11 86 -11 q 67 71 67 33 q 71 133 67 99 l 160 944 q 281 955 221 951 q 401 958 342 958 q 582 931 503 958 q 706 844 661 903 q 751 693 751 786 q 726 576 751 628 q 656 488 700 525 q 560 428 613 451 q 453 393 507 404 l 464 463 q 556 294 511 364 q 638 184 601 225 q 693 126 674 143 q 744 90 728 100 q 760 67 760 79 q 742 41 760 54 q 699 15 725 28 q 645 -5 672 3 q 600 -12 618 -12 m 703 1054 l 578 1240 q 563 1250 572 1247 q 543 1253 554 1253 q 509 1241 526 1253 q 480 1210 492 1229 q 468 1168 468 1192 q 474 1152 468 1157 q 492 1138 479 1147 l 647 1017 q 663 1011 654 1011 q 678 1011 672 1011 q 702 1017 690 1011 q 714 1033 714 1024 q 710 1043 714 1038 q 703 1054 707 1049 m 518 1050 l 338 1239 q 303 1251 326 1251 q 269 1240 286 1251 q 240 1209 251 1228 q 228 1167 228 1190 q 233 1149 228 1156 q 251 1136 238 1143 l 463 1015 q 479 1010 471 1011 q 493 1010 488 1010 q 517 1016 506 1010 q 529 1032 529 1022 q 526 1040 529 1036 q 518 1050 522 1044 z "},"Ȓ":{"ha":788,"x_min":67,"x_max":760,"o":"m 600 -12 q 517 42 564 -12 q 424 185 471 97 q 333 375 376 274 q 322 401 328 388 q 315 428 315 414 q 325 449 315 443 q 346 457 335 456 q 503 532 440 475 q 567 678 567 589 q 545 767 567 728 q 469 831 524 807 q 319 854 415 854 l 314 854 l 222 -11 l 110 -11 q 76 11 86 -11 q 67 71 67 33 q 71 133 67 99 l 160 944 q 281 955 221 951 q 401 958 342 958 q 582 931 503 958 q 706 844 661 903 q 751 693 751 786 q 726 576 751 628 q 656 488 700 525 q 560 428 613 451 q 453 393 507 404 l 464 463 q 556 294 511 364 q 638 184 601 225 q 693 126 674 143 q 744 90 728 100 q 760 67 760 79 q 742 41 760 54 q 699 15 725 28 q 645 -5 672 3 q 600 -12 618 -12 m 499 1240 q 644 1190 599 1240 q 690 1065 690 1139 q 681 1033 690 1043 q 656 1025 671 1024 l 593 1032 q 576 1040 581 1033 q 571 1056 571 1046 q 555 1141 571 1110 q 494 1172 539 1172 q 433 1142 451 1172 q 403 1065 414 1113 q 388 1032 397 1039 q 358 1026 378 1025 l 303 1032 q 286 1038 293 1033 q 279 1054 279 1042 q 303 1135 279 1092 q 376 1209 326 1178 q 499 1240 425 1240 z "},"S":{"ha":703,"x_min":22,"x_max":661,"o":"m 288 -18 q 96 19 169 -18 q 22 117 22 57 q 29 182 22 163 q 53 201 36 201 q 88 185 64 201 q 145 147 111 168 q 222 110 179 126 q 314 93 264 93 q 431 124 386 93 q 476 221 476 156 q 447 315 476 283 q 360 385 418 347 l 272 440 q 186 503 225 471 q 124 580 147 535 q 100 694 100 625 q 144 842 100 781 q 267 935 189 903 q 444 967 344 967 q 583 955 538 967 q 644 922 629 943 q 658 874 658 901 q 647 815 658 835 q 624 794 636 794 q 599 801 613 794 q 560 819 585 808 q 498 842 540 829 q 410 856 456 856 q 309 825 350 856 q 268 733 268 794 q 299 644 268 676 q 381 586 329 611 l 457 550 q 558 494 511 525 q 633 416 604 464 q 661 289 661 368 q 560 62 661 142 q 288 -18 458 -18 z "},"Ś":{"ha":703,"x_min":22,"x_max":661,"o":"m 288 -18 q 96 19 169 -18 q 22 117 22 57 q 29 182 22 163 q 53 201 36 201 q 88 185 64 201 q 145 147 111 168 q 222 110 179 126 q 314 93 264 93 q 431 124 386 93 q 476 221 476 156 q 447 315 476 283 q 360 385 418 347 l 272 440 q 186 503 225 471 q 124 580 147 535 q 100 694 100 625 q 144 842 100 781 q 267 935 189 903 q 444 967 344 967 q 583 955 538 967 q 644 922 629 943 q 658 874 658 901 q 647 815 658 835 q 624 794 636 794 q 599 801 613 794 q 560 819 585 808 q 498 842 540 829 q 410 856 456 856 q 309 825 350 856 q 268 733 268 794 q 299 644 268 676 q 381 586 329 611 l 457 550 q 558 494 511 525 q 633 416 604 464 q 661 289 661 368 q 560 62 661 142 q 288 -18 458 -18 m 256 1050 q 244 1032 244 1042 q 256 1016 244 1022 q 281 1010 268 1010 q 295 1010 288 1010 q 311 1015 303 1011 l 565 1136 q 584 1149 579 1143 q 589 1167 589 1156 q 577 1209 589 1190 q 549 1240 565 1228 q 514 1251 532 1251 q 479 1239 494 1251 l 256 1050 z "},"Š":{"ha":703,"x_min":22,"x_max":661,"o":"m 288 -18 q 96 19 169 -18 q 22 117 22 57 q 29 182 22 163 q 53 201 36 201 q 88 185 64 201 q 145 147 111 168 q 222 110 179 126 q 314 93 264 93 q 431 124 386 93 q 476 221 476 156 q 447 315 476 283 q 360 385 418 347 l 272 440 q 186 503 225 471 q 124 580 147 535 q 100 694 100 625 q 144 842 100 781 q 267 935 189 903 q 444 967 344 967 q 583 955 538 967 q 644 922 629 943 q 658 874 658 901 q 647 815 658 835 q 624 794 636 794 q 599 801 613 794 q 560 819 585 808 q 498 842 540 829 q 410 856 456 856 q 309 825 350 856 q 268 733 268 794 q 299 644 268 676 q 381 586 329 611 l 457 550 q 558 494 511 525 q 633 416 604 464 q 661 289 661 368 q 560 62 661 142 q 288 -18 458 -18 m 647 1211 l 647 1211 q 654 1229 657 1222 q 638 1238 651 1236 l 586 1243 q 569 1242 575 1244 q 556 1233 563 1240 l 438 1113 l 340 1232 q 326 1245 335 1239 q 293 1250 317 1251 l 240 1247 q 225 1239 229 1246 q 226 1221 221 1232 l 331 1063 q 365 1027 349 1036 q 414 1018 382 1018 q 462 1026 446 1018 q 490 1047 478 1035 l 647 1211 z "},"Ş":{"ha":703,"x_min":22,"x_max":661,"o":"m 288 -18 q 96 19 169 -18 q 22 117 22 57 q 29 182 22 163 q 53 201 36 201 q 88 185 64 201 q 145 147 111 168 q 222 110 179 126 q 314 93 264 93 q 431 124 386 93 q 476 221 476 156 q 447 315 476 283 q 360 385 418 347 l 272 440 q 186 503 225 471 q 124 580 147 535 q 100 694 100 625 q 144 842 100 781 q 267 935 189 903 q 444 967 344 967 q 583 955 538 967 q 644 922 629 943 q 658 874 658 901 q 647 815 658 835 q 624 794 636 794 q 599 801 613 794 q 560 819 585 808 q 498 842 540 829 q 410 856 456 856 q 309 825 350 856 q 268 733 268 794 q 299 644 268 676 q 381 586 329 611 l 457 550 q 558 494 511 525 q 633 416 604 464 q 661 289 661 368 q 560 62 661 142 q 288 -18 458 -18 m 282 28 q 290 42 285 36 q 303 49 294 47 l 329 54 q 346 51 340 57 q 349 33 351 46 l 311 -115 l 296 -61 q 415 -86 365 -61 q 465 -165 465 -111 q 444 -231 465 -204 q 386 -274 422 -258 q 307 -297 350 -290 q 222 -306 264 -304 q 197 -300 204 -306 q 190 -285 190 -294 q 200 -253 190 -265 q 228 -239 210 -240 q 308 -220 272 -233 q 344 -174 344 -207 q 333 -151 344 -157 q 285 -140 322 -146 q 261 -129 272 -137 q 250 -100 250 -121 q 251 -87 250 -94 q 254 -74 253 -81 l 282 28 z "},"Ŝ":{"ha":703,"x_min":22,"x_max":661,"o":"m 288 -18 q 96 19 169 -18 q 22 117 22 57 q 29 182 22 163 q 53 201 36 201 q 88 185 64 201 q 145 147 111 168 q 222 110 179 126 q 314 93 264 93 q 431 124 386 93 q 476 221 476 156 q 447 315 476 283 q 360 385 418 347 l 272 440 q 186 503 225 471 q 124 580 147 535 q 100 694 100 625 q 144 842 100 781 q 267 935 189 903 q 444 967 344 967 q 583 955 538 967 q 644 922 629 943 q 658 874 658 901 q 647 815 658 835 q 624 794 636 794 q 599 801 613 794 q 560 819 585 808 q 498 842 540 829 q 410 856 456 856 q 309 825 350 856 q 268 733 268 794 q 299 644 268 676 q 381 586 329 611 l 457 550 q 558 494 511 525 q 633 416 604 464 q 661 289 661 368 q 560 62 661 142 q 288 -18 458 -18 m 214 1057 l 214 1057 q 207 1040 204 1047 q 224 1031 210 1032 l 275 1025 q 293 1026 286 1024 q 306 1035 300 1029 l 424 1156 l 521 1036 q 536 1023 528 1029 q 568 1018 544 1017 l 621 1021 q 637 1030 632 1022 q 635 1047 642 1038 l 531 1206 q 496 1242 513 1233 q 447 1250 479 1250 q 400 1242 417 1250 q 371 1221 383 1233 l 214 1057 z "},"Ș":{"ha":703,"x_min":22,"x_max":661,"o":"m 288 -18 q 96 19 169 -18 q 22 117 22 57 q 29 182 22 163 q 53 201 36 201 q 88 185 64 201 q 145 147 111 168 q 222 110 179 126 q 314 93 264 93 q 431 124 386 93 q 476 221 476 156 q 447 315 476 283 q 360 385 418 347 l 272 440 q 186 503 225 471 q 124 580 147 535 q 100 694 100 625 q 144 842 100 781 q 267 935 189 903 q 444 967 344 967 q 583 955 538 967 q 644 922 629 943 q 658 874 658 901 q 647 815 658 835 q 624 794 636 794 q 599 801 613 794 q 560 819 585 808 q 498 842 540 829 q 410 856 456 856 q 309 825 350 856 q 268 733 268 794 q 299 644 268 676 q 381 586 329 611 l 457 550 q 558 494 511 525 q 633 416 604 464 q 661 289 661 368 q 560 62 661 142 q 288 -18 458 -18 m 161 -272 q 169 -260 161 -262 q 196 -254 178 -257 q 267 -231 240 -247 q 300 -167 294 -214 l 304 -201 q 241 -179 265 -201 q 217 -125 217 -157 q 238 -63 217 -83 q 296 -43 260 -43 q 362 -72 338 -43 q 386 -150 386 -101 q 360 -240 386 -204 q 298 -292 335 -275 q 226 -310 261 -310 q 176 -298 192 -310 q 161 -272 161 -286 z "},"ẞ":{"ha":1406,"x_min":22,"x_max":1364,"o":"m 288 -18 q 96 19 169 -18 q 22 117 22 57 q 29 182 22 163 q 53 201 36 201 q 88 185 64 201 q 145 147 111 168 q 222 110 179 126 q 314 93 264 93 q 431 124 386 93 q 476 221 476 156 q 447 315 476 283 q 360 385 418 347 l 272 440 q 186 503 225 471 q 124 580 147 535 q 100 694 100 625 q 144 842 100 781 q 267 935 189 903 q 444 967 344 967 q 583 955 538 967 q 644 922 629 943 q 658 874 658 901 q 647 815 658 835 q 624 794 636 794 q 599 801 613 794 q 560 819 585 808 q 498 842 540 829 q 410 856 456 856 q 309 825 350 856 q 268 733 268 794 q 299 644 268 676 q 381 586 329 611 l 457 550 q 558 494 511 525 q 633 416 604 464 q 661 289 661 368 q 560 62 661 142 q 288 -18 458 -18 m 990 -18 q 799 19 872 -18 q 725 117 725 57 q 732 182 725 163 q 756 201 739 201 q 790 185 767 201 q 848 147 814 168 q 924 110 882 126 q 1017 93 967 93 q 1134 124 1089 93 q 1179 221 1179 156 q 1150 315 1179 283 q 1063 385 1121 347 l 975 440 q 889 503 928 471 q 826 580 850 535 q 803 694 803 625 q 847 842 803 781 q 969 935 892 903 q 1147 967 1047 967 q 1286 955 1240 967 q 1347 922 1332 943 q 1361 874 1361 901 q 1350 815 1361 835 q 1326 794 1339 794 q 1301 801 1315 794 q 1263 819 1288 808 q 1201 842 1243 829 q 1113 856 1158 856 q 1012 825 1053 856 q 971 733 971 794 q 1001 644 971 676 q 1083 586 1032 611 l 1160 550 q 1260 494 1214 525 q 1335 416 1307 464 q 1364 289 1364 368 q 1263 62 1364 142 q 990 -18 1161 -18 z "},"T":{"ha":710,"x_min":64,"x_max":758,"o":"m 288 -11 q 256 20 265 -11 q 246 89 246 51 q 251 173 246 126 q 265 300 256 219 l 325 828 l 139 788 q 110 783 122 785 q 93 781 99 781 q 71 790 78 781 q 65 814 64 800 q 76 878 67 849 q 99 926 85 907 q 129 944 113 944 l 428 944 q 595 949 535 944 q 685 956 656 953 q 731 960 715 960 q 750 954 744 960 q 757 932 756 949 q 749 874 758 904 q 726 822 740 843 q 696 800 711 800 q 667 803 686 800 q 622 810 647 807 l 490 828 l 399 -11 l 288 -11 z "},"Ŧ":{"ha":710,"x_min":64,"x_max":758,"o":"m 125 418 q 100 438 100 418 q 110 477 100 457 q 136 510 121 497 q 165 524 151 524 l 615 522 q 636 519 632 522 q 640 504 640 515 q 632 477 640 499 q 609 437 624 456 q 575 418 594 418 l 125 418 m 288 -11 q 256 20 265 -11 q 246 89 246 51 q 251 173 246 126 q 265 300 256 219 l 325 828 l 139 788 q 110 783 122 785 q 93 781 99 781 q 71 790 78 781 q 65 814 64 800 q 76 878 67 849 q 99 926 85 907 q 129 944 113 944 l 428 944 q 595 949 535 944 q 685 956 656 953 q 731 960 715 960 q 750 954 744 960 q 757 932 756 949 q 749 874 758 904 q 726 822 740 843 q 696 800 711 800 q 667 803 686 800 q 622 810 647 807 l 490 828 l 399 -11 l 288 -11 z "},"Ť":{"ha":710,"x_min":64,"x_max":758,"o":"m 288 -11 q 256 20 265 -11 q 246 89 246 51 q 251 173 246 126 q 265 300 256 219 l 325 828 l 139 788 q 110 783 122 785 q 93 781 99 781 q 71 790 78 781 q 65 814 64 800 q 76 878 67 849 q 99 926 85 907 q 129 944 113 944 l 428 944 q 595 949 535 944 q 685 956 656 953 q 731 960 715 960 q 750 954 744 960 q 757 932 756 949 q 749 874 758 904 q 726 822 740 843 q 696 800 711 800 q 667 803 686 800 q 622 810 647 807 l 490 828 l 399 -11 l 288 -11 m 654 1211 l 654 1211 q 661 1229 664 1222 q 644 1238 658 1236 l 593 1243 q 576 1242 582 1244 q 563 1233 569 1240 l 444 1113 l 347 1232 q 333 1245 342 1239 q 300 1250 324 1251 l 247 1247 q 232 1239 236 1246 q 233 1221 228 1232 l 338 1063 q 372 1027 356 1036 q 421 1018 389 1018 q 469 1026 453 1018 q 497 1047 485 1035 l 654 1211 z "},"Ţ":{"ha":710,"x_min":64,"x_max":758,"o":"m 288 -11 q 256 20 265 -11 q 246 89 246 51 q 251 173 246 126 q 265 300 256 219 l 325 828 l 139 788 q 110 783 122 785 q 93 781 99 781 q 71 790 78 781 q 65 814 64 800 q 76 878 67 849 q 99 926 85 907 q 129 944 113 944 l 428 944 q 595 949 535 944 q 685 956 656 953 q 731 960 715 960 q 750 954 744 960 q 757 932 756 949 q 749 874 758 904 q 726 822 740 843 q 696 800 711 800 q 667 803 686 800 q 622 810 647 807 l 490 828 l 399 -11 l 288 -11 m 317 28 q 324 42 319 36 q 338 49 329 47 l 364 54 q 381 51 375 57 q 383 33 386 46 l 346 -115 l 331 -61 q 450 -86 400 -61 q 500 -165 500 -111 q 478 -231 500 -204 q 421 -274 457 -258 q 342 -297 385 -290 q 257 -306 299 -304 q 232 -300 239 -306 q 225 -285 225 -294 q 235 -253 225 -265 q 263 -239 244 -240 q 343 -220 307 -233 q 379 -174 379 -207 q 368 -151 379 -157 q 319 -140 357 -146 q 296 -129 307 -137 q 285 -100 285 -121 q 286 -87 285 -94 q 289 -74 288 -81 l 317 28 z "},"Ț":{"ha":710,"x_min":64,"x_max":758,"o":"m 288 -11 q 256 20 265 -11 q 246 89 246 51 q 251 173 246 126 q 265 300 256 219 l 325 828 l 139 788 q 110 783 122 785 q 93 781 99 781 q 71 790 78 781 q 65 814 64 800 q 76 878 67 849 q 99 926 85 907 q 129 944 113 944 l 428 944 q 595 949 535 944 q 685 956 656 953 q 731 960 715 960 q 750 954 744 960 q 757 932 756 949 q 749 874 758 904 q 726 822 740 843 q 696 800 711 800 q 667 803 686 800 q 622 810 647 807 l 490 828 l 399 -11 l 288 -11 m 196 -272 q 204 -260 196 -262 q 231 -254 213 -257 q 302 -231 275 -247 q 335 -167 329 -214 l 339 -201 q 276 -179 300 -201 q 251 -125 251 -157 q 273 -63 251 -83 q 331 -43 294 -43 q 397 -72 372 -43 q 421 -150 421 -101 q 395 -240 421 -204 q 333 -292 369 -275 q 261 -310 296 -310 q 211 -298 226 -310 q 196 -272 196 -286 z "},"U":{"ha":914,"x_min":82,"x_max":893,"o":"m 440 -22 q 224 9 306 -22 q 113 114 143 40 q 94 314 82 188 l 163 965 l 274 965 q 312 952 301 965 q 322 901 322 939 q 319 835 322 868 q 310 757 315 801 q 297 647 304 713 l 267 364 q 298 156 251 222 q 474 89 344 89 q 583 113 533 89 q 665 187 632 136 q 706 319 697 238 l 735 589 q 742 718 743 667 q 733 803 740 769 q 721 860 726 838 q 715 901 715 883 q 737 933 715 918 q 788 956 758 947 q 839 964 817 964 q 872 951 860 964 q 888 918 883 938 q 893 881 893 899 q 889 815 893 857 q 879 728 885 772 l 836 331 q 773 111 821 188 q 642 6 725 35 q 440 -22 560 -22 z "},"Ú":{"ha":914,"x_min":82,"x_max":893,"o":"m 440 -22 q 224 9 306 -22 q 113 114 143 40 q 94 314 82 188 l 163 965 l 274 965 q 312 952 301 965 q 322 901 322 939 q 319 835 322 868 q 310 757 315 801 q 297 647 304 713 l 267 364 q 298 156 251 222 q 474 89 344 89 q 583 113 533 89 q 665 187 632 136 q 706 319 697 238 l 735 589 q 742 718 743 667 q 733 803 740 769 q 721 860 726 838 q 715 901 715 883 q 737 933 715 918 q 788 956 758 947 q 839 964 817 964 q 872 951 860 964 q 888 918 883 938 q 893 881 893 899 q 889 815 893 857 q 879 728 885 772 l 836 331 q 773 111 821 188 q 642 6 725 35 q 440 -22 560 -22 m 368 1050 q 357 1032 357 1042 q 369 1016 357 1022 q 393 1010 381 1010 q 408 1010 400 1010 q 424 1015 415 1011 l 678 1136 q 697 1149 692 1143 q 701 1167 701 1156 q 690 1209 701 1190 q 661 1240 678 1228 q 626 1251 644 1251 q 592 1239 607 1251 l 368 1050 z "},"Ŭ":{"ha":914,"x_min":82,"x_max":893,"o":"m 440 -22 q 224 9 306 -22 q 113 114 143 40 q 94 314 82 188 l 163 965 l 274 965 q 312 952 301 965 q 322 901 322 939 q 319 835 322 868 q 310 757 315 801 q 297 647 304 713 l 267 364 q 298 156 251 222 q 474 89 344 89 q 583 113 533 89 q 665 187 632 136 q 706 319 697 238 l 735 589 q 742 718 743 667 q 733 803 740 769 q 721 860 726 838 q 715 901 715 883 q 737 933 715 918 q 788 956 758 947 q 839 964 817 964 q 872 951 860 964 q 888 918 883 938 q 893 881 893 899 q 889 815 893 857 q 879 728 885 772 l 836 331 q 773 111 821 188 q 642 6 725 35 q 440 -22 560 -22 m 535 1025 q 389 1076 435 1025 q 343 1200 343 1128 q 353 1233 343 1222 q 378 1240 363 1243 l 440 1233 q 458 1226 453 1232 q 463 1210 463 1221 q 479 1124 463 1156 q 539 1093 496 1093 q 601 1123 582 1093 q 631 1200 621 1153 q 647 1234 638 1226 q 675 1239 656 1242 l 731 1233 q 747 1228 740 1232 q 754 1211 754 1224 q 731 1131 754 1175 q 658 1056 707 1088 q 535 1025 610 1025 z "},"Û":{"ha":914,"x_min":82,"x_max":893,"o":"m 440 -22 q 224 9 306 -22 q 113 114 143 40 q 94 314 82 188 l 163 965 l 274 965 q 312 952 301 965 q 322 901 322 939 q 319 835 322 868 q 310 757 315 801 q 297 647 304 713 l 267 364 q 298 156 251 222 q 474 89 344 89 q 583 113 533 89 q 665 187 632 136 q 706 319 697 238 l 735 589 q 742 718 743 667 q 733 803 740 769 q 721 860 726 838 q 715 901 715 883 q 737 933 715 918 q 788 956 758 947 q 839 964 817 964 q 872 951 860 964 q 888 918 883 938 q 893 881 893 899 q 889 815 893 857 q 879 728 885 772 l 836 331 q 773 111 821 188 q 642 6 725 35 q 440 -22 560 -22 m 326 1057 l 326 1057 q 319 1040 317 1047 q 336 1031 322 1032 l 388 1025 q 406 1026 399 1024 q 418 1035 413 1029 l 536 1156 l 633 1036 q 649 1023 640 1029 q 681 1018 657 1017 l 733 1021 q 749 1030 744 1022 q 747 1047 754 1038 l 643 1206 q 608 1242 625 1233 q 560 1250 592 1250 q 513 1242 529 1250 q 483 1221 496 1233 l 326 1057 z "},"Ȕ":{"ha":914,"x_min":82,"x_max":893,"o":"m 440 -22 q 224 9 306 -22 q 113 114 143 40 q 94 314 82 188 l 163 965 l 274 965 q 312 952 301 965 q 322 901 322 939 q 319 835 322 868 q 310 757 315 801 q 297 647 304 713 l 267 364 q 298 156 251 222 q 474 89 344 89 q 583 113 533 89 q 665 187 632 136 q 706 319 697 238 l 735 589 q 742 718 743 667 q 733 803 740 769 q 721 860 726 838 q 715 901 715 883 q 737 933 715 918 q 788 956 758 947 q 839 964 817 964 q 872 951 860 964 q 888 918 883 938 q 893 881 893 899 q 889 815 893 857 q 879 728 885 772 l 836 331 q 773 111 821 188 q 642 6 725 35 q 440 -22 560 -22 m 775 1054 l 650 1240 q 635 1250 644 1247 q 615 1253 626 1253 q 581 1241 599 1253 q 552 1210 564 1229 q 540 1168 540 1192 q 546 1152 540 1157 q 564 1138 551 1147 l 719 1017 q 735 1011 726 1011 q 750 1011 744 1011 q 774 1017 763 1011 q 786 1033 786 1024 q 783 1043 786 1038 q 775 1054 779 1049 m 590 1050 l 410 1239 q 375 1251 399 1251 q 341 1240 358 1251 q 312 1209 324 1228 q 300 1167 300 1190 q 305 1149 300 1156 q 324 1136 310 1143 l 535 1015 q 551 1010 543 1011 q 565 1010 560 1010 q 590 1016 578 1010 q 601 1032 601 1022 q 598 1040 601 1036 q 590 1050 594 1044 z "},"Ü":{"ha":914,"x_min":82,"x_max":893,"o":"m 440 -22 q 224 9 306 -22 q 113 114 143 40 q 94 314 82 188 l 163 965 l 274 965 q 312 952 301 965 q 322 901 322 939 q 319 835 322 868 q 310 757 315 801 q 297 647 304 713 l 267 364 q 298 156 251 222 q 474 89 344 89 q 583 113 533 89 q 665 187 632 136 q 706 319 697 238 l 735 589 q 742 718 743 667 q 733 803 740 769 q 721 860 726 838 q 715 901 715 883 q 737 933 715 918 q 788 956 758 947 q 839 964 817 964 q 872 951 860 964 q 888 918 883 938 q 893 881 893 899 q 889 815 893 857 q 879 728 885 772 l 836 331 q 773 111 821 188 q 642 6 725 35 q 440 -22 560 -22 m 650 1061 q 594 1083 618 1061 q 571 1140 571 1104 q 599 1206 571 1182 q 663 1231 626 1231 q 717 1210 694 1231 q 740 1151 740 1190 q 714 1087 740 1113 q 650 1061 688 1061 m 426 1061 q 371 1083 394 1061 q 347 1140 347 1104 q 375 1206 347 1182 q 439 1231 403 1231 q 494 1210 471 1231 q 517 1151 517 1190 q 490 1087 517 1113 q 426 1061 464 1061 z "},"Ù":{"ha":914,"x_min":82,"x_max":893,"o":"m 440 -22 q 224 9 306 -22 q 113 114 143 40 q 94 314 82 188 l 163 965 l 274 965 q 312 952 301 965 q 322 901 322 939 q 319 835 322 868 q 310 757 315 801 q 297 647 304 713 l 267 364 q 298 156 251 222 q 474 89 344 89 q 583 113 533 89 q 665 187 632 136 q 706 319 697 238 l 735 589 q 742 718 743 667 q 733 803 740 769 q 721 860 726 838 q 715 901 715 883 q 737 933 715 918 q 788 956 758 947 q 839 964 817 964 q 872 951 860 964 q 888 918 883 938 q 893 881 893 899 q 889 815 893 857 q 879 728 885 772 l 836 331 q 773 111 821 188 q 642 6 725 35 q 440 -22 560 -22 m 689 1050 l 508 1239 q 493 1249 503 1246 q 472 1251 483 1251 q 438 1240 456 1251 q 409 1209 421 1228 q 397 1167 397 1190 q 402 1149 397 1156 q 421 1136 407 1143 l 633 1015 q 650 1010 642 1011 q 664 1010 658 1010 q 688 1016 676 1010 q 700 1032 700 1022 q 697 1040 700 1036 q 689 1050 693 1044 z "},"Ű":{"ha":914,"x_min":82,"x_max":893,"o":"m 440 -22 q 224 9 306 -22 q 113 114 143 40 q 94 314 82 188 l 163 965 l 274 965 q 312 952 301 965 q 322 901 322 939 q 319 835 322 868 q 310 757 315 801 q 297 647 304 713 l 267 364 q 298 156 251 222 q 474 89 344 89 q 583 113 533 89 q 665 187 632 136 q 706 319 697 238 l 735 589 q 742 718 743 667 q 733 803 740 769 q 721 860 726 838 q 715 901 715 883 q 737 933 715 918 q 788 956 758 947 q 839 964 817 964 q 872 951 860 964 q 888 918 883 938 q 893 881 893 899 q 889 815 893 857 q 879 728 885 772 l 836 331 q 773 111 821 188 q 642 6 725 35 q 440 -22 560 -22 m 339 1050 q 331 1040 335 1044 q 328 1032 328 1036 q 340 1016 328 1022 q 364 1010 351 1010 q 384 1014 371 1010 q 440 1046 397 1018 l 568 1129 q 592 1147 582 1138 q 603 1167 603 1156 q 591 1209 603 1190 q 562 1240 579 1228 q 526 1251 544 1251 q 492 1239 503 1251 l 339 1050 m 576 1050 q 569 1040 572 1044 q 565 1032 565 1036 q 577 1016 565 1022 q 601 1010 589 1010 q 614 1013 606 1010 q 647 1029 622 1015 q 721 1075 671 1043 l 804 1129 q 828 1147 818 1138 q 839 1167 839 1156 q 827 1209 839 1190 q 799 1240 815 1228 q 764 1251 782 1251 q 729 1239 740 1251 l 576 1050 z "},"Ȗ":{"ha":914,"x_min":82,"x_max":893,"o":"m 440 -22 q 224 9 306 -22 q 113 114 143 40 q 94 314 82 188 l 163 965 l 274 965 q 312 952 301 965 q 322 901 322 939 q 319 835 322 868 q 310 757 315 801 q 297 647 304 713 l 267 364 q 298 156 251 222 q 474 89 344 89 q 583 113 533 89 q 665 187 632 136 q 706 319 697 238 l 735 589 q 742 718 743 667 q 733 803 740 769 q 721 860 726 838 q 715 901 715 883 q 737 933 715 918 q 788 956 758 947 q 839 964 817 964 q 872 951 860 964 q 888 918 883 938 q 893 881 893 899 q 889 815 893 857 q 879 728 885 772 l 836 331 q 773 111 821 188 q 642 6 725 35 q 440 -22 560 -22 m 571 1240 q 717 1190 671 1240 q 763 1065 763 1139 q 753 1033 763 1043 q 728 1025 743 1024 l 665 1032 q 648 1040 653 1033 q 643 1056 643 1046 q 627 1141 643 1110 q 567 1172 611 1172 q 505 1142 524 1172 q 475 1065 486 1113 q 460 1032 469 1039 q 431 1026 450 1025 l 375 1032 q 358 1038 365 1033 q 351 1054 351 1042 q 375 1135 351 1092 q 448 1209 399 1178 q 571 1240 497 1240 z "},"Ū":{"ha":914,"x_min":82,"x_max":893,"o":"m 440 -22 q 224 9 306 -22 q 113 114 143 40 q 94 314 82 188 l 163 965 l 274 965 q 312 952 301 965 q 322 901 322 939 q 319 835 322 868 q 310 757 315 801 q 297 647 304 713 l 267 364 q 298 156 251 222 q 474 89 344 89 q 583 113 533 89 q 665 187 632 136 q 706 319 697 238 l 735 589 q 742 718 743 667 q 733 803 740 769 q 721 860 726 838 q 715 901 715 883 q 737 933 715 918 q 788 956 758 947 q 839 964 817 964 q 872 951 860 964 q 888 918 883 938 q 893 881 893 899 q 889 815 893 857 q 879 728 885 772 l 836 331 q 773 111 821 188 q 642 6 725 35 q 440 -22 560 -22 m 356 1147 q 376 1168 358 1168 l 719 1168 q 740 1147 743 1168 l 735 1106 q 714 1085 732 1085 l 371 1085 q 350 1106 347 1085 l 356 1147 z "},"Ų":{"ha":914,"x_min":82,"x_max":893,"o":"m 440 -22 q 224 9 306 -22 q 113 114 143 40 q 94 314 82 188 l 163 965 l 274 965 q 312 952 301 965 q 322 901 322 939 q 319 835 322 868 q 310 757 315 801 q 297 647 304 713 l 267 364 q 298 156 251 222 q 474 89 344 89 q 583 113 533 89 q 665 187 632 136 q 706 319 697 238 l 735 589 q 742 718 743 667 q 733 803 740 769 q 721 860 726 838 q 715 901 715 883 q 737 933 715 918 q 788 956 758 947 q 839 964 817 964 q 872 951 860 964 q 888 918 883 938 q 893 881 893 899 q 889 815 893 857 q 879 728 885 772 l 836 331 q 773 111 821 188 q 642 6 725 35 q 440 -22 560 -22 m 293 -149 q 332 -57 293 -97 q 431 7 371 -17 q 550 31 490 31 q 571 27 563 31 q 579 18 579 24 q 575 11 579 15 q 556 1 571 7 q 474 -51 500 -17 q 447 -112 447 -85 q 465 -158 447 -143 q 510 -176 483 -172 q 568 -181 538 -181 q 583 -184 576 -181 q 590 -194 590 -187 q 574 -233 590 -208 q 525 -278 557 -260 q 457 -296 493 -296 q 378 -280 417 -296 q 317 -231 340 -264 q 293 -149 293 -199 z "},"Ů":{"ha":914,"x_min":82,"x_max":893,"o":"m 440 -22 q 224 9 306 -22 q 113 114 143 40 q 94 314 82 188 l 163 965 l 274 965 q 312 952 301 965 q 322 901 322 939 q 319 835 322 868 q 310 757 315 801 q 297 647 304 713 l 267 364 q 298 156 251 222 q 474 89 344 89 q 583 113 533 89 q 665 187 632 136 q 706 319 697 238 l 735 589 q 742 718 743 667 q 733 803 740 769 q 721 860 726 838 q 715 901 715 883 q 737 933 715 918 q 788 956 758 947 q 839 964 817 964 q 872 951 860 964 q 888 918 883 938 q 893 881 893 899 q 889 815 893 857 q 879 728 885 772 l 836 331 q 773 111 821 188 q 642 6 725 35 q 440 -22 560 -22 m 542 1015 q 444 1051 481 1015 q 408 1136 408 1086 q 447 1228 408 1189 q 550 1267 486 1267 q 645 1231 610 1267 q 681 1147 681 1196 q 642 1054 681 1093 q 542 1015 603 1015 m 543 1079 q 585 1097 568 1079 q 603 1144 603 1115 q 588 1188 603 1174 q 549 1203 572 1203 q 504 1187 522 1203 q 486 1139 486 1171 q 503 1096 486 1113 q 543 1079 519 1079 z "},"V":{"ha":913,"x_min":58,"x_max":963,"o":"m 358 -19 q 337 -12 347 -19 q 322 21 326 -6 q 281 242 307 128 q 226 469 256 356 q 167 685 196 582 q 135 779 149 750 q 106 829 121 808 q 74 864 90 850 q 58 890 58 878 q 78 917 58 904 q 127 940 99 929 q 184 956 156 950 q 229 961 213 961 q 272 938 253 961 q 309 859 290 914 q 349 708 328 804 l 475 129 l 418 113 l 694 682 q 724 749 714 722 q 738 798 733 775 q 746 849 743 821 q 772 896 749 875 q 826 932 796 917 q 885 956 857 947 q 925 964 913 964 q 963 940 963 964 q 951 904 963 925 l 529 72 q 497 31 519 53 q 440 -5 474 10 q 358 -19 406 -19 z "},"W":{"ha":1167,"x_min":58,"x_max":1217,"o":"m 692 -19 q 670 -12 681 -19 q 656 21 660 -6 l 589 581 l 571 682 q 550 783 560 750 q 529 838 540 817 q 512 872 518 858 q 506 897 506 885 q 520 923 506 911 q 556 943 535 935 q 601 956 578 951 q 640 961 624 961 q 700 903 676 961 q 739 708 724 844 l 806 129 l 758 113 l 976 682 q 997 750 993 724 q 1001 799 1001 776 q 1004 849 1001 821 q 1030 896 1007 875 q 1083 932 1053 917 q 1140 956 1113 947 q 1179 964 1167 964 q 1217 940 1217 964 q 1214 924 1217 933 q 1206 904 1211 915 l 856 72 q 826 31 847 53 q 772 -5 806 10 q 692 -19 739 -19 m 242 -19 q 220 -12 231 -19 q 206 21 210 -6 l 136 617 q 120 731 128 692 q 104 791 113 771 q 88 826 96 811 q 67 862 76 849 q 58 888 58 875 q 74 915 58 901 q 113 938 89 928 q 161 955 136 949 q 204 961 186 961 q 244 938 225 961 q 278 860 263 915 q 301 708 293 806 l 357 129 l 303 113 l 601 775 l 617 560 l 408 65 q 353 8 396 35 q 242 -19 311 -19 z "},"Ẃ":{"ha":1167,"x_min":58,"x_max":1217,"o":"m 692 -19 q 670 -12 681 -19 q 656 21 660 -6 l 589 581 l 571 682 q 550 783 560 750 q 529 838 540 817 q 512 872 518 858 q 506 897 506 885 q 520 923 506 911 q 556 943 535 935 q 601 956 578 951 q 640 961 624 961 q 700 903 676 961 q 739 708 724 844 l 806 129 l 758 113 l 976 682 q 997 750 993 724 q 1001 799 1001 776 q 1004 849 1001 821 q 1030 896 1007 875 q 1083 932 1053 917 q 1140 956 1113 947 q 1179 964 1167 964 q 1217 940 1217 964 q 1214 924 1217 933 q 1206 904 1211 915 l 856 72 q 826 31 847 53 q 772 -5 806 10 q 692 -19 739 -19 m 242 -19 q 220 -12 231 -19 q 206 21 210 -6 l 136 617 q 120 731 128 692 q 104 791 113 771 q 88 826 96 811 q 67 862 76 849 q 58 888 58 875 q 74 915 58 901 q 113 938 89 928 q 161 955 136 949 q 204 961 186 961 q 244 938 225 961 q 278 860 263 915 q 301 708 293 806 l 357 129 l 303 113 l 601 775 l 617 560 l 408 65 q 353 8 396 35 q 242 -19 311 -19 m 488 1050 q 476 1032 476 1042 q 488 1016 476 1022 q 513 1010 500 1010 q 527 1010 519 1010 q 543 1015 535 1011 l 797 1136 q 816 1149 811 1143 q 821 1167 821 1156 q 809 1209 821 1190 q 781 1240 797 1228 q 746 1251 764 1251 q 711 1239 726 1251 l 488 1050 z "},"Ŵ":{"ha":1167,"x_min":58,"x_max":1217,"o":"m 692 -19 q 670 -12 681 -19 q 656 21 660 -6 l 589 581 l 571 682 q 550 783 560 750 q 529 838 540 817 q 512 872 518 858 q 506 897 506 885 q 520 923 506 911 q 556 943 535 935 q 601 956 578 951 q 640 961 624 961 q 700 903 676 961 q 739 708 724 844 l 806 129 l 758 113 l 976 682 q 997 750 993 724 q 1001 799 1001 776 q 1004 849 1001 821 q 1030 896 1007 875 q 1083 932 1053 917 q 1140 956 1113 947 q 1179 964 1167 964 q 1217 940 1217 964 q 1214 924 1217 933 q 1206 904 1211 915 l 856 72 q 826 31 847 53 q 772 -5 806 10 q 692 -19 739 -19 m 242 -19 q 220 -12 231 -19 q 206 21 210 -6 l 136 617 q 120 731 128 692 q 104 791 113 771 q 88 826 96 811 q 67 862 76 849 q 58 888 58 875 q 74 915 58 901 q 113 938 89 928 q 161 955 136 949 q 204 961 186 961 q 244 938 225 961 q 278 860 263 915 q 301 708 293 806 l 357 129 l 303 113 l 601 775 l 617 560 l 408 65 q 353 8 396 35 q 242 -19 311 -19 m 446 1057 l 446 1057 q 439 1040 436 1047 q 456 1031 442 1032 l 507 1025 q 525 1026 518 1024 q 538 1035 532 1029 l 656 1156 l 753 1036 q 768 1023 760 1029 q 800 1018 776 1017 l 853 1021 q 869 1030 864 1022 q 867 1047 874 1038 l 763 1206 q 728 1242 744 1233 q 679 1250 711 1250 q 632 1242 649 1250 q 603 1221 615 1233 l 446 1057 z "},"Ẅ":{"ha":1167,"x_min":58,"x_max":1217,"o":"m 692 -19 q 670 -12 681 -19 q 656 21 660 -6 l 589 581 l 571 682 q 550 783 560 750 q 529 838 540 817 q 512 872 518 858 q 506 897 506 885 q 520 923 506 911 q 556 943 535 935 q 601 956 578 951 q 640 961 624 961 q 700 903 676 961 q 739 708 724 844 l 806 129 l 758 113 l 976 682 q 997 750 993 724 q 1001 799 1001 776 q 1004 849 1001 821 q 1030 896 1007 875 q 1083 932 1053 917 q 1140 956 1113 947 q 1179 964 1167 964 q 1217 940 1217 964 q 1214 924 1217 933 q 1206 904 1211 915 l 856 72 q 826 31 847 53 q 772 -5 806 10 q 692 -19 739 -19 m 242 -19 q 220 -12 231 -19 q 206 21 210 -6 l 136 617 q 120 731 128 692 q 104 791 113 771 q 88 826 96 811 q 67 862 76 849 q 58 888 58 875 q 74 915 58 901 q 113 938 89 928 q 161 955 136 949 q 204 961 186 961 q 244 938 225 961 q 278 860 263 915 q 301 708 293 806 l 357 129 l 303 113 l 601 775 l 617 560 l 408 65 q 353 8 396 35 q 242 -19 311 -19 m 769 1061 q 714 1083 738 1061 q 690 1140 690 1104 q 718 1206 690 1182 q 782 1231 746 1231 q 837 1210 814 1231 q 860 1151 860 1190 q 833 1087 860 1113 q 769 1061 807 1061 m 546 1061 q 490 1083 514 1061 q 467 1140 467 1104 q 494 1206 467 1182 q 558 1231 522 1231 q 613 1210 590 1231 q 636 1151 636 1190 q 610 1087 636 1113 q 546 1061 583 1061 z "},"Ẁ":{"ha":1167,"x_min":58,"x_max":1217,"o":"m 692 -19 q 670 -12 681 -19 q 656 21 660 -6 l 589 581 l 571 682 q 550 783 560 750 q 529 838 540 817 q 512 872 518 858 q 506 897 506 885 q 520 923 506 911 q 556 943 535 935 q 601 956 578 951 q 640 961 624 961 q 700 903 676 961 q 739 708 724 844 l 806 129 l 758 113 l 976 682 q 997 750 993 724 q 1001 799 1001 776 q 1004 849 1001 821 q 1030 896 1007 875 q 1083 932 1053 917 q 1140 956 1113 947 q 1179 964 1167 964 q 1217 940 1217 964 q 1214 924 1217 933 q 1206 904 1211 915 l 856 72 q 826 31 847 53 q 772 -5 806 10 q 692 -19 739 -19 m 242 -19 q 220 -12 231 -19 q 206 21 210 -6 l 136 617 q 120 731 128 692 q 104 791 113 771 q 88 826 96 811 q 67 862 76 849 q 58 888 58 875 q 74 915 58 901 q 113 938 89 928 q 161 955 136 949 q 204 961 186 961 q 244 938 225 961 q 278 860 263 915 q 301 708 293 806 l 357 129 l 303 113 l 601 775 l 617 560 l 408 65 q 353 8 396 35 q 242 -19 311 -19 m 808 1050 l 628 1239 q 613 1249 622 1246 q 592 1251 603 1251 q 558 1240 575 1251 q 528 1209 540 1228 q 517 1167 517 1190 q 522 1149 517 1156 q 540 1136 526 1143 l 753 1015 q 769 1010 761 1011 q 783 1010 778 1010 q 808 1016 796 1010 q 819 1032 819 1022 q 816 1040 819 1036 q 808 1050 813 1044 z "},"X":{"ha":878,"x_min":-15,"x_max":910,"o":"m 83 -18 q 9 20 33 -18 q -15 115 -15 58 q -7 156 -15 139 q 22 172 1 172 q 65 165 43 172 q 118 158 88 158 q 158 176 132 158 q 219 233 183 193 q 301 339 256 274 q 400 500 346 404 l 424 521 q 541 722 488 638 q 643 859 594 806 q 741 938 692 913 q 844 964 790 964 q 894 945 878 964 q 910 897 910 926 q 898 831 910 861 q 869 781 886 800 q 836 763 851 763 q 808 768 822 763 q 769 774 794 774 q 665 694 740 774 q 500 446 590 615 l 472 425 q 392 265 433 344 q 303 122 350 186 q 202 20 256 58 q 83 -18 149 -18 m 694 -11 q 614 26 650 -11 q 535 148 578 63 q 428 378 493 233 l 406 425 q 242 729 308 626 q 113 851 175 832 q 83 864 92 858 q 74 883 74 869 q 102 926 74 907 q 167 956 131 944 q 228 967 204 967 q 287 951 258 967 q 347 893 315 935 q 415 776 378 851 q 499 582 451 700 l 515 549 q 603 378 564 450 q 676 258 643 307 q 736 179 710 210 q 782 132 763 149 q 810 110 796 121 q 833 88 824 99 q 843 68 843 78 q 827 42 843 56 q 787 17 811 29 q 738 -3 763 4 q 694 -11 713 -11 z "},"Y":{"ha":803,"x_min":60,"x_max":853,"o":"m 343 363 l 218 660 q 167 769 190 726 q 117 833 144 811 q 71 874 82 861 q 60 900 60 886 q 83 927 60 913 q 138 953 107 942 q 189 964 168 964 q 284 917 246 964 q 350 792 322 871 l 453 503 l 411 472 l 550 686 q 598 788 589 744 q 610 860 607 831 q 640 903 613 885 q 706 936 668 922 q 777 957 743 950 q 828 964 811 964 q 853 942 853 964 q 842 907 853 928 q 811 860 831 886 l 461 363 l 343 363 m 336 -11 q 301 11 311 -11 q 292 71 292 33 q 296 133 292 99 l 333 471 l 499 446 l 449 -11 l 336 -11 z "},"Ý":{"ha":803,"x_min":60,"x_max":853,"o":"m 343 363 l 218 660 q 167 769 190 726 q 117 833 144 811 q 71 874 82 861 q 60 900 60 886 q 83 927 60 913 q 138 953 107 942 q 189 964 168 964 q 284 917 246 964 q 350 792 322 871 l 453 503 l 411 472 l 550 686 q 598 788 589 744 q 610 860 607 831 q 640 903 613 885 q 706 936 668 922 q 777 957 743 950 q 828 964 811 964 q 853 942 853 964 q 842 907 853 928 q 811 860 831 886 l 461 363 l 343 363 m 336 -11 q 301 11 311 -11 q 292 71 292 33 q 296 133 292 99 l 333 471 l 499 446 l 449 -11 l 336 -11 m 306 1050 q 294 1032 294 1042 q 306 1016 294 1022 q 331 1010 318 1010 q 345 1010 338 1010 q 361 1015 353 1011 l 615 1136 q 634 1149 629 1143 q 639 1167 639 1156 q 627 1209 639 1190 q 599 1240 615 1228 q 564 1251 582 1251 q 529 1239 544 1251 l 306 1050 z "},"Ŷ":{"ha":803,"x_min":60,"x_max":853,"o":"m 343 363 l 218 660 q 167 769 190 726 q 117 833 144 811 q 71 874 82 861 q 60 900 60 886 q 83 927 60 913 q 138 953 107 942 q 189 964 168 964 q 284 917 246 964 q 350 792 322 871 l 453 503 l 411 472 l 550 686 q 598 788 589 744 q 610 860 607 831 q 640 903 613 885 q 706 936 668 922 q 777 957 743 950 q 828 964 811 964 q 853 942 853 964 q 842 907 853 928 q 811 860 831 886 l 461 363 l 343 363 m 336 -11 q 301 11 311 -11 q 292 71 292 33 q 296 133 292 99 l 333 471 l 499 446 l 449 -11 l 336 -11 m 264 1057 l 264 1057 q 257 1040 254 1047 q 274 1031 260 1032 l 325 1025 q 343 1026 336 1024 q 356 1035 350 1029 l 474 1156 l 571 1036 q 586 1023 578 1029 q 618 1018 594 1017 l 671 1021 q 687 1030 682 1022 q 685 1047 692 1038 l 581 1206 q 546 1242 563 1233 q 497 1250 529 1250 q 450 1242 467 1250 q 421 1221 433 1233 l 264 1057 z "},"Ÿ":{"ha":803,"x_min":60,"x_max":853,"o":"m 343 363 l 218 660 q 167 769 190 726 q 117 833 144 811 q 71 874 82 861 q 60 900 60 886 q 83 927 60 913 q 138 953 107 942 q 189 964 168 964 q 284 917 246 964 q 350 792 322 871 l 453 503 l 411 472 l 550 686 q 598 788 589 744 q 610 860 607 831 q 640 903 613 885 q 706 936 668 922 q 777 957 743 950 q 828 964 811 964 q 853 942 853 964 q 842 907 853 928 q 811 860 831 886 l 461 363 l 343 363 m 336 -11 q 301 11 311 -11 q 292 71 292 33 q 296 133 292 99 l 333 471 l 499 446 l 449 -11 l 336 -11 m 588 1061 q 532 1083 556 1061 q 508 1140 508 1104 q 536 1206 508 1182 q 600 1231 564 1231 q 655 1210 632 1231 q 678 1151 678 1190 q 651 1087 678 1113 q 588 1061 625 1061 m 364 1061 q 308 1083 332 1061 q 285 1140 285 1104 q 313 1206 285 1182 q 376 1231 340 1231 q 431 1210 408 1231 q 454 1151 454 1190 q 428 1087 454 1113 q 364 1061 401 1061 z "},"Ỳ":{"ha":803,"x_min":60,"x_max":853,"o":"m 343 363 l 218 660 q 167 769 190 726 q 117 833 144 811 q 71 874 82 861 q 60 900 60 886 q 83 927 60 913 q 138 953 107 942 q 189 964 168 964 q 284 917 246 964 q 350 792 322 871 l 453 503 l 411 472 l 550 686 q 598 788 589 744 q 610 860 607 831 q 640 903 613 885 q 706 936 668 922 q 777 957 743 950 q 828 964 811 964 q 853 942 853 964 q 842 907 853 928 q 811 860 831 886 l 461 363 l 343 363 m 336 -11 q 301 11 311 -11 q 292 71 292 33 q 296 133 292 99 l 333 471 l 499 446 l 449 -11 l 336 -11 m 626 1050 l 446 1239 q 431 1249 440 1246 q 410 1251 421 1251 q 376 1240 393 1251 q 347 1209 358 1228 q 335 1167 335 1190 q 340 1149 335 1156 q 358 1136 344 1143 l 571 1015 q 588 1010 579 1011 q 601 1010 596 1010 q 626 1016 614 1010 q 638 1032 638 1022 q 634 1040 638 1036 q 626 1050 631 1044 z "},"Ȳ":{"ha":803,"x_min":60,"x_max":853,"o":"m 343 363 l 218 660 q 167 769 190 726 q 117 833 144 811 q 71 874 82 861 q 60 900 60 886 q 83 927 60 913 q 138 953 107 942 q 189 964 168 964 q 284 917 246 964 q 350 792 322 871 l 453 503 l 411 472 l 550 686 q 598 788 589 744 q 610 860 607 831 q 640 903 613 885 q 706 936 668 922 q 777 957 743 950 q 828 964 811 964 q 853 942 853 964 q 842 907 853 928 q 811 860 831 886 l 461 363 l 343 363 m 336 -11 q 301 11 311 -11 q 292 71 292 33 q 296 133 292 99 l 333 471 l 499 446 l 449 -11 l 336 -11 m 293 1147 q 314 1168 296 1168 l 657 1168 q 678 1147 681 1168 l 672 1106 q 651 1085 669 1085 l 308 1085 q 288 1106 285 1085 l 293 1147 z "},"Z":{"ha":726,"x_min":10,"x_max":728,"o":"m 53 -8 q 22 23 33 -8 q 11 81 10 54 q 19 115 13 104 q 40 147 25 125 q 250 439 151 311 q 433 676 349 567 q 582 893 517 786 l 589 844 l 207 794 q 151 788 174 790 q 121 786 128 786 q 96 795 103 786 q 89 829 89 804 q 97 877 89 846 q 119 934 104 908 q 156 960 135 960 q 257 952 186 960 q 447 944 328 944 l 694 944 q 724 917 719 944 q 719 855 728 889 q 697 799 711 821 q 529 551 619 675 q 349 303 439 426 q 181 56 258 179 l 103 88 l 593 175 q 651 185 633 182 q 675 189 668 189 q 692 169 692 189 q 685 114 692 143 q 667 59 679 85 q 636 17 654 33 q 596 0 618 0 l 475 0 q 281 -2 357 0 q 151 -6 204 -4 q 53 -8 99 -8 z "},"Ź":{"ha":726,"x_min":10,"x_max":728,"o":"m 53 -8 q 22 23 33 -8 q 11 81 10 54 q 19 115 13 104 q 40 147 25 125 q 250 439 151 311 q 433 676 349 567 q 582 893 517 786 l 589 844 l 207 794 q 151 788 174 790 q 121 786 128 786 q 96 795 103 786 q 89 829 89 804 q 97 877 89 846 q 119 934 104 908 q 156 960 135 960 q 257 952 186 960 q 447 944 328 944 l 694 944 q 724 917 719 944 q 719 855 728 889 q 697 799 711 821 q 529 551 619 675 q 349 303 439 426 q 181 56 258 179 l 103 88 l 593 175 q 651 185 633 182 q 675 189 668 189 q 692 169 692 189 q 685 114 692 143 q 667 59 679 85 q 636 17 654 33 q 596 0 618 0 l 475 0 q 281 -2 357 0 q 151 -6 204 -4 q 53 -8 99 -8 m 247 1050 q 236 1032 236 1042 q 248 1016 236 1022 q 272 1010 260 1010 q 287 1010 279 1010 q 303 1015 294 1011 l 557 1136 q 576 1149 571 1143 q 581 1167 581 1156 q 569 1209 581 1190 q 540 1240 557 1228 q 506 1251 524 1251 q 471 1239 486 1251 l 247 1050 z "},"Ž":{"ha":726,"x_min":10,"x_max":728,"o":"m 53 -8 q 22 23 33 -8 q 11 81 10 54 q 19 115 13 104 q 40 147 25 125 q 250 439 151 311 q 433 676 349 567 q 582 893 517 786 l 589 844 l 207 794 q 151 788 174 790 q 121 786 128 786 q 96 795 103 786 q 89 829 89 804 q 97 877 89 846 q 119 934 104 908 q 156 960 135 960 q 257 952 186 960 q 447 944 328 944 l 694 944 q 724 917 719 944 q 719 855 728 889 q 697 799 711 821 q 529 551 619 675 q 349 303 439 426 q 181 56 258 179 l 103 88 l 593 175 q 651 185 633 182 q 675 189 668 189 q 692 169 692 189 q 685 114 692 143 q 667 59 679 85 q 636 17 654 33 q 596 0 618 0 l 475 0 q 281 -2 357 0 q 151 -6 204 -4 q 53 -8 99 -8 m 639 1211 l 639 1211 q 646 1229 649 1222 q 629 1238 643 1236 l 578 1243 q 560 1242 567 1244 q 547 1233 554 1240 l 429 1113 l 332 1232 q 317 1245 326 1239 q 285 1250 308 1251 l 232 1247 q 217 1239 221 1246 q 218 1221 213 1232 l 322 1063 q 357 1027 340 1036 q 406 1018 374 1018 q 453 1026 438 1018 q 482 1047 469 1035 l 639 1211 z "},"Ż":{"ha":726,"x_min":10,"x_max":728,"o":"m 53 -8 q 22 23 33 -8 q 11 81 10 54 q 19 115 13 104 q 40 147 25 125 q 250 439 151 311 q 433 676 349 567 q 582 893 517 786 l 589 844 l 207 794 q 151 788 174 790 q 121 786 128 786 q 96 795 103 786 q 89 829 89 804 q 97 877 89 846 q 119 934 104 908 q 156 960 135 960 q 257 952 186 960 q 447 944 328 944 l 694 944 q 724 917 719 944 q 719 855 728 889 q 697 799 711 821 q 529 551 619 675 q 349 303 439 426 q 181 56 258 179 l 103 88 l 593 175 q 651 185 633 182 q 675 189 668 189 q 692 169 692 189 q 685 114 692 143 q 667 59 679 85 q 636 17 654 33 q 596 0 618 0 l 475 0 q 281 -2 357 0 q 151 -6 204 -4 q 53 -8 99 -8 m 426 1046 q 359 1072 388 1046 q 331 1142 331 1099 q 364 1222 331 1193 q 440 1250 397 1250 q 508 1226 481 1250 q 535 1156 535 1203 q 503 1077 535 1108 q 426 1046 471 1046 z "},"a":{"ha":742,"x_min":33,"x_max":721,"o":"m 178 -22 q 67 41 100 -22 q 33 218 33 104 q 63 404 33 319 q 144 551 93 489 q 264 647 196 613 q 408 681 332 681 q 517 665 468 681 q 601 632 567 649 l 561 486 q 477 532 524 511 q 391 565 431 553 q 332 576 351 576 q 260 538 293 576 q 209 433 228 500 q 190 278 190 365 q 202 156 190 197 q 240 114 214 114 q 301 155 258 114 q 406 292 344 196 q 535 551 467 388 l 574 428 q 431 163 499 261 q 300 21 363 64 q 178 -22 238 -22 m 510 -14 q 476 13 482 -14 q 471 71 471 40 q 477 129 471 94 q 493 204 483 164 q 514 283 503 244 l 544 388 l 504 424 l 538 633 q 616 651 582 640 q 673 671 650 663 q 706 679 696 679 q 721 663 721 679 q 703 603 721 656 q 666 471 686 551 q 636 296 646 390 l 607 -14 l 510 -14 z "},"á":{"ha":742,"x_min":33,"x_max":721,"o":"m 178 -22 q 67 41 100 -22 q 33 218 33 104 q 63 404 33 319 q 144 551 93 489 q 264 647 196 613 q 408 681 332 681 q 517 665 468 681 q 601 632 567 649 l 561 486 q 477 532 524 511 q 391 565 431 553 q 332 576 351 576 q 260 538 293 576 q 209 433 228 500 q 190 278 190 365 q 202 156 190 197 q 240 114 214 114 q 301 155 258 114 q 406 292 344 196 q 535 551 467 388 l 574 428 q 431 163 499 261 q 300 21 363 64 q 178 -22 238 -22 m 510 -14 q 476 13 482 -14 q 471 71 471 40 q 477 129 471 94 q 493 204 483 164 q 514 283 503 244 l 544 388 l 504 424 l 538 633 q 616 651 582 640 q 673 671 650 663 q 706 679 696 679 q 721 663 721 679 q 703 603 721 656 q 666 471 686 551 q 636 296 646 390 l 607 -14 l 510 -14 m 238 765 q 226 747 226 757 q 238 731 226 738 q 263 725 250 725 q 277 726 269 725 q 293 731 285 726 l 547 851 q 566 865 561 858 q 571 882 571 871 q 559 924 571 906 q 531 955 547 943 q 496 967 514 967 q 461 954 476 967 l 238 765 z "},"ă":{"ha":742,"x_min":33,"x_max":721,"o":"m 178 -22 q 67 41 100 -22 q 33 218 33 104 q 63 404 33 319 q 144 551 93 489 q 264 647 196 613 q 408 681 332 681 q 517 665 468 681 q 601 632 567 649 l 561 486 q 477 532 524 511 q 391 565 431 553 q 332 576 351 576 q 260 538 293 576 q 209 433 228 500 q 190 278 190 365 q 202 156 190 197 q 240 114 214 114 q 301 155 258 114 q 406 292 344 196 q 535 551 467 388 l 574 428 q 431 163 499 261 q 300 21 363 64 q 178 -22 238 -22 m 510 -14 q 476 13 482 -14 q 471 71 471 40 q 477 129 471 94 q 493 204 483 164 q 514 283 503 244 l 544 388 l 504 424 l 538 633 q 616 651 582 640 q 673 671 650 663 q 706 679 696 679 q 721 663 721 679 q 703 603 721 656 q 666 471 686 551 q 636 296 646 390 l 607 -14 l 510 -14 m 404 740 q 258 792 304 740 q 213 915 213 843 q 222 948 213 938 q 247 956 232 958 l 310 949 q 327 942 322 947 q 332 925 332 936 q 349 840 332 871 q 408 808 365 808 q 471 838 451 808 q 500 915 490 868 q 516 949 507 942 q 544 954 525 957 l 600 949 q 617 943 610 947 q 624 926 624 939 q 600 847 624 890 q 528 772 576 803 q 404 740 479 740 z "},"â":{"ha":742,"x_min":33,"x_max":721,"o":"m 178 -22 q 67 41 100 -22 q 33 218 33 104 q 63 404 33 319 q 144 551 93 489 q 264 647 196 613 q 408 681 332 681 q 517 665 468 681 q 601 632 567 649 l 561 486 q 477 532 524 511 q 391 565 431 553 q 332 576 351 576 q 260 538 293 576 q 209 433 228 500 q 190 278 190 365 q 202 156 190 197 q 240 114 214 114 q 301 155 258 114 q 406 292 344 196 q 535 551 467 388 l 574 428 q 431 163 499 261 q 300 21 363 64 q 178 -22 238 -22 m 510 -14 q 476 13 482 -14 q 471 71 471 40 q 477 129 471 94 q 493 204 483 164 q 514 283 503 244 l 544 388 l 504 424 l 538 633 q 616 651 582 640 q 673 671 650 663 q 706 679 696 679 q 721 663 721 679 q 703 603 721 656 q 666 471 686 551 q 636 296 646 390 l 607 -14 l 510 -14 m 196 772 l 196 772 q 189 755 186 763 q 206 746 192 747 l 257 740 q 275 742 268 739 q 288 750 282 744 l 406 871 l 503 751 q 518 738 510 744 q 550 733 526 732 l 603 736 q 619 745 614 738 q 617 763 624 753 l 513 921 q 478 957 494 949 q 429 965 461 965 q 382 957 399 965 q 353 936 365 949 l 196 772 z "},"ȁ":{"ha":742,"x_min":33,"x_max":721,"o":"m 178 -22 q 67 41 100 -22 q 33 218 33 104 q 63 404 33 319 q 144 551 93 489 q 264 647 196 613 q 408 681 332 681 q 517 665 468 681 q 601 632 567 649 l 561 486 q 477 532 524 511 q 391 565 431 553 q 332 576 351 576 q 260 538 293 576 q 209 433 228 500 q 190 278 190 365 q 202 156 190 197 q 240 114 214 114 q 301 155 258 114 q 406 292 344 196 q 535 551 467 388 l 574 428 q 431 163 499 261 q 300 21 363 64 q 178 -22 238 -22 m 510 -14 q 476 13 482 -14 q 471 71 471 40 q 477 129 471 94 q 493 204 483 164 q 514 283 503 244 l 544 388 l 504 424 l 538 633 q 616 651 582 640 q 673 671 650 663 q 706 679 696 679 q 721 663 721 679 q 703 603 721 656 q 666 471 686 551 q 636 296 646 390 l 607 -14 l 510 -14 m 644 769 l 519 956 q 505 965 514 963 q 485 968 496 968 q 451 956 468 968 q 422 926 433 944 q 410 883 410 907 q 415 867 410 872 q 433 853 421 863 l 589 732 q 605 726 596 726 q 619 726 614 726 q 644 733 632 726 q 656 749 656 739 q 652 758 656 753 q 644 769 649 764 m 460 765 l 279 954 q 244 967 268 967 q 210 955 228 967 q 181 924 193 943 q 169 882 169 906 q 174 865 169 871 q 193 851 179 858 l 404 731 q 421 726 413 726 q 435 725 429 725 q 459 731 447 725 q 471 747 471 738 q 467 756 471 751 q 460 765 464 760 z "},"ä":{"ha":742,"x_min":33,"x_max":721,"o":"m 178 -22 q 67 41 100 -22 q 33 218 33 104 q 63 404 33 319 q 144 551 93 489 q 264 647 196 613 q 408 681 332 681 q 517 665 468 681 q 601 632 567 649 l 561 486 q 477 532 524 511 q 391 565 431 553 q 332 576 351 576 q 260 538 293 576 q 209 433 228 500 q 190 278 190 365 q 202 156 190 197 q 240 114 214 114 q 301 155 258 114 q 406 292 344 196 q 535 551 467 388 l 574 428 q 431 163 499 261 q 300 21 363 64 q 178 -22 238 -22 m 510 -14 q 476 13 482 -14 q 471 71 471 40 q 477 129 471 94 q 493 204 483 164 q 514 283 503 244 l 544 388 l 504 424 l 538 633 q 616 651 582 640 q 673 671 650 663 q 706 679 696 679 q 721 663 721 679 q 703 603 721 656 q 666 471 686 551 q 636 296 646 390 l 607 -14 l 510 -14 m 519 776 q 464 798 488 776 q 440 856 440 819 q 468 922 440 897 q 532 946 496 946 q 587 926 564 946 q 610 867 610 906 q 583 802 610 828 q 519 776 557 776 m 296 776 q 240 798 264 776 q 217 856 217 819 q 244 922 217 897 q 308 946 272 946 q 363 926 340 946 q 386 867 386 906 q 360 802 386 828 q 296 776 333 776 z "},"à":{"ha":742,"x_min":33,"x_max":721,"o":"m 178 -22 q 67 41 100 -22 q 33 218 33 104 q 63 404 33 319 q 144 551 93 489 q 264 647 196 613 q 408 681 332 681 q 517 665 468 681 q 601 632 567 649 l 561 486 q 477 532 524 511 q 391 565 431 553 q 332 576 351 576 q 260 538 293 576 q 209 433 228 500 q 190 278 190 365 q 202 156 190 197 q 240 114 214 114 q 301 155 258 114 q 406 292 344 196 q 535 551 467 388 l 574 428 q 431 163 499 261 q 300 21 363 64 q 178 -22 238 -22 m 510 -14 q 476 13 482 -14 q 471 71 471 40 q 477 129 471 94 q 493 204 483 164 q 514 283 503 244 l 544 388 l 504 424 l 538 633 q 616 651 582 640 q 673 671 650 663 q 706 679 696 679 q 721 663 721 679 q 703 603 721 656 q 666 471 686 551 q 636 296 646 390 l 607 -14 l 510 -14 m 558 765 l 378 954 q 363 964 372 961 q 342 967 353 967 q 308 955 325 967 q 278 924 290 943 q 267 882 267 906 q 272 865 267 871 q 290 851 276 858 l 503 731 q 519 726 511 726 q 533 725 528 725 q 558 731 546 725 q 569 747 569 738 q 566 756 569 751 q 558 765 563 760 z "},"ȃ":{"ha":742,"x_min":33,"x_max":721,"o":"m 178 -22 q 67 41 100 -22 q 33 218 33 104 q 63 404 33 319 q 144 551 93 489 q 264 647 196 613 q 408 681 332 681 q 517 665 468 681 q 601 632 567 649 l 561 486 q 477 532 524 511 q 391 565 431 553 q 332 576 351 576 q 260 538 293 576 q 209 433 228 500 q 190 278 190 365 q 202 156 190 197 q 240 114 214 114 q 301 155 258 114 q 406 292 344 196 q 535 551 467 388 l 574 428 q 431 163 499 261 q 300 21 363 64 q 178 -22 238 -22 m 510 -14 q 476 13 482 -14 q 471 71 471 40 q 477 129 471 94 q 493 204 483 164 q 514 283 503 244 l 544 388 l 504 424 l 538 633 q 616 651 582 640 q 673 671 650 663 q 706 679 696 679 q 721 663 721 679 q 703 603 721 656 q 666 471 686 551 q 636 296 646 390 l 607 -14 l 510 -14 m 440 956 q 586 905 540 956 q 632 781 632 854 q 622 749 632 758 q 597 740 613 739 l 535 747 q 517 755 522 749 q 513 771 513 761 q 497 856 513 825 q 436 888 481 888 q 374 858 393 888 q 344 781 356 828 q 329 747 339 754 q 300 742 319 740 l 244 747 q 228 753 235 749 q 221 769 221 757 q 244 850 221 807 q 317 924 268 893 q 440 956 367 956 z "},"ā":{"ha":742,"x_min":33,"x_max":721,"o":"m 178 -22 q 67 41 100 -22 q 33 218 33 104 q 63 404 33 319 q 144 551 93 489 q 264 647 196 613 q 408 681 332 681 q 517 665 468 681 q 601 632 567 649 l 561 486 q 477 532 524 511 q 391 565 431 553 q 332 576 351 576 q 260 538 293 576 q 209 433 228 500 q 190 278 190 365 q 202 156 190 197 q 240 114 214 114 q 301 155 258 114 q 406 292 344 196 q 535 551 467 388 l 574 428 q 431 163 499 261 q 300 21 363 64 q 178 -22 238 -22 m 510 -14 q 476 13 482 -14 q 471 71 471 40 q 477 129 471 94 q 493 204 483 164 q 514 283 503 244 l 544 388 l 504 424 l 538 633 q 616 651 582 640 q 673 671 650 663 q 706 679 696 679 q 721 663 721 679 q 703 603 721 656 q 666 471 686 551 q 636 296 646 390 l 607 -14 l 510 -14 m 225 863 q 246 883 228 883 l 589 883 q 610 863 613 883 l 604 821 q 583 800 601 800 l 240 800 q 219 821 217 800 l 225 863 z "},"ą":{"ha":742,"x_min":33,"x_max":721,"o":"m 178 -22 q 67 41 100 -22 q 33 218 33 104 q 63 404 33 319 q 144 551 93 489 q 264 647 196 613 q 408 681 332 681 q 517 665 468 681 q 601 632 567 649 l 561 486 q 477 532 524 511 q 391 565 431 553 q 332 576 351 576 q 260 538 293 576 q 209 433 228 500 q 190 278 190 365 q 202 156 190 197 q 240 114 214 114 q 301 155 258 114 q 406 292 344 196 q 535 551 467 388 l 574 428 q 431 163 499 261 q 300 21 363 64 q 178 -22 238 -22 m 510 -14 q 476 13 482 -14 q 471 71 471 40 q 477 129 471 94 q 493 204 483 164 q 514 283 503 244 l 544 388 l 504 424 l 538 633 q 616 651 582 640 q 673 671 650 663 q 706 679 696 679 q 721 663 721 679 q 703 603 721 656 q 666 471 686 551 q 636 296 646 390 l 607 -14 l 510 -14 m 299 -149 q 338 -57 299 -97 q 436 7 376 -17 q 556 31 496 31 q 576 27 568 31 q 585 18 585 24 q 581 11 585 15 q 561 1 576 7 q 479 -51 506 -17 q 453 -112 453 -85 q 471 -158 453 -143 q 516 -176 489 -172 q 574 -181 543 -181 q 589 -184 582 -181 q 596 -194 596 -187 q 579 -233 596 -208 q 531 -278 563 -260 q 463 -296 499 -296 q 384 -280 422 -296 q 322 -231 346 -264 q 299 -149 299 -199 z "},"å":{"ha":742,"x_min":33,"x_max":721,"o":"m 178 -22 q 67 41 100 -22 q 33 218 33 104 q 63 404 33 319 q 144 551 93 489 q 264 647 196 613 q 408 681 332 681 q 517 665 468 681 q 601 632 567 649 l 561 486 q 477 532 524 511 q 391 565 431 553 q 332 576 351 576 q 260 538 293 576 q 209 433 228 500 q 190 278 190 365 q 202 156 190 197 q 240 114 214 114 q 301 155 258 114 q 406 292 344 196 q 535 551 467 388 l 574 428 q 431 163 499 261 q 300 21 363 64 q 178 -22 238 -22 m 510 -14 q 476 13 482 -14 q 471 71 471 40 q 477 129 471 94 q 493 204 483 164 q 514 283 503 244 l 544 388 l 504 424 l 538 633 q 616 651 582 640 q 673 671 650 663 q 706 679 696 679 q 721 663 721 679 q 703 603 721 656 q 666 471 686 551 q 636 296 646 390 l 607 -14 l 510 -14 m 411 731 q 314 766 350 731 q 278 851 278 801 q 317 943 278 904 q 419 982 356 982 q 515 947 479 982 q 550 863 550 911 q 511 769 550 808 q 411 731 472 731 m 413 794 q 455 813 438 794 q 472 860 472 831 q 457 903 472 889 q 418 918 442 918 q 374 902 392 918 q 356 854 356 886 q 372 811 356 828 q 413 794 389 794 z "},"ǻ":{"ha":742,"x_min":33,"x_max":721,"o":"m 178 -22 q 67 41 100 -22 q 33 218 33 104 q 63 404 33 319 q 144 551 93 489 q 264 647 196 613 q 408 681 332 681 q 517 665 468 681 q 601 632 567 649 l 561 486 q 477 532 524 511 q 391 565 431 553 q 332 576 351 576 q 260 538 293 576 q 209 433 228 500 q 190 278 190 365 q 202 156 190 197 q 240 114 214 114 q 301 155 258 114 q 406 292 344 196 q 535 551 467 388 l 574 428 q 431 163 499 261 q 300 21 363 64 q 178 -22 238 -22 m 510 -14 q 476 13 482 -14 q 471 71 471 40 q 477 129 471 94 q 493 204 483 164 q 514 283 503 244 l 544 388 l 504 424 l 538 633 q 616 651 582 640 q 673 671 650 663 q 706 679 696 679 q 721 663 721 679 q 703 603 721 656 q 666 471 686 551 q 636 296 646 390 l 607 -14 l 510 -14 m 411 731 q 314 766 350 731 q 278 851 278 801 q 317 943 278 904 q 419 982 356 982 q 515 947 479 982 q 550 863 550 911 q 511 769 550 808 q 411 731 472 731 m 413 794 q 455 813 438 794 q 472 860 472 831 q 457 903 472 889 q 418 918 442 918 q 374 902 392 918 q 356 854 356 886 q 372 811 356 828 q 413 794 389 794 m 269 1071 q 258 1053 258 1063 q 270 1037 258 1043 q 294 1031 282 1031 q 309 1031 301 1031 q 325 1036 317 1032 l 579 1157 q 598 1170 593 1164 q 603 1188 603 1176 q 591 1230 603 1211 q 563 1260 579 1249 q 528 1272 546 1272 q 493 1260 508 1272 l 269 1071 z "},"ã":{"ha":742,"x_min":33,"x_max":721,"o":"m 178 -22 q 67 41 100 -22 q 33 218 33 104 q 63 404 33 319 q 144 551 93 489 q 264 647 196 613 q 408 681 332 681 q 517 665 468 681 q 601 632 567 649 l 561 486 q 477 532 524 511 q 391 565 431 553 q 332 576 351 576 q 260 538 293 576 q 209 433 228 500 q 190 278 190 365 q 202 156 190 197 q 240 114 214 114 q 301 155 258 114 q 406 292 344 196 q 535 551 467 388 l 574 428 q 431 163 499 261 q 300 21 363 64 q 178 -22 238 -22 m 510 -14 q 476 13 482 -14 q 471 71 471 40 q 477 129 471 94 q 493 204 483 164 q 514 283 503 244 l 544 388 l 504 424 l 538 633 q 616 651 582 640 q 673 671 650 663 q 706 679 696 679 q 721 663 721 679 q 703 603 721 656 q 666 471 686 551 q 636 296 646 390 l 607 -14 l 510 -14 m 217 807 q 229 871 217 840 q 265 921 242 901 q 319 940 288 940 q 369 928 340 940 q 428 901 399 917 q 482 873 458 885 q 517 861 506 861 q 537 875 531 861 q 549 910 543 889 q 558 931 553 925 q 575 936 564 936 q 611 928 599 936 q 624 897 624 921 q 610 824 624 857 q 574 771 597 790 q 521 751 550 751 q 447 771 482 751 q 380 810 411 790 q 322 831 349 831 q 305 820 313 831 q 290 786 297 810 q 280 765 286 771 q 261 760 274 760 q 231 769 246 760 q 217 807 217 778 z "},"æ":{"ha":993,"x_min":15,"x_max":967,"o":"m 188 -22 q 57 22 99 -22 q 15 126 15 67 q 53 251 15 204 q 157 324 90 299 q 311 358 224 349 q 499 372 399 368 l 460 289 q 281 269 343 282 q 196 234 219 257 q 172 175 172 211 q 192 130 172 146 q 238 114 211 114 q 318 146 282 114 q 380 226 354 178 q 419 324 406 274 q 433 411 433 374 q 428 503 433 465 q 403 561 424 542 q 335 581 383 581 q 242 563 275 581 q 190 538 208 544 q 175 531 183 535 q 160 528 167 528 q 131 551 142 528 q 121 600 121 574 q 149 647 121 629 q 225 673 176 665 q 335 681 274 681 q 456 658 401 681 q 540 591 510 635 q 567 485 571 547 l 544 538 q 642 643 581 604 q 789 682 704 682 q 922 640 878 682 q 967 522 967 597 q 860 355 967 421 q 550 281 753 289 l 532 364 q 679 383 614 364 q 783 434 744 401 q 821 507 821 467 q 803 558 821 539 q 746 578 786 578 q 651 538 690 578 q 593 431 613 497 q 574 286 574 364 q 585 189 574 226 q 624 134 597 151 q 694 117 650 117 q 801 137 751 117 q 886 179 851 157 q 919 194 910 194 q 931 189 926 194 q 935 176 935 183 q 910 118 935 151 q 844 53 886 85 q 747 -1 803 21 q 629 -22 692 -22 q 479 35 528 -22 q 426 185 431 92 l 449 211 q 417 113 444 156 q 348 40 389 69 q 264 -6 307 10 q 188 -22 221 -22 z "},"ǽ":{"ha":993,"x_min":15,"x_max":967,"o":"m 188 -22 q 57 22 99 -22 q 15 126 15 67 q 53 251 15 204 q 157 324 90 299 q 311 358 224 349 q 499 372 399 368 l 460 289 q 281 269 343 282 q 196 234 219 257 q 172 175 172 211 q 192 130 172 146 q 238 114 211 114 q 318 146 282 114 q 380 226 354 178 q 419 324 406 274 q 433 411 433 374 q 428 503 433 465 q 403 561 424 542 q 335 581 383 581 q 242 563 275 581 q 190 538 208 544 q 175 531 183 535 q 160 528 167 528 q 131 551 142 528 q 121 600 121 574 q 149 647 121 629 q 225 673 176 665 q 335 681 274 681 q 456 658 401 681 q 540 591 510 635 q 567 485 571 547 l 544 538 q 642 643 581 604 q 789 682 704 682 q 922 640 878 682 q 967 522 967 597 q 860 355 967 421 q 550 281 753 289 l 532 364 q 679 383 614 364 q 783 434 744 401 q 821 507 821 467 q 803 558 821 539 q 746 578 786 578 q 651 538 690 578 q 593 431 613 497 q 574 286 574 364 q 585 189 574 226 q 624 134 597 151 q 694 117 650 117 q 801 137 751 117 q 886 179 851 157 q 919 194 910 194 q 931 189 926 194 q 935 176 935 183 q 910 118 935 151 q 844 53 886 85 q 747 -1 803 21 q 629 -22 692 -22 q 479 35 528 -22 q 426 185 431 92 l 449 211 q 417 113 444 156 q 348 40 389 69 q 264 -6 307 10 q 188 -22 221 -22 m 408 765 q 397 747 397 757 q 409 731 397 738 q 433 725 421 725 q 448 726 440 725 q 464 731 456 726 l 718 851 q 737 865 732 858 q 742 882 742 871 q 730 924 742 906 q 701 955 718 943 q 667 967 685 967 q 632 954 647 967 l 408 765 z "},"b":{"ha":732,"x_min":50,"x_max":699,"o":"m 304 -22 q 259 -15 293 -22 q 183 6 225 -7 q 104 33 140 19 l 189 146 q 261 107 226 121 q 326 88 296 93 q 381 82 356 82 q 464 120 428 82 q 521 226 500 158 q 542 381 542 294 q 530 503 542 461 q 492 544 518 544 q 450 524 479 544 q 381 455 421 504 q 292 321 340 406 q 193 107 244 236 l 151 231 q 301 504 229 407 q 436 641 372 601 q 554 681 500 681 q 665 615 632 681 q 699 440 699 550 q 651 201 699 306 q 515 38 603 97 q 304 -22 426 -22 m 304 -22 q 162 -7 219 -22 q 77 35 104 8 q 53 94 50 61 l 150 967 l 247 967 q 285 936 268 967 q 301 867 301 906 q 295 781 301 819 q 275 681 289 742 l 178 263 l 206 47 l 304 -22 z "},"c":{"ha":569,"x_min":29,"x_max":556,"o":"m 256 -22 q 88 46 146 -22 q 29 242 29 114 q 78 467 29 367 q 213 624 128 567 q 408 682 299 682 q 511 667 467 682 q 556 603 556 651 q 549 561 556 582 q 531 526 542 540 q 508 513 519 513 q 493 516 503 513 q 476 524 483 519 q 440 546 461 533 q 392 568 418 558 q 339 578 367 578 q 262 538 296 578 q 208 431 228 497 q 189 286 189 364 q 220 149 189 183 q 311 115 251 115 q 396 133 361 115 q 463 172 431 150 q 482 183 475 181 q 494 185 489 185 q 506 179 501 185 q 510 167 510 174 q 489 109 510 142 q 432 47 468 76 q 351 -3 396 17 q 256 -22 306 -22 z "},"ć":{"ha":569,"x_min":29,"x_max":556,"o":"m 256 -22 q 88 46 146 -22 q 29 242 29 114 q 78 467 29 367 q 213 624 128 567 q 408 682 299 682 q 511 667 467 682 q 556 603 556 651 q 549 561 556 582 q 531 526 542 540 q 508 513 519 513 q 493 516 503 513 q 476 524 483 519 q 440 546 461 533 q 392 568 418 558 q 339 578 367 578 q 262 538 296 578 q 208 431 228 497 q 189 286 189 364 q 220 149 189 183 q 311 115 251 115 q 396 133 361 115 q 463 172 431 150 q 482 183 475 181 q 494 185 489 185 q 506 179 501 185 q 510 167 510 174 q 489 109 510 142 q 432 47 468 76 q 351 -3 396 17 q 256 -22 306 -22 m 199 765 q 188 747 188 757 q 199 731 188 738 q 224 725 211 725 q 238 726 231 725 q 254 731 246 726 l 508 851 q 527 865 522 858 q 532 882 532 871 q 520 924 532 906 q 492 955 508 943 q 457 967 475 967 q 422 954 438 967 l 199 765 z "},"č":{"ha":569,"x_min":29,"x_max":600,"o":"m 256 -22 q 88 46 146 -22 q 29 242 29 114 q 78 467 29 367 q 213 624 128 567 q 408 682 299 682 q 511 667 467 682 q 556 603 556 651 q 549 561 556 582 q 531 526 542 540 q 508 513 519 513 q 493 516 503 513 q 476 524 483 519 q 440 546 461 533 q 392 568 418 558 q 339 578 367 578 q 262 538 296 578 q 208 431 228 497 q 189 286 189 364 q 220 149 189 183 q 311 115 251 115 q 396 133 361 115 q 463 172 431 150 q 482 183 475 181 q 494 185 489 185 q 506 179 501 185 q 510 167 510 174 q 489 109 510 142 q 432 47 468 76 q 351 -3 396 17 q 256 -22 306 -22 m 590 926 l 590 926 q 597 944 600 938 q 581 953 594 951 l 529 958 q 512 958 518 960 q 499 949 506 956 l 381 828 l 283 947 q 269 960 278 954 q 236 965 260 967 l 183 963 q 168 954 172 961 q 169 936 164 947 l 274 778 q 308 742 292 751 q 357 733 325 733 q 405 742 389 733 q 433 763 421 750 l 590 926 z "},"ç":{"ha":569,"x_min":29,"x_max":556,"o":"m 256 -22 q 88 46 146 -22 q 29 242 29 114 q 78 467 29 367 q 213 624 128 567 q 408 682 299 682 q 511 667 467 682 q 556 603 556 651 q 549 561 556 582 q 531 526 542 540 q 508 513 519 513 q 493 516 503 513 q 476 524 483 519 q 440 546 461 533 q 392 568 418 558 q 339 578 367 578 q 262 538 296 578 q 208 431 228 497 q 189 286 189 364 q 220 149 189 183 q 311 115 251 115 q 396 133 361 115 q 463 172 431 150 q 482 183 475 181 q 494 185 489 185 q 506 179 501 185 q 510 167 510 174 q 489 109 510 142 q 432 47 468 76 q 351 -3 396 17 q 256 -22 306 -22 m 210 28 q 217 42 213 36 q 231 49 222 47 l 257 54 q 274 51 268 57 q 276 33 279 46 l 239 -115 l 224 -61 q 343 -86 293 -61 q 393 -165 393 -111 q 372 -231 393 -204 q 314 -274 350 -258 q 235 -297 278 -290 q 150 -306 192 -304 q 125 -300 132 -306 q 118 -285 118 -294 q 128 -253 118 -265 q 156 -239 138 -240 q 236 -220 200 -233 q 272 -174 272 -207 q 261 -151 272 -157 q 213 -140 250 -146 q 189 -129 200 -137 q 178 -100 178 -121 q 179 -87 178 -94 q 182 -74 181 -81 l 210 28 z "},"ĉ":{"ha":569,"x_min":29,"x_max":585,"o":"m 256 -22 q 88 46 146 -22 q 29 242 29 114 q 78 467 29 367 q 213 624 128 567 q 408 682 299 682 q 511 667 467 682 q 556 603 556 651 q 549 561 556 582 q 531 526 542 540 q 508 513 519 513 q 493 516 503 513 q 476 524 483 519 q 440 546 461 533 q 392 568 418 558 q 339 578 367 578 q 262 538 296 578 q 208 431 228 497 q 189 286 189 364 q 220 149 189 183 q 311 115 251 115 q 396 133 361 115 q 463 172 431 150 q 482 183 475 181 q 494 185 489 185 q 506 179 501 185 q 510 167 510 174 q 489 109 510 142 q 432 47 468 76 q 351 -3 396 17 q 256 -22 306 -22 m 157 772 l 157 772 q 150 755 147 763 q 167 746 153 747 l 218 740 q 236 742 229 739 q 249 750 243 744 l 367 871 l 464 751 q 479 738 471 744 q 511 733 488 732 l 564 736 q 580 745 575 738 q 578 763 585 753 l 474 921 q 439 957 456 949 q 390 965 422 965 q 343 957 360 965 q 314 936 326 949 l 157 772 z "},"ċ":{"ha":569,"x_min":29,"x_max":556,"o":"m 256 -22 q 88 46 146 -22 q 29 242 29 114 q 78 467 29 367 q 213 624 128 567 q 408 682 299 682 q 511 667 467 682 q 556 603 556 651 q 549 561 556 582 q 531 526 542 540 q 508 513 519 513 q 493 516 503 513 q 476 524 483 519 q 440 546 461 533 q 392 568 418 558 q 339 578 367 578 q 262 538 296 578 q 208 431 228 497 q 189 286 189 364 q 220 149 189 183 q 311 115 251 115 q 396 133 361 115 q 463 172 431 150 q 482 183 475 181 q 494 185 489 185 q 506 179 501 185 q 510 167 510 174 q 489 109 510 142 q 432 47 468 76 q 351 -3 396 17 q 256 -22 306 -22 m 378 761 q 310 788 339 761 q 282 857 282 814 q 315 937 282 908 q 392 965 349 965 q 459 942 432 965 q 486 871 486 918 q 454 792 486 824 q 378 761 422 761 z "},"d":{"ha":765,"x_min":33,"x_max":735,"o":"m 174 -22 q 66 39 99 -22 q 33 218 33 100 q 62 404 33 319 q 142 551 90 489 q 261 647 193 613 q 408 681 329 681 q 505 665 457 681 q 588 632 553 649 l 543 496 q 465 539 506 521 q 390 567 424 557 q 338 576 356 576 q 264 538 297 576 q 210 433 231 500 q 190 278 190 365 q 202 156 190 197 q 240 114 214 114 q 309 155 263 114 q 417 292 356 196 q 547 551 479 388 l 588 428 q 442 163 514 261 q 302 21 369 64 q 174 -22 235 -22 m 540 -14 q 514 3 525 -14 q 497 46 503 21 q 492 92 492 71 q 503 171 492 126 q 533 283 515 215 l 561 388 l 521 432 l 536 578 l 556 601 l 567 967 l 675 967 q 709 949 696 967 q 728 906 722 931 q 735 860 735 882 q 733 828 735 846 q 728 781 732 811 q 715 699 724 751 l 669 379 q 653 243 660 313 q 642 108 646 174 q 638 -14 639 43 l 540 -14 z "},"ð":{"ha":679,"x_min":31,"x_max":682,"o":"m 289 -21 q 150 10 208 -21 q 61 106 92 42 q 31 264 31 169 q 58 426 31 350 q 130 559 85 501 q 232 649 175 617 q 349 682 289 682 q 435 674 388 682 q 528 653 482 665 q 610 628 575 640 l 519 508 q 423 553 475 532 q 310 575 371 575 q 242 537 269 575 q 203 432 215 499 q 190 279 190 365 q 317 83 190 83 q 401 117 368 83 q 454 210 435 151 q 481 343 474 268 q 489 500 489 418 q 472 663 489 594 q 415 776 456 731 q 304 851 375 822 q 125 897 233 881 q 103 905 110 900 q 97 918 97 910 q 118 938 97 928 q 173 954 139 947 q 244 961 207 961 q 435 923 357 961 q 559 822 513 885 q 627 682 606 758 q 649 531 649 606 q 601 226 649 349 q 472 41 553 103 q 289 -21 390 -21 m 149 682 q 126 684 132 676 q 117 706 119 692 q 126 749 111 725 q 190 788 140 774 l 644 925 q 667 924 661 931 q 675 908 672 918 q 668 857 682 882 q 599 815 654 832 l 149 682 z "},"ď":{"ha":785,"x_min":33,"x_max":963,"o":"m 174 -22 q 66 39 99 -22 q 33 218 33 100 q 62 404 33 319 q 142 551 90 489 q 261 647 193 613 q 408 681 329 681 q 505 665 457 681 q 588 632 553 649 l 543 496 q 465 539 506 521 q 390 567 424 557 q 338 576 356 576 q 264 538 297 576 q 210 433 231 500 q 190 278 190 365 q 202 156 190 197 q 240 114 214 114 q 309 155 263 114 q 417 292 356 196 q 547 551 479 388 l 588 428 q 442 163 514 261 q 302 21 369 64 q 174 -22 235 -22 m 540 -14 q 514 3 525 -14 q 497 46 503 21 q 492 92 492 71 q 503 171 492 126 q 533 283 515 215 l 561 388 l 521 432 l 536 578 l 556 601 l 567 967 l 675 967 q 709 949 696 967 q 728 906 722 931 q 735 860 735 882 q 733 828 735 846 q 728 781 732 811 q 715 699 724 751 l 669 379 q 653 243 660 313 q 642 108 646 174 q 638 -14 639 43 l 540 -14 m 804 938 q 812 953 806 949 q 828 957 818 957 l 886 957 q 931 951 911 957 q 956 926 950 944 q 944 874 963 908 l 835 654 q 819 628 826 636 q 799 619 813 619 q 781 630 789 619 q 774 650 772 640 l 804 938 z "},"đ":{"ha":767,"x_min":33,"x_max":815,"o":"m 174 -22 q 66 39 99 -22 q 33 218 33 100 q 62 399 33 319 q 142 535 90 479 q 263 622 194 592 q 410 651 331 651 q 506 635 458 651 q 589 603 554 619 l 544 467 q 466 510 507 492 q 391 538 425 528 q 339 547 357 547 q 265 516 299 547 q 210 425 231 485 q 190 278 190 365 q 202 156 190 197 q 240 114 214 114 q 309 155 263 114 q 417 292 356 196 q 547 551 479 388 l 588 428 q 442 163 514 261 q 302 21 369 64 q 174 -22 235 -22 m 540 -14 q 514 3 525 -14 q 497 46 503 21 q 492 92 492 71 q 503 171 492 126 q 533 283 515 215 l 561 388 l 521 432 l 536 578 l 556 601 l 567 967 l 675 967 q 718 936 701 967 q 735 874 735 906 q 733 842 735 860 q 728 792 732 825 q 715 699 724 758 l 669 379 q 653 243 660 313 q 642 108 646 174 q 638 -14 639 43 l 540 -14 m 463 697 q 438 717 438 697 q 462 772 438 746 q 517 797 486 797 l 790 796 q 811 792 807 796 q 815 778 815 789 q 807 752 815 772 q 784 715 799 732 q 750 697 769 697 l 463 697 z "},"ǆ":{"ha":1371,"x_min":33,"x_max":1361,"o":"m 174 -22 q 66 39 99 -22 q 33 218 33 100 q 62 404 33 319 q 142 551 90 489 q 261 647 193 613 q 408 681 329 681 q 505 665 457 681 q 588 632 553 649 l 543 496 q 465 539 506 521 q 390 567 424 557 q 338 576 356 576 q 264 538 297 576 q 210 433 231 500 q 190 278 190 365 q 202 156 190 197 q 240 114 214 114 q 309 155 263 114 q 417 292 356 196 q 547 551 479 388 l 588 428 q 442 163 514 261 q 302 21 369 64 q 174 -22 235 -22 m 540 -14 q 514 3 525 -14 q 497 46 503 21 q 492 92 492 71 q 503 171 492 126 q 533 283 515 215 l 561 388 l 521 432 l 536 578 l 556 601 l 567 967 l 675 967 q 709 949 696 967 q 728 906 722 931 q 735 860 735 882 q 733 828 735 846 q 728 781 732 811 q 715 699 724 751 l 669 379 q 653 243 660 313 q 642 108 646 174 q 638 -14 639 43 l 540 -14 m 801 0 q 787 10 793 0 q 781 42 781 19 q 785 90 781 69 q 796 121 790 111 q 894 256 840 190 q 997 376 949 321 q 1097 489 1049 436 q 1175 593 1144 542 l 1222 579 l 921 539 q 874 536 896 536 q 846 536 853 536 q 831 544 836 536 q 826 563 826 553 q 835 610 826 582 q 858 660 843 639 q 894 682 874 682 q 944 676 903 682 q 1046 665 986 671 q 1167 660 1106 660 l 1333 660 q 1353 653 1344 660 q 1361 638 1361 647 q 1357 599 1361 619 q 1333 547 1353 579 q 1255 438 1300 492 q 1157 326 1210 385 q 1047 203 1104 267 q 946 71 990 140 l 904 88 l 1238 146 q 1283 153 1265 151 q 1306 156 1300 156 q 1322 144 1318 156 q 1318 103 1325 133 q 1293 19 1308 38 q 1261 0 1278 0 l 801 0 m 1344 926 l 1344 926 q 1351 944 1354 938 q 1335 953 1349 951 l 1283 958 q 1266 958 1272 960 q 1253 949 1260 956 l 1135 828 l 1038 947 q 1023 960 1032 954 q 990 965 1014 967 l 938 963 q 922 954 926 961 q 924 936 918 947 l 1028 778 q 1063 742 1046 751 q 1111 733 1079 733 q 1159 742 1143 733 q 1188 763 1175 750 l 1344 926 z "},"e":{"ha":614,"x_min":28,"x_max":592,"o":"m 251 -22 q 86 45 144 -22 q 28 231 28 113 q 56 411 28 329 q 133 554 83 493 q 251 649 183 615 q 397 682 318 682 q 542 642 492 682 q 592 526 592 601 q 541 393 592 450 q 395 296 490 336 q 168 228 300 256 l 150 311 q 290 344 226 321 q 393 408 354 368 q 432 501 432 447 q 417 558 432 539 q 365 578 403 578 q 269 536 308 578 q 209 428 229 494 q 189 286 189 361 q 220 151 189 185 q 313 117 251 117 q 424 137 376 117 q 507 179 472 157 q 526 190 518 186 q 540 194 535 194 q 551 189 547 194 q 556 176 556 183 q 533 118 556 151 q 470 53 511 85 q 374 -1 429 21 q 251 -22 318 -22 z "},"é":{"ha":614,"x_min":28,"x_max":592,"o":"m 251 -22 q 86 45 144 -22 q 28 231 28 113 q 56 411 28 329 q 133 554 83 493 q 251 649 183 615 q 397 682 318 682 q 542 642 492 682 q 592 526 592 601 q 541 393 592 450 q 395 296 490 336 q 168 228 300 256 l 150 311 q 290 344 226 321 q 393 408 354 368 q 432 501 432 447 q 417 558 432 539 q 365 578 403 578 q 269 536 308 578 q 209 428 229 494 q 189 286 189 361 q 220 151 189 185 q 313 117 251 117 q 424 137 376 117 q 507 179 472 157 q 526 190 518 186 q 540 194 535 194 q 551 189 547 194 q 556 176 556 183 q 533 118 556 151 q 470 53 511 85 q 374 -1 429 21 q 251 -22 318 -22 m 188 765 q 176 747 176 757 q 188 731 176 738 q 213 725 200 725 q 227 726 219 725 q 243 731 235 726 l 497 851 q 516 865 511 858 q 521 882 521 871 q 509 924 521 906 q 481 955 497 943 q 446 967 464 967 q 411 954 426 967 l 188 765 z "},"ĕ":{"ha":614,"x_min":28,"x_max":592,"o":"m 251 -22 q 86 45 144 -22 q 28 231 28 113 q 56 411 28 329 q 133 554 83 493 q 251 649 183 615 q 397 682 318 682 q 542 642 492 682 q 592 526 592 601 q 541 393 592 450 q 395 296 490 336 q 168 228 300 256 l 150 311 q 290 344 226 321 q 393 408 354 368 q 432 501 432 447 q 417 558 432 539 q 365 578 403 578 q 269 536 308 578 q 209 428 229 494 q 189 286 189 361 q 220 151 189 185 q 313 117 251 117 q 424 137 376 117 q 507 179 472 157 q 526 190 518 186 q 540 194 535 194 q 551 189 547 194 q 556 176 556 183 q 533 118 556 151 q 470 53 511 85 q 374 -1 429 21 q 251 -22 318 -22 m 354 740 q 208 792 254 740 q 163 915 163 843 q 172 948 163 938 q 197 956 182 958 l 260 949 q 277 942 272 947 q 282 925 282 936 q 299 840 282 871 q 358 808 315 808 q 421 838 401 808 q 450 915 440 868 q 466 949 457 942 q 494 954 475 957 l 550 949 q 567 943 560 947 q 574 926 574 939 q 550 847 574 890 q 478 772 526 803 q 354 740 429 740 z "},"ě":{"ha":614,"x_min":28,"x_max":592,"o":"m 251 -22 q 86 45 144 -22 q 28 231 28 113 q 56 411 28 329 q 133 554 83 493 q 251 649 183 615 q 397 682 318 682 q 542 642 492 682 q 592 526 592 601 q 541 393 592 450 q 395 296 490 336 q 168 228 300 256 l 150 311 q 290 344 226 321 q 393 408 354 368 q 432 501 432 447 q 417 558 432 539 q 365 578 403 578 q 269 536 308 578 q 209 428 229 494 q 189 286 189 361 q 220 151 189 185 q 313 117 251 117 q 424 137 376 117 q 507 179 472 157 q 526 190 518 186 q 540 194 535 194 q 551 189 547 194 q 556 176 556 183 q 533 118 556 151 q 470 53 511 85 q 374 -1 429 21 q 251 -22 318 -22 m 579 926 l 579 926 q 586 944 589 938 q 569 953 583 951 l 518 958 q 501 958 507 960 q 488 949 494 956 l 369 828 l 272 947 q 258 960 267 954 q 225 965 249 967 l 172 963 q 157 954 161 961 q 158 936 153 947 l 263 778 q 297 742 281 751 q 346 733 314 733 q 394 742 378 733 q 422 763 410 750 l 579 926 z "},"ê":{"ha":614,"x_min":28,"x_max":592,"o":"m 251 -22 q 86 45 144 -22 q 28 231 28 113 q 56 411 28 329 q 133 554 83 493 q 251 649 183 615 q 397 682 318 682 q 542 642 492 682 q 592 526 592 601 q 541 393 592 450 q 395 296 490 336 q 168 228 300 256 l 150 311 q 290 344 226 321 q 393 408 354 368 q 432 501 432 447 q 417 558 432 539 q 365 578 403 578 q 269 536 308 578 q 209 428 229 494 q 189 286 189 361 q 220 151 189 185 q 313 117 251 117 q 424 137 376 117 q 507 179 472 157 q 526 190 518 186 q 540 194 535 194 q 551 189 547 194 q 556 176 556 183 q 533 118 556 151 q 470 53 511 85 q 374 -1 429 21 q 251 -22 318 -22 m 146 772 l 146 772 q 139 755 136 763 q 156 746 142 747 l 207 740 q 225 742 218 739 q 238 750 232 744 l 356 871 l 453 751 q 468 738 460 744 q 500 733 476 732 l 553 736 q 569 745 564 738 q 567 763 574 753 l 463 921 q 428 957 444 949 q 379 965 411 965 q 332 957 349 965 q 303 936 315 949 l 146 772 z "},"ȅ":{"ha":614,"x_min":28,"x_max":606,"o":"m 251 -22 q 86 45 144 -22 q 28 231 28 113 q 56 411 28 329 q 133 554 83 493 q 251 649 183 615 q 397 682 318 682 q 542 642 492 682 q 592 526 592 601 q 541 393 592 450 q 395 296 490 336 q 168 228 300 256 l 150 311 q 290 344 226 321 q 393 408 354 368 q 432 501 432 447 q 417 558 432 539 q 365 578 403 578 q 269 536 308 578 q 209 428 229 494 q 189 286 189 361 q 220 151 189 185 q 313 117 251 117 q 424 137 376 117 q 507 179 472 157 q 526 190 518 186 q 540 194 535 194 q 551 189 547 194 q 556 176 556 183 q 533 118 556 151 q 470 53 511 85 q 374 -1 429 21 q 251 -22 318 -22 m 594 769 l 469 956 q 455 965 464 963 q 435 968 446 968 q 401 956 418 968 q 372 926 383 944 q 360 883 360 907 q 365 867 360 872 q 383 853 371 863 l 539 732 q 555 726 546 726 q 569 726 564 726 q 594 733 582 726 q 606 749 606 739 q 602 758 606 753 q 594 769 599 764 m 410 765 l 229 954 q 194 967 218 967 q 160 955 178 967 q 131 924 143 943 q 119 882 119 906 q 124 865 119 871 q 143 851 129 858 l 354 731 q 371 726 363 726 q 385 725 379 725 q 409 731 397 725 q 421 747 421 738 q 417 756 421 751 q 410 765 414 760 z "},"ë":{"ha":614,"x_min":28,"x_max":592,"o":"m 251 -22 q 86 45 144 -22 q 28 231 28 113 q 56 411 28 329 q 133 554 83 493 q 251 649 183 615 q 397 682 318 682 q 542 642 492 682 q 592 526 592 601 q 541 393 592 450 q 395 296 490 336 q 168 228 300 256 l 150 311 q 290 344 226 321 q 393 408 354 368 q 432 501 432 447 q 417 558 432 539 q 365 578 403 578 q 269 536 308 578 q 209 428 229 494 q 189 286 189 361 q 220 151 189 185 q 313 117 251 117 q 424 137 376 117 q 507 179 472 157 q 526 190 518 186 q 540 194 535 194 q 551 189 547 194 q 556 176 556 183 q 533 118 556 151 q 470 53 511 85 q 374 -1 429 21 q 251 -22 318 -22 m 469 776 q 414 798 438 776 q 390 856 390 819 q 418 922 390 897 q 482 946 446 946 q 537 926 514 946 q 560 867 560 906 q 533 802 560 828 q 469 776 507 776 m 246 776 q 190 798 214 776 q 167 856 167 819 q 194 922 167 897 q 258 946 222 946 q 313 926 290 946 q 336 867 336 906 q 310 802 336 828 q 246 776 283 776 z "},"ė":{"ha":614,"x_min":28,"x_max":592,"o":"m 251 -22 q 86 45 144 -22 q 28 231 28 113 q 56 411 28 329 q 133 554 83 493 q 251 649 183 615 q 397 682 318 682 q 542 642 492 682 q 592 526 592 601 q 541 393 592 450 q 395 296 490 336 q 168 228 300 256 l 150 311 q 290 344 226 321 q 393 408 354 368 q 432 501 432 447 q 417 558 432 539 q 365 578 403 578 q 269 536 308 578 q 209 428 229 494 q 189 286 189 361 q 220 151 189 185 q 313 117 251 117 q 424 137 376 117 q 507 179 472 157 q 526 190 518 186 q 540 194 535 194 q 551 189 547 194 q 556 176 556 183 q 533 118 556 151 q 470 53 511 85 q 374 -1 429 21 q 251 -22 318 -22 m 367 761 q 299 788 328 761 q 271 857 271 814 q 304 937 271 908 q 381 965 338 965 q 448 942 421 965 q 475 871 475 918 q 443 792 475 824 q 367 761 411 761 z "},"è":{"ha":614,"x_min":28,"x_max":592,"o":"m 251 -22 q 86 45 144 -22 q 28 231 28 113 q 56 411 28 329 q 133 554 83 493 q 251 649 183 615 q 397 682 318 682 q 542 642 492 682 q 592 526 592 601 q 541 393 592 450 q 395 296 490 336 q 168 228 300 256 l 150 311 q 290 344 226 321 q 393 408 354 368 q 432 501 432 447 q 417 558 432 539 q 365 578 403 578 q 269 536 308 578 q 209 428 229 494 q 189 286 189 361 q 220 151 189 185 q 313 117 251 117 q 424 137 376 117 q 507 179 472 157 q 526 190 518 186 q 540 194 535 194 q 551 189 547 194 q 556 176 556 183 q 533 118 556 151 q 470 53 511 85 q 374 -1 429 21 q 251 -22 318 -22 m 508 765 l 328 954 q 313 964 322 961 q 292 967 303 967 q 258 955 275 967 q 228 924 240 943 q 217 882 217 906 q 222 865 217 871 q 240 851 226 858 l 453 731 q 469 726 461 726 q 483 725 478 725 q 508 731 496 725 q 519 747 519 738 q 516 756 519 751 q 508 765 513 760 z "},"ȇ":{"ha":614,"x_min":28,"x_max":592,"o":"m 251 -22 q 86 45 144 -22 q 28 231 28 113 q 56 411 28 329 q 133 554 83 493 q 251 649 183 615 q 397 682 318 682 q 542 642 492 682 q 592 526 592 601 q 541 393 592 450 q 395 296 490 336 q 168 228 300 256 l 150 311 q 290 344 226 321 q 393 408 354 368 q 432 501 432 447 q 417 558 432 539 q 365 578 403 578 q 269 536 308 578 q 209 428 229 494 q 189 286 189 361 q 220 151 189 185 q 313 117 251 117 q 424 137 376 117 q 507 179 472 157 q 526 190 518 186 q 540 194 535 194 q 551 189 547 194 q 556 176 556 183 q 533 118 556 151 q 470 53 511 85 q 374 -1 429 21 q 251 -22 318 -22 m 390 956 q 536 905 490 956 q 582 781 582 854 q 572 749 582 758 q 547 740 563 739 l 485 747 q 467 755 472 749 q 463 771 463 761 q 447 856 463 825 q 386 888 431 888 q 324 858 343 888 q 294 781 306 828 q 279 747 289 754 q 250 742 269 740 l 194 747 q 178 753 185 749 q 171 769 171 757 q 194 850 171 807 q 267 924 218 893 q 390 956 317 956 z "},"ē":{"ha":614,"x_min":28,"x_max":592,"o":"m 251 -22 q 86 45 144 -22 q 28 231 28 113 q 56 411 28 329 q 133 554 83 493 q 251 649 183 615 q 397 682 318 682 q 542 642 492 682 q 592 526 592 601 q 541 393 592 450 q 395 296 490 336 q 168 228 300 256 l 150 311 q 290 344 226 321 q 393 408 354 368 q 432 501 432 447 q 417 558 432 539 q 365 578 403 578 q 269 536 308 578 q 209 428 229 494 q 189 286 189 361 q 220 151 189 185 q 313 117 251 117 q 424 137 376 117 q 507 179 472 157 q 526 190 518 186 q 540 194 535 194 q 551 189 547 194 q 556 176 556 183 q 533 118 556 151 q 470 53 511 85 q 374 -1 429 21 q 251 -22 318 -22 m 175 863 q 196 883 178 883 l 539 883 q 560 863 563 883 l 554 821 q 533 800 551 800 l 190 800 q 169 821 167 800 l 175 863 z "},"ę":{"ha":592,"x_min":28,"x_max":592,"o":"m 342 -296 q 263 -280 301 -296 q 201 -234 225 -264 q 178 -161 178 -204 q 228 -43 178 -96 q 392 38 279 10 l 457 54 q 360 -44 389 -4 q 332 -112 332 -85 q 349 -158 332 -143 q 394 -176 367 -172 q 451 -181 422 -181 q 467 -184 460 -181 q 474 -194 474 -187 q 457 -233 474 -208 q 408 -278 440 -260 q 342 -296 376 -296 m 251 -22 q 86 45 144 -22 q 28 231 28 113 q 56 411 28 329 q 133 554 83 493 q 251 649 183 615 q 397 682 318 682 q 542 642 492 682 q 592 526 592 601 q 541 393 592 450 q 395 296 490 336 q 168 228 300 256 l 150 311 q 290 344 226 321 q 393 408 354 368 q 432 501 432 447 q 417 558 432 539 q 365 578 403 578 q 269 536 308 578 q 209 428 229 494 q 189 286 189 361 q 220 151 189 185 q 313 117 251 117 q 424 137 376 117 q 507 179 472 157 q 526 190 518 186 q 540 194 535 194 q 551 189 547 194 q 556 176 556 183 q 533 118 556 151 q 470 53 511 85 q 374 -1 429 21 q 251 -22 318 -22 z "},"ə":{"ha":614,"x_min":22,"x_max":586,"o":"m 363 682 q 528 615 469 682 q 586 429 586 547 q 558 249 586 332 q 481 106 531 167 q 363 11 431 44 q 217 -22 296 -22 q 73 18 124 -22 q 22 133 22 58 q 73 267 22 211 q 219 364 124 324 q 446 432 314 404 l 464 349 q 324 316 389 340 q 221 253 260 292 q 182 158 182 214 q 197 101 182 121 q 249 82 211 82 q 345 124 306 82 q 405 232 385 165 q 425 374 425 299 q 394 510 425 476 q 301 543 363 543 q 190 523 238 543 q 107 481 143 503 q 88 469 96 474 q 74 465 81 465 q 63 472 67 465 q 58 483 58 478 q 81 542 58 508 q 144 607 103 575 q 240 660 185 639 q 363 682 296 682 z "},"f":{"ha":449,"x_min":29,"x_max":575,"o":"m 64 -304 q 38 -292 46 -304 q 29 -261 29 -281 q 33 -197 29 -232 l 136 654 q 237 891 156 815 q 457 967 318 967 q 548 947 521 967 q 575 886 575 926 q 569 842 575 863 q 554 808 564 821 q 531 794 544 794 q 497 812 519 794 q 446 846 475 829 q 382 863 417 863 q 319 816 336 863 q 293 693 301 769 l 247 289 q 231 123 238 207 q 217 -33 224 39 q 195 -114 213 -68 q 153 -203 178 -160 q 104 -276 128 -247 q 64 -304 81 -304 m 57 563 q 43 569 47 563 q 42 586 39 576 l 51 613 q 72 650 61 640 q 126 660 83 660 l 460 660 q 471 638 478 660 q 442 581 457 599 q 385 563 426 563 l 57 563 z "},"g":{"ha":731,"x_min":25,"x_max":717,"o":"m 267 -307 q 145 -287 200 -307 q 58 -224 90 -267 q 25 -111 25 -181 q 40 -87 25 -87 q 58 -93 47 -87 q 88 -108 69 -99 q 155 -144 113 -122 q 243 -182 197 -165 q 324 -199 289 -199 q 366 -189 346 -199 q 405 -152 386 -179 q 440 -74 424 -125 q 472 58 457 -24 l 542 435 l 517 468 l 518 646 q 647 668 607 657 q 703 679 688 679 q 717 663 717 679 q 699 604 717 656 q 663 472 682 553 q 639 292 643 392 l 629 42 q 591 -122 625 -56 q 503 -230 557 -189 q 387 -289 449 -271 q 267 -307 325 -307 m 179 -12 q 68 51 101 -12 q 35 228 35 114 q 64 406 35 324 q 144 550 93 489 q 262 646 194 611 q 406 681 329 681 q 515 665 465 681 q 599 632 564 649 l 558 486 q 474 532 521 511 q 388 565 428 553 q 329 576 349 576 q 259 538 290 576 q 210 433 228 499 q 192 288 192 368 q 203 165 192 207 q 242 124 215 124 q 302 163 260 124 q 404 294 344 201 q 532 551 464 388 l 571 428 q 428 165 496 261 q 300 28 361 68 q 179 -12 239 -12 z "},"ğ":{"ha":731,"x_min":25,"x_max":717,"o":"m 267 -307 q 145 -287 200 -307 q 58 -224 90 -267 q 25 -111 25 -181 q 40 -87 25 -87 q 58 -93 47 -87 q 88 -108 69 -99 q 155 -144 113 -122 q 243 -182 197 -165 q 324 -199 289 -199 q 366 -189 346 -199 q 405 -152 386 -179 q 440 -74 424 -125 q 472 58 457 -24 l 542 435 l 517 468 l 518 646 q 647 668 607 657 q 703 679 688 679 q 717 663 717 679 q 699 604 717 656 q 663 472 682 553 q 639 292 643 392 l 629 42 q 591 -122 625 -56 q 503 -230 557 -189 q 387 -289 449 -271 q 267 -307 325 -307 m 179 -12 q 68 51 101 -12 q 35 228 35 114 q 64 406 35 324 q 144 550 93 489 q 262 646 194 611 q 406 681 329 681 q 515 665 465 681 q 599 632 564 649 l 558 486 q 474 532 521 511 q 388 565 428 553 q 329 576 349 576 q 259 538 290 576 q 210 433 228 499 q 192 288 192 368 q 203 165 192 207 q 242 124 215 124 q 302 163 260 124 q 404 294 344 201 q 532 551 464 388 l 571 428 q 428 165 496 261 q 300 28 361 68 q 179 -12 239 -12 m 404 740 q 258 792 304 740 q 213 915 213 843 q 222 948 213 938 q 247 956 232 958 l 310 949 q 327 942 322 947 q 332 925 332 936 q 349 840 332 871 q 408 808 365 808 q 471 838 451 808 q 500 915 490 868 q 516 949 507 942 q 544 954 525 957 l 600 949 q 617 943 610 947 q 624 926 624 939 q 600 847 624 890 q 528 772 576 803 q 404 740 479 740 z "},"ǧ":{"ha":731,"x_min":25,"x_max":717,"o":"m 267 -307 q 145 -287 200 -307 q 58 -224 90 -267 q 25 -111 25 -181 q 40 -87 25 -87 q 58 -93 47 -87 q 88 -108 69 -99 q 155 -144 113 -122 q 243 -182 197 -165 q 324 -199 289 -199 q 366 -189 346 -199 q 405 -152 386 -179 q 440 -74 424 -125 q 472 58 457 -24 l 542 435 l 517 468 l 518 646 q 647 668 607 657 q 703 679 688 679 q 717 663 717 679 q 699 604 717 656 q 663 472 682 553 q 639 292 643 392 l 629 42 q 591 -122 625 -56 q 503 -230 557 -189 q 387 -289 449 -271 q 267 -307 325 -307 m 179 -12 q 68 51 101 -12 q 35 228 35 114 q 64 406 35 324 q 144 550 93 489 q 262 646 194 611 q 406 681 329 681 q 515 665 465 681 q 599 632 564 649 l 558 486 q 474 532 521 511 q 388 565 428 553 q 329 576 349 576 q 259 538 290 576 q 210 433 228 499 q 192 288 192 368 q 203 165 192 207 q 242 124 215 124 q 302 163 260 124 q 404 294 344 201 q 532 551 464 388 l 571 428 q 428 165 496 261 q 300 28 361 68 q 179 -12 239 -12 m 629 926 l 629 926 q 636 944 639 938 q 619 953 633 951 l 568 958 q 551 958 557 960 q 538 949 544 956 l 419 828 l 322 947 q 308 960 317 954 q 275 965 299 967 l 222 963 q 207 954 211 961 q 208 936 203 947 l 313 778 q 347 742 331 751 q 396 733 364 733 q 444 742 428 733 q 472 763 460 750 l 629 926 z "},"ĝ":{"ha":731,"x_min":25,"x_max":717,"o":"m 267 -307 q 145 -287 200 -307 q 58 -224 90 -267 q 25 -111 25 -181 q 40 -87 25 -87 q 58 -93 47 -87 q 88 -108 69 -99 q 155 -144 113 -122 q 243 -182 197 -165 q 324 -199 289 -199 q 366 -189 346 -199 q 405 -152 386 -179 q 440 -74 424 -125 q 472 58 457 -24 l 542 435 l 517 468 l 518 646 q 647 668 607 657 q 703 679 688 679 q 717 663 717 679 q 699 604 717 656 q 663 472 682 553 q 639 292 643 392 l 629 42 q 591 -122 625 -56 q 503 -230 557 -189 q 387 -289 449 -271 q 267 -307 325 -307 m 179 -12 q 68 51 101 -12 q 35 228 35 114 q 64 406 35 324 q 144 550 93 489 q 262 646 194 611 q 406 681 329 681 q 515 665 465 681 q 599 632 564 649 l 558 486 q 474 532 521 511 q 388 565 428 553 q 329 576 349 576 q 259 538 290 576 q 210 433 228 499 q 192 288 192 368 q 203 165 192 207 q 242 124 215 124 q 302 163 260 124 q 404 294 344 201 q 532 551 464 388 l 571 428 q 428 165 496 261 q 300 28 361 68 q 179 -12 239 -12 m 196 772 l 196 772 q 189 755 186 763 q 206 746 192 747 l 257 740 q 275 742 268 739 q 288 750 282 744 l 406 871 l 503 751 q 518 738 510 744 q 550 733 526 732 l 603 736 q 619 745 614 738 q 617 763 624 753 l 513 921 q 478 957 494 949 q 429 965 461 965 q 382 957 399 965 q 353 936 365 949 l 196 772 z "},"ģ":{"ha":731,"x_min":25,"x_max":717,"o":"m 267 -307 q 145 -287 200 -307 q 58 -224 90 -267 q 25 -111 25 -181 q 40 -87 25 -87 q 58 -93 47 -87 q 88 -108 69 -99 q 155 -144 113 -122 q 243 -182 197 -165 q 324 -199 289 -199 q 366 -189 346 -199 q 405 -152 386 -179 q 440 -74 424 -125 q 472 58 457 -24 l 542 435 l 517 468 l 518 646 q 647 668 607 657 q 703 679 688 679 q 717 663 717 679 q 699 604 717 656 q 663 472 682 553 q 639 292 643 392 l 629 42 q 591 -122 625 -56 q 503 -230 557 -189 q 387 -289 449 -271 q 267 -307 325 -307 m 179 -12 q 68 51 101 -12 q 35 228 35 114 q 64 406 35 324 q 144 550 93 489 q 262 646 194 611 q 406 681 329 681 q 515 665 465 681 q 599 632 564 649 l 558 486 q 474 532 521 511 q 388 565 428 553 q 329 576 349 576 q 259 538 290 576 q 210 433 228 499 q 192 288 192 368 q 203 165 192 207 q 242 124 215 124 q 302 163 260 124 q 404 294 344 201 q 532 551 464 388 l 571 428 q 428 165 496 261 q 300 28 361 68 q 179 -12 239 -12 m 692 949 q 684 936 692 939 q 657 931 676 933 q 586 908 614 924 q 553 843 558 892 l 549 878 q 612 856 588 878 q 636 801 636 833 q 615 740 636 760 q 557 719 593 719 q 491 749 515 719 q 467 826 467 778 q 492 917 467 882 q 555 969 518 951 q 626 986 592 986 q 677 974 663 986 q 692 949 692 963 z "},"ġ":{"ha":731,"x_min":25,"x_max":717,"o":"m 267 -307 q 145 -287 200 -307 q 58 -224 90 -267 q 25 -111 25 -181 q 40 -87 25 -87 q 58 -93 47 -87 q 88 -108 69 -99 q 155 -144 113 -122 q 243 -182 197 -165 q 324 -199 289 -199 q 366 -189 346 -199 q 405 -152 386 -179 q 440 -74 424 -125 q 472 58 457 -24 l 542 435 l 517 468 l 518 646 q 647 668 607 657 q 703 679 688 679 q 717 663 717 679 q 699 604 717 656 q 663 472 682 553 q 639 292 643 392 l 629 42 q 591 -122 625 -56 q 503 -230 557 -189 q 387 -289 449 -271 q 267 -307 325 -307 m 179 -12 q 68 51 101 -12 q 35 228 35 114 q 64 406 35 324 q 144 550 93 489 q 262 646 194 611 q 406 681 329 681 q 515 665 465 681 q 599 632 564 649 l 558 486 q 474 532 521 511 q 388 565 428 553 q 329 576 349 576 q 259 538 290 576 q 210 433 228 499 q 192 288 192 368 q 203 165 192 207 q 242 124 215 124 q 302 163 260 124 q 404 294 344 201 q 532 551 464 388 l 571 428 q 428 165 496 261 q 300 28 361 68 q 179 -12 239 -12 m 417 761 q 349 788 378 761 q 321 857 321 814 q 354 937 321 908 q 431 965 388 965 q 498 942 471 965 q 525 871 525 918 q 493 792 525 824 q 417 761 461 761 z "},"h":{"ha":736,"x_min":47,"x_max":679,"o":"m 496 -14 q 477 1 485 -14 q 467 33 469 15 q 464 63 464 51 q 467 113 464 82 q 474 177 469 143 q 482 236 478 211 l 506 381 q 514 433 510 408 q 518 485 518 457 q 510 517 518 506 q 488 528 501 528 q 428 494 469 528 q 341 396 388 460 q 256 241 294 332 q 207 35 218 150 l 172 243 q 300 500 229 404 q 440 638 371 596 q 563 681 510 681 q 651 645 624 681 q 679 554 679 610 q 674 490 679 524 q 664 421 669 457 l 597 -14 l 496 -14 m 83 -19 q 56 -12 65 -19 q 47 22 47 -4 q 53 104 47 49 l 113 651 q 133 809 121 731 q 150 967 146 888 l 247 967 q 288 929 275 967 q 301 853 301 892 q 299 798 301 822 q 290 747 296 774 q 275 681 285 721 l 186 274 l 232 331 q 217 163 222 242 q 207 35 211 83 q 183 8 207 21 q 129 -12 158 -4 q 83 -19 100 -19 z "},"ħ":{"ha":736,"x_min":42,"x_max":679,"o":"m 67 697 q 42 717 42 697 q 66 772 42 746 q 121 797 90 797 l 394 796 q 415 792 411 796 q 419 778 419 789 q 411 752 419 772 q 388 715 403 732 q 354 697 374 697 l 67 697 m 496 -14 q 477 1 485 -14 q 467 33 469 15 q 464 63 464 51 q 467 113 464 82 q 474 177 469 143 q 482 236 478 211 l 506 381 q 514 433 510 408 q 518 485 518 457 q 510 517 518 506 q 488 528 501 528 q 428 494 469 528 q 341 396 388 460 q 256 241 294 332 q 207 35 218 150 l 172 243 q 300 500 229 404 q 440 638 371 596 q 563 681 510 681 q 651 645 624 681 q 679 554 679 610 q 674 490 679 524 q 664 421 669 457 l 597 -14 l 496 -14 m 83 -19 q 56 -12 65 -19 q 47 22 47 -4 q 53 104 47 49 l 113 651 q 133 809 121 731 q 150 967 146 888 l 247 967 q 288 929 275 967 q 301 853 301 892 q 299 798 301 822 q 290 747 296 774 q 275 681 285 721 l 186 274 l 232 331 q 217 163 222 242 q 207 35 211 83 q 183 8 207 21 q 129 -12 158 -4 q 83 -19 100 -19 z "},"ĥ":{"ha":736,"x_min":47,"x_max":697,"o":"m 496 -14 q 477 1 485 -14 q 467 33 469 15 q 464 63 464 51 q 467 113 464 82 q 474 177 469 143 q 482 236 478 211 l 506 381 q 514 433 510 408 q 518 485 518 457 q 510 517 518 506 q 488 528 501 528 q 428 494 469 528 q 341 396 388 460 q 256 241 294 332 q 207 35 218 150 l 172 243 q 300 500 229 404 q 440 638 371 596 q 563 681 510 681 q 651 645 624 681 q 679 554 679 610 q 674 490 679 524 q 664 421 669 457 l 597 -14 l 496 -14 m 83 -19 q 56 -12 65 -19 q 47 22 47 -4 q 53 104 47 49 l 113 651 q 133 809 121 731 q 150 967 146 888 l 247 967 q 288 929 275 967 q 301 853 301 892 q 299 798 301 822 q 290 747 296 774 q 275 681 285 721 l 186 274 l 232 331 q 217 163 222 242 q 207 35 211 83 q 183 8 207 21 q 129 -12 158 -4 q 83 -19 100 -19 m 269 1057 l 269 1057 q 263 1040 260 1047 q 279 1031 265 1032 l 331 1025 q 349 1026 342 1024 q 361 1035 356 1029 l 479 1156 l 576 1036 q 592 1023 583 1029 q 624 1018 600 1017 l 676 1021 q 692 1030 688 1022 q 690 1047 697 1038 l 586 1206 q 551 1242 568 1233 q 503 1250 535 1250 q 456 1242 472 1250 q 426 1221 439 1233 l 269 1057 z "},"i":{"ha":322,"x_min":57,"x_max":325,"o":"m 94 -22 q 64 5 71 -22 q 57 61 57 32 q 62 150 57 111 q 72 236 67 189 l 122 682 l 219 682 q 256 651 247 682 q 264 582 264 621 q 261 541 264 563 q 253 475 258 519 l 226 249 q 211 128 218 176 q 200 44 204 79 q 192 -22 196 10 l 94 -22 m 217 761 q 149 788 178 761 q 121 857 121 814 q 154 937 121 908 q 231 965 188 965 q 298 942 271 965 q 325 871 325 918 q 293 792 325 824 q 217 761 261 761 z "},"ı":{"ha":322,"x_min":57,"x_max":264,"o":"m 94 -22 q 64 5 71 -22 q 57 61 57 32 q 62 150 57 111 q 72 236 67 189 l 122 682 l 219 682 q 256 651 247 682 q 264 582 264 621 q 261 541 264 563 q 253 475 258 519 l 226 249 q 211 128 218 176 q 200 44 204 79 q 192 -22 196 10 l 94 -22 z "},"í":{"ha":322,"x_min":26,"x_max":371,"o":"m 94 -22 q 64 5 71 -22 q 57 61 57 32 q 62 150 57 111 q 72 236 67 189 l 122 682 l 219 682 q 256 651 247 682 q 264 582 264 621 q 261 541 264 563 q 253 475 258 519 l 226 249 q 211 128 218 176 q 200 44 204 79 q 192 -22 196 10 l 94 -22 m 38 765 q 26 747 26 757 q 38 731 26 738 q 63 725 50 725 q 77 726 69 725 q 93 731 85 726 l 347 851 q 366 865 361 858 q 371 882 371 871 q 359 924 371 906 q 331 955 347 943 q 296 967 314 967 q 261 954 276 967 l 38 765 z "},"ĭ":{"ha":322,"x_min":13,"x_max":424,"o":"m 94 -22 q 64 5 71 -22 q 57 61 57 32 q 62 150 57 111 q 72 236 67 189 l 122 682 l 219 682 q 256 651 247 682 q 264 582 264 621 q 261 541 264 563 q 253 475 258 519 l 226 249 q 211 128 218 176 q 200 44 204 79 q 192 -22 196 10 l 94 -22 m 204 740 q 58 792 104 740 q 13 915 13 843 q 22 948 13 938 q 47 956 32 958 l 110 949 q 127 942 122 947 q 132 925 132 936 q 149 840 132 871 q 208 808 165 808 q 271 838 251 808 q 300 915 290 868 q 316 949 307 942 q 344 954 325 957 l 400 949 q 417 943 410 947 q 424 926 424 939 q 400 847 424 890 q 328 772 376 803 q 204 740 279 740 z "},"î":{"ha":322,"x_min":-14,"x_max":424,"o":"m 94 -22 q 64 5 71 -22 q 57 61 57 32 q 62 150 57 111 q 72 236 67 189 l 122 682 l 219 682 q 256 651 247 682 q 264 582 264 621 q 261 541 264 563 q 253 475 258 519 l 226 249 q 211 128 218 176 q 200 44 204 79 q 192 -22 196 10 l 94 -22 m -4 772 l -4 772 q -11 755 -14 763 q 6 746 -8 747 l 57 740 q 75 742 68 739 q 88 750 82 744 l 206 871 l 303 751 q 318 738 310 744 q 350 733 326 732 l 403 736 q 419 745 414 738 q 417 763 424 753 l 313 921 q 278 957 294 949 q 229 965 261 965 q 182 957 199 965 q 153 936 165 949 l -4 772 z "},"ȉ":{"ha":322,"x_min":-31,"x_max":456,"o":"m 94 -22 q 64 5 71 -22 q 57 61 57 32 q 62 150 57 111 q 72 236 67 189 l 122 682 l 219 682 q 256 651 247 682 q 264 582 264 621 q 261 541 264 563 q 253 475 258 519 l 226 249 q 211 128 218 176 q 200 44 204 79 q 192 -22 196 10 l 94 -22 m 444 769 l 319 956 q 305 965 314 963 q 285 968 296 968 q 251 956 268 968 q 222 926 233 944 q 210 883 210 907 q 215 867 210 872 q 233 853 221 863 l 389 732 q 405 726 396 726 q 419 726 414 726 q 444 733 432 726 q 456 749 456 739 q 452 758 456 753 q 444 769 449 764 m 260 765 l 79 954 q 44 967 68 967 q 10 955 28 967 q -19 924 -7 943 q -31 882 -31 906 q -26 865 -31 871 q -7 851 -21 858 l 204 731 q 221 726 213 726 q 235 725 229 725 q 259 731 247 725 q 271 747 271 738 q 267 756 271 751 q 260 765 264 760 z "},"ï":{"ha":322,"x_min":17,"x_max":410,"o":"m 94 -22 q 64 5 71 -22 q 57 61 57 32 q 62 150 57 111 q 72 236 67 189 l 122 682 l 219 682 q 256 651 247 682 q 264 582 264 621 q 261 541 264 563 q 253 475 258 519 l 226 249 q 211 128 218 176 q 200 44 204 79 q 192 -22 196 10 l 94 -22 m 319 776 q 264 798 288 776 q 240 856 240 819 q 268 922 240 897 q 332 946 296 946 q 387 926 364 946 q 410 867 410 906 q 383 802 410 828 q 319 776 357 776 m 96 776 q 40 798 64 776 q 17 856 17 819 q 44 922 17 897 q 108 946 72 946 q 163 926 140 946 q 186 867 186 906 q 160 802 186 828 q 96 776 133 776 z "},"ì":{"ha":322,"x_min":57,"x_max":369,"o":"m 94 -22 q 64 5 71 -22 q 57 61 57 32 q 62 150 57 111 q 72 236 67 189 l 122 682 l 219 682 q 256 651 247 682 q 264 582 264 621 q 261 541 264 563 q 253 475 258 519 l 226 249 q 211 128 218 176 q 200 44 204 79 q 192 -22 196 10 l 94 -22 m 358 765 l 178 954 q 163 964 172 961 q 142 967 153 967 q 108 955 125 967 q 78 924 90 943 q 67 882 67 906 q 72 865 67 871 q 90 851 76 858 l 303 731 q 319 726 311 726 q 333 725 328 725 q 358 731 346 725 q 369 747 369 738 q 366 756 369 751 q 358 765 363 760 z "},"ȋ":{"ha":322,"x_min":21,"x_max":432,"o":"m 94 -22 q 64 5 71 -22 q 57 61 57 32 q 62 150 57 111 q 72 236 67 189 l 122 682 l 219 682 q 256 651 247 682 q 264 582 264 621 q 261 541 264 563 q 253 475 258 519 l 226 249 q 211 128 218 176 q 200 44 204 79 q 192 -22 196 10 l 94 -22 m 240 956 q 386 905 340 956 q 432 781 432 854 q 422 749 432 758 q 397 740 413 739 l 335 747 q 317 755 322 749 q 313 771 313 761 q 297 856 313 825 q 236 888 281 888 q 174 858 193 888 q 144 781 156 828 q 129 747 139 754 q 100 742 119 740 l 44 747 q 28 753 35 749 q 21 769 21 757 q 44 850 21 807 q 117 924 68 893 q 240 956 167 956 z "},"ĳ":{"ha":647,"x_min":57,"x_max":663,"o":"m 94 -22 q 64 5 71 -22 q 57 61 57 32 q 62 150 57 111 q 72 236 67 189 l 122 682 l 219 682 q 256 651 247 682 q 264 582 264 621 q 261 541 264 563 q 253 475 258 519 l 226 249 q 211 128 218 176 q 200 44 204 79 q 192 -22 196 10 l 94 -22 m 217 761 q 149 788 178 761 q 121 857 121 814 q 154 937 121 908 q 231 965 188 965 q 298 942 271 965 q 325 871 325 918 q 293 792 325 824 q 217 761 261 761 m 258 -307 q 197 -289 224 -307 q 154 -237 169 -271 q 139 -160 139 -204 q 145 -140 139 -146 q 157 -133 151 -133 q 172 -140 164 -133 q 199 -157 181 -146 q 260 -188 226 -174 q 318 -203 294 -203 q 346 -188 333 -203 q 369 -137 358 -174 q 389 -37 379 -101 q 408 128 399 28 l 463 682 l 563 682 q 592 664 579 682 q 610 623 604 646 q 617 582 617 600 q 607 492 617 550 q 585 354 597 435 q 563 169 572 274 l 547 -1 q 497 -176 538 -108 q 395 -276 457 -244 q 258 -307 333 -307 m 554 761 q 487 788 515 761 q 458 857 458 814 q 492 937 458 908 q 568 965 525 965 q 635 942 608 965 q 663 871 663 918 q 631 792 663 824 q 554 761 599 761 z "},"ī":{"ha":322,"x_min":17,"x_max":413,"o":"m 94 -22 q 64 5 71 -22 q 57 61 57 32 q 62 150 57 111 q 72 236 67 189 l 122 682 l 219 682 q 256 651 247 682 q 264 582 264 621 q 261 541 264 563 q 253 475 258 519 l 226 249 q 211 128 218 176 q 200 44 204 79 q 192 -22 196 10 l 94 -22 m 25 863 q 46 883 28 883 l 389 883 q 410 863 413 883 l 404 821 q 383 800 401 800 l 40 800 q 19 821 17 800 l 25 863 z "},"į":{"ha":322,"x_min":-64,"x_max":325,"o":"m 100 -296 q 22 -280 60 -296 q -40 -231 -17 -264 q -64 -149 -64 -199 q -44 -81 -64 -112 q 26 -22 -25 -50 q 168 28 76 6 q 188 28 178 28 q 207 28 197 28 q 212 16 210 22 q 215 3 214 10 q 119 -60 147 -36 q 90 -112 90 -85 q 108 -158 90 -143 q 153 -176 125 -172 q 210 -181 181 -181 q 225 -184 218 -181 q 232 -194 232 -187 q 215 -233 232 -208 q 167 -278 199 -260 q 100 -296 135 -296 m 94 -22 q 64 5 71 -22 q 57 61 57 32 q 62 150 57 111 q 72 236 67 189 l 122 682 l 219 682 q 256 651 247 682 q 264 582 264 621 q 261 541 264 563 q 253 475 258 519 l 226 249 q 211 128 218 176 q 200 44 204 79 q 192 -22 196 10 l 94 -22 m 217 761 q 149 788 178 761 q 121 857 121 814 q 154 937 121 908 q 231 965 188 965 q 298 942 271 965 q 325 871 325 918 q 293 792 325 824 q 217 761 261 761 z "},"j":{"ha":325,"x_min":-183,"x_max":340,"o":"m -64 -307 q -126 -289 -99 -307 q -168 -237 -153 -271 q -183 -160 -183 -204 q -177 -140 -183 -146 q -165 -133 -171 -133 q -150 -140 -158 -133 q -124 -157 -142 -146 q -62 -188 -96 -174 q -4 -203 -28 -203 q 24 -188 11 -203 q 47 -137 36 -174 q 67 -37 57 -101 q 86 128 76 28 l 140 682 l 240 682 q 269 664 257 682 q 288 623 282 646 q 294 582 294 600 q 285 492 294 550 q 263 354 275 435 q 240 169 250 274 l 225 -1 q 175 -176 215 -108 q 73 -276 135 -244 q -64 -307 11 -307 m 232 761 q 165 788 193 761 q 136 857 136 814 q 169 937 136 908 q 246 965 203 965 q 313 942 286 965 q 340 871 340 918 q 308 792 340 824 q 232 761 276 761 z "},"ȷ":{"ha":325,"x_min":-183,"x_max":294,"o":"m -64 -307 q -126 -289 -99 -307 q -168 -237 -153 -271 q -183 -160 -183 -204 q -177 -140 -183 -146 q -165 -133 -171 -133 q -150 -140 -158 -133 q -124 -157 -142 -146 q -62 -188 -96 -174 q -4 -203 -28 -203 q 24 -188 11 -203 q 47 -137 36 -174 q 67 -37 57 -101 q 86 128 76 28 l 140 682 l 240 682 q 269 664 257 682 q 288 623 282 646 q 294 582 294 600 q 285 492 294 550 q 263 354 275 435 q 240 169 250 274 l 225 -1 q 175 -176 215 -108 q 73 -276 135 -244 q -64 -307 11 -307 z "},"ĵ":{"ha":325,"x_min":-183,"x_max":439,"o":"m -64 -307 q -126 -289 -99 -307 q -168 -237 -153 -271 q -183 -160 -183 -204 q -177 -140 -183 -146 q -165 -133 -171 -133 q -150 -140 -158 -133 q -124 -157 -142 -146 q -62 -188 -96 -174 q -4 -203 -28 -203 q 24 -188 11 -203 q 47 -137 36 -174 q 67 -37 57 -101 q 86 128 76 28 l 140 682 l 240 682 q 269 664 257 682 q 288 623 282 646 q 294 582 294 600 q 285 492 294 550 q 263 354 275 435 q 240 169 250 274 l 225 -1 q 175 -176 215 -108 q 73 -276 135 -244 q -64 -307 11 -307 m 11 772 l 11 772 q 4 755 1 763 q 21 746 7 747 l 72 740 q 90 742 83 739 q 103 750 97 744 l 221 871 l 318 751 q 333 738 325 744 q 365 733 342 732 l 418 736 q 434 745 429 738 q 432 763 439 753 l 328 921 q 293 957 310 949 q 244 965 276 965 q 197 957 214 965 q 168 936 181 949 l 11 772 z "}}}
